SplineFontDB: 3.0
FontName: TengwarParmaiteGlaemscrafu
FullName: Tengwar Parmaite Glaemscrafu
FamilyName: Tengwar Parmaite Glaemscrafu
Weight: Book
Copyright: Tengwar font by Mans Bjo:rkman (c) 1998-2005\nModified by Talagan (Benjamin Babut) for Glaemscribe
Version: 2.0
ItalicAngle: 0
UnderlinePosition: -143
UnderlineWidth: 20
Ascent: 1638
Descent: 410
InvalidEm: 0
sfntRevision: 0x00000000
LayerCount: 2
Layer: 0 1 "Back" 1
Layer: 1 1 "Fore" 0
XUID: [1021 413 -2007676463 12740913]
StyleMap: 0x0040
FSType: 0
OS2Version: 1
OS2_WeightWidthSlopeOnly: 0
OS2_UseTypoMetrics: 0
CreationTime: 1106669751
ModificationTime: 1515338062
PfmFamily: 81
TTFWeight: 400
TTFWidth: 5
LineGap: 0
VLineGap: 0
Panose: 0 0 4 0 0 0 0 0 0 0
OS2TypoAscent: 1368
OS2TypoAOffset: 0
OS2TypoDescent: -718
OS2TypoDOffset: 0
OS2TypoLinegap: 0
OS2WinAscent: 1368
OS2WinAOffset: 0
OS2WinDescent: 718
OS2WinDOffset: 0
HheadAscent: 1368
HheadAOffset: 0
HheadDescent: -718
HheadDOffset: 0
OS2SubXSize: 1434
OS2SubYSize: 1331
OS2SubXOff: 0
OS2SubYOff: 293
OS2SupXSize: 1434
OS2SupYSize: 1331
OS2SupXOff: 0
OS2SupYOff: 928
OS2StrikeYSize: 102
OS2StrikeYPos: 530
OS2Vendor: 'MACR'
OS2CodePages: 00000001.00000000
OS2UnicodeRanges: 00000003.00000000.00000000.00000000
Lookup: 258 0 0 "'kern' Horizontal Kerning lookup 0" { "'kern' Horizontal Kerning lookup 0 subtable"  } ['kern' ('DFLT' <'dflt' > ) ]
MarkAttachClasses: 1
DEI: 91125
TtTable: prep
NPUSHB
 21
 13
 13
 12
 12
 11
 11
 10
 10
 9
 9
 8
 8
 7
 7
 2
 2
 1
 1
 0
 0
 1
SCANTYPE
PUSHW_1
 511
SCANCTRL
RCVT
ROUND[Grey]
WCVTP
RCVT
ROUND[Grey]
WCVTP
RCVT
ROUND[Grey]
WCVTP
RCVT
ROUND[Grey]
WCVTP
RCVT
ROUND[Grey]
WCVTP
RCVT
ROUND[Grey]
WCVTP
RCVT
ROUND[Grey]
WCVTP
RCVT
ROUND[Grey]
WCVTP
RCVT
ROUND[Grey]
WCVTP
RCVT
ROUND[Grey]
WCVTP
PUSHB_4
 4
 3
 70
 0
CALL
PUSHB_4
 6
 5
 70
 0
CALL
PUSHB_2
 3
 3
RCVT
ROUND[Grey]
WCVTP
PUSHB_2
 5
 5
RCVT
ROUND[Grey]
WCVTP
EndTTInstrs
TtTable: fpgm
NPUSHB
 1
 0
FDEF
SROUND
RCVT
DUP
PUSHB_1
 3
CINDEX
RCVT
SWAP
SUB
ROUND[Grey]
RTG
SWAP

StartChar: uniE018
Encoding: 57368 57368 4
Width: 768
Flags: W
LayerCount: 2
Fore
SplineSet
200 -452 m 2,0,1
 200 -537 200 -537 145 -582 c 0,2,3
 104 -615 104 -615 11 -638 c 1,4,5
 57 -436 57 -436 57 -224 c 2,6,-1
 57 1048 l 2,7,8
 57 1116 57 1116 0 1160 c 1,9,10
 46 1213 46 1213 129 1313 c 1,11,12
 183 1270 183 1270 200 1130 c 1,13,-1
 200 511 l 1,14,15
 275 587 275 587 331 618 c 0,16,17
 402 656 402 656 495 656 c 0,18,19
 580 656 580 656 652 586.5 c 128,-1,20
 724 517 724 517 724 432 c 0,21,22
 724 320 724 320 607 164 c 0,23,24
 484 0 484 0 376 0 c 0,25,26
 333 0 333 0 286 82 c 1,27,-1
 384 210 l 1,28,29
 444 160 444 160 490 160 c 0,30,31
 571 160 571 160 571 270 c 0,32,33
 571 354 571 354 516 426 c 0,34,35
 457 505 457 505 376 505 c 0,36,37
 300 505 300 505 200 412 c 1,38,-1
 200 -452 l 2,0,1
EndSplineSet
Validated: 1
EndChar

StartChar: uniEC02
Encoding: 60418 60418 5
Width: 0
Flags: W
LayerCount: 2
Fore
SplineSet
-1071 -41 m 1,0,-1
 -117 -41 l 1,1,-1
 -220 -174 l 1,2,-1
 -1173 -174 l 1,3,-1
 -1071 -41 l 1,0,-1
EndSplineSet
Validated: 1
EndChar

StartChar: uniEC43
Encoding: 60483 60483 6
Width: 0
Flags: W
LayerCount: 2
Fore
SplineSet
-699 1115 m 1,0,-1
 -592 1222 l 1,1,-1
 -513 1143 l 1,2,-1
 -620 1036 l 1,3,-1
 -699 1115 l 1,0,-1
-559 944 m 1,4,-1
 -452 1051 l 1,5,-1
 -373 972 l 1,6,-1
 -480 865 l 1,7,-1
 -559 944 l 1,4,-1
-852 941 m 1,8,-1
 -745 1048 l 1,9,-1
 -666 969 l 1,10,-1
 -773 862 l 1,11,-1
 -852 941 l 1,8,-1
EndSplineSet
Validated: 1
EndChar

StartChar: uniEC53
Encoding: 60499 60499 7
Width: 0
Flags: W
LayerCount: 2
Fore
SplineSet
-234 1280 m 1,0,-1
 -708 726 l 1,1,-1
 -269 1330 l 1,2,-1
 -234 1280 l 1,0,-1
EndSplineSet
Validated: 1
EndChar

StartChar: uniEC63
Encoding: 60515 60515 8
Width: 0
Flags: W
LayerCount: 2
Fore
SplineSet
-699 941 m 1,0,-1
 -592 1048 l 1,1,-1
 -513 969 l 1,2,-1
 -620 862 l 1,3,-1
 -699 941 l 1,0,-1
EndSplineSet
Validated: 1
EndChar

StartChar: uniEC83
Encoding: 60547 60547 9
Width: 0
Flags: W
LayerCount: 2
Fore
SplineSet
-597 1053 m 1,0,1
 -428 1326 -428 1326 -321 1326 c 0,2,3
 -292 1326 -292 1326 -266 1307 c 0,4,5
 -224 1276 -224 1276 -224 1227 c 0,6,7
 -224 1136 -224 1136 -364 983 c 0,8,9
 -476 860 -476 860 -658 719 c 1,10,11
 -474 890 -474 890 -403 1020 c 0,12,13
 -382 1058 -382 1058 -382 1085 c 256,14,15
 -382 1112 -382 1112 -401 1131 c 128,-1,16
 -420 1150 -420 1150 -447 1150 c 0,17,18
 -509 1150 -509 1150 -597 1053 c 1,0,1
EndSplineSet
Validated: 1
EndChar

StartChar: uniEC01
Encoding: 60417 60417 10
Width: 0
Flags: W
LayerCount: 2
Fore
SplineSet
-600 -41 m 1,0,-1
 -117 -41 l 1,1,-1
 -220 -174 l 1,2,-1
 -702 -174 l 1,3,-1
 -600 -41 l 1,0,-1
EndSplineSet
Validated: 1
EndChar

StartChar: uni6028
Encoding: 24616 24616 11
Width: 0
Flags: W
LayerCount: 2
Fore
SplineSet
-799 -330 m 1,0,-1
 -692 -223 l 1,1,-1
 -613 -302 l 1,2,-1
 -720 -409 l 1,3,-1
 -799 -330 l 1,0,-1
EndSplineSet
Validated: 1
EndChar

StartChar: uni6029
Encoding: 24617 24617 12
Width: 0
Flags: W
LayerCount: 2
Fore
SplineSet
-164 1331 m 1,0,1
 -270 1135 -270 1135 -527 1135 c 0,2,3
 -602 1135 -602 1135 -749 1163 c 128,-1,4
 -896 1191 -896 1191 -971 1191 c 0,5,6
 -1095 1191 -1095 1191 -1153 1137 c 1,7,8
 -1066 1323 -1066 1323 -784 1323 c 0,9,10
 -723 1323 -723 1323 -603.5 1297.5 c 128,-1,11
 -484 1272 -484 1272 -423 1272 c 0,12,13
 -307 1272 -307 1272 -164 1331 c 1,0,1
EndSplineSet
Validated: 1
EndChar

StartChar: uni602A
Encoding: 24618 24618 13
Width: 768
Flags: W
LayerCount: 2
Fore
SplineSet
506 233 m 0,0,1
 506 275 506 275 469.5 323.5 c 128,-1,2
 433 372 433 372 392 374 c 1,3,4
 512 533 512 533 530 533 c 0,5,6
 576 533 576 533 610 486 c 0,7,8
 640 443 640 443 640 395 c 0,9,10
 640 286 640 286 585 199 c 0,11,12
 577 186 577 186 457 39 c 0,13,14
 425 0 425 0 311 0 c 0,15,16
 165 0 165 0 83 102 c 0,17,18
 6 197 6 197 6 347 c 0,19,20
 6 590 6 590 185 899 c 0,21,22
 362 1205 362 1205 573 1331 c 1,23,24
 412 1209 412 1209 280 950.5 c 128,-1,25
 148 692 148 692 148 493 c 0,26,27
 148 378 148 378 208 282 c 0,28,29
 277 172 277 172 387 172 c 0,30,31
 419 172 419 172 458 188 c 0,32,33
 506 207 506 207 506 233 c 0,0,1
EndSplineSet
Validated: 1
EndChar

StartChar: uniEBD8
Encoding: 60376 60376 14
Width: 410
Flags: W
LayerCount: 2
Fore
SplineSet
354 1 m 1,0,1
 310 -94 310 -94 264 -179 c 0,2,3
 180 -333 180 -333 76 -333 c 0,4,5
 54 -333 54 -333 38.5 -310 c 128,-1,6
 23 -287 23 -287 23 -264 c 0,7,8
 23 -232 23 -232 92 -112 c 1,9,10
 153 -178 153 -178 171 -178 c 0,11,12
 232 -178 232 -178 232 -149 c 0,13,14
 232 -50 232 -50 159 -19 c 0,15,16
 115 0 115 0 0 0 c 2,17,-1
 -372 0 l 1,18,-1
 -158 190 l 1,19,-1
 72 190 l 2,20,21
 173 190 173 190 249 145 c 0,22,23
 337 94 337 94 354 1 c 1,0,1
EndSplineSet
Validated: 1
EndChar

StartChar: uniE027
Encoding: 57383 57383 15
Width: 768
Flags: W
LayerCount: 2
Fore
SplineSet
497 281 m 0,0,1
 497 371 497 371 427.5 437.5 c 128,-1,2
 358 504 358 504 268 504 c 0,3,4
 241 504 241 504 205 486 c 0,5,6
 163 466 163 466 163 442 c 0,7,8
 163 401 163 401 199 354 c 0,9,10
 238 304 238 304 277 302 c 1,11,12
 158 142 158 142 140 142 c 0,13,14
 94 142 94 142 61 190 c 0,15,16
 30 233 30 233 30 281 c 0,17,18
 30 411 30 411 93 491 c 0,19,20
 126 531 126 531 213 637 c 0,21,22
 246 678 246 678 344 678 c 0,23,24
 473 678 473 678 556.5 603 c 128,-1,25
 640 528 640 528 640 400 c 0,26,27
 640 353 640 353 522 185 c 1,28,29
 661 158 661 158 661 -7 c 0,30,31
 661 -217 661 -217 520 -393 c 0,32,33
 370 -580 370 -580 165 -580 c 0,34,35
 136 -580 136 -580 95 -552 c 0,36,37
 51 -523 51 -523 51 -495 c 1,38,-1
 189 -380 l 1,39,40
 241 -438 241 -438 294 -438 c 0,41,42
 386 -438 386 -438 445 -352 c 0,43,44
 497 -275 497 -275 497 -179 c 0,45,46
 497 -85 497 -85 443 -30 c 0,47,48
 394 20 394 20 310 20 c 0,49,50
 303 20 303 20 295 20 c 1,51,52
 497 194 497 194 497 281 c 0,0,1
EndSplineSet
Validated: 1
EndChar

StartChar: colon
Encoding: 58 58 16

Width: 410
Flags: W
LayerCount: 2
Fore
SplineSet
61 491 m 5,0,-1
 168 598 l 5,1,-1
 247 519 l 5,2,-1
 140 412 l 5,3,-1
 61 491 l 5,0,-1
61 150 m 5,4,-1
 168 257 l 5,5,-1
 247 178 l 5,6,-1
 140 71 l 5,7,-1
 61 150 l 5,4,-1
EndSplineSet
Validated: 1
EndChar

StartChar: uniE02B
Encoding: 57387 57387 17
Width: 720
Flags: W
LayerCount: 2
Fore
SplineSet
249 0 m 0,0,1
 168 0 168 0 84 79 c 128,-1,2
 0 158 0 158 0 238 c 0,3,4
 0 392 0 392 118 524 c 0,5,6
 240 659 240 659 392 659 c 0,7,8
 501 659 501 659 595 589 c 0,9,10
 696 513 696 513 696 407 c 0,11,12
 696 346 696 346 632 240 c 0,13,14
 544 95 544 95 484 53 c 0,15,16
 408 0 408 0 249 0 c 0,0,1
554 320 m 0,17,18
 554 392 554 392 443 440 c 0,19,20
 353 478 353 478 268 478 c 0,21,22
 205 478 205 478 185 473 c 0,23,24
 154 464 154 464 115 428 c 1,25,26
 115 334 115 334 195 265 c 0,27,28
 271 200 271 200 367 200 c 0,29,30
 427 200 427 200 485 230 c 0,31,32
 554 266 554 266 554 320 c 0,17,18
EndSplineSet
Validated: 1
EndChar

StartChar: uni602F
Encoding: 24623 24623 18
Width: 0
Flags: W
LayerCount: 2
Fore
SplineSet
-102 -522 m 1,0,1
 -224 -718 -224 -718 -342 -718 c 0,2,3
 -388 -718 -388 -718 -477 -690 c 128,-1,4
 -566 -662 -566 -662 -603 -662 c 0,5,6
 -665 -662 -665 -662 -723 -717 c 1,7,8
 -609 -531 -609 -531 -477 -531 c 0,9,10
 -439 -531 -439 -531 -366 -553 c 128,-1,11
 -293 -575 -293 -575 -255 -575 c 0,12,13
 -185 -575 -185 -575 -102 -522 c 1,0,1
EndSplineSet
Validated: 1
EndChar

StartChar: uni6030
Encoding: 24624 24624 19
Width: 0
Flags: W
LayerCount: 2
Fore
SplineSet
-102 1331 m 1,0,1
 -224 1135 -224 1135 -342 1135 c 0,2,3
 -388 1135 -388 1135 -477 1163 c 128,-1,4
 -566 1191 -566 1191 -603 1191 c 0,5,6
 -665 1191 -665 1191 -723 1137 c 1,7,8
 -609 1323 -609 1323 -477 1323 c 0,9,10
 -439 1323 -439 1323 -366 1300.5 c 128,-1,11
 -293 1278 -293 1278 -255 1278 c 0,12,13
 -185 1278 -185 1278 -102 1331 c 1,0,1
EndSplineSet
Validated: 1
EndChar

StartChar: uniE000
Encoding: 57344 57344 20
Width: 768
Flags: W
LayerCount: 2
Fore
SplineSet
200 511 m 1,0,1
 275 587 275 587 331 618 c 0,2,3
 402 656 402 656 495 656 c 0,4,5
 580 656 580 656 652 586.5 c 128,-1,6
 724 517 724 517 724 432 c 0,7,8
 724 320 724 320 607 164 c 0,9,10
 484 0 484 0 376 0 c 0,11,12
 333 0 333 0 286 82 c 1,13,-1
 384 210 l 1,14,15
 444 160 444 160 490 160 c 0,16,17
 571 160 571 160 571 270 c 0,18,19
 571 354 571 354 516 426 c 0,20,21
 457 505 457 505 376 505 c 0,22,23
 300 505 300 505 200 412 c 1,24,-1
 200 -452 l 2,25,26
 200 -537 200 -537 145 -582 c 0,27,28
 104 -615 104 -615 11 -638 c 1,29,30
 57 -436 57 -436 57 -224 c 2,31,-1
 57 410 l 2,32,33
 57 478 57 478 0 522 c 1,34,35
 46 575 46 575 129 675 c 1,36,37
 183 632 183 632 200 511 c 1,0,1
EndSplineSet
Validated: 1
EndChar

StartChar: uniE004
Encoding: 57348 57348 21
Width: 1260
Flags: W
LayerCount: 2
Fore
SplineSet
200 -452 m 2,0,1
 200 -537 200 -537 145 -582 c 0,2,3
 104 -615 104 -615 11 -638 c 1,4,5
 57 -436 57 -436 57 -224 c 2,6,-1
 57 410 l 2,7,8
 57 478 57 478 0 522 c 1,9,10
 46 575 46 575 129 675 c 1,11,12
 183 632 183 632 200 511 c 1,13,14
 275 587 275 587 331 618 c 0,15,16
 402 656 402 656 495 656 c 0,17,18
 624 656 624 656 696 526 c 1,19,20
 770 597 770 597 822 623 c 0,21,22
 887 656 887 656 977 656 c 0,23,24
 1063 656 1063 656 1134.5 587 c 128,-1,25
 1206 518 1206 518 1206 432 c 0,26,27
 1206 321 1206 321 1089 164 c 0,28,29
 967 0 967 0 858 0 c 0,30,31
 815 0 815 0 768 82 c 1,32,-1
 866 210 l 1,33,34
 926 160 926 160 973 160 c 0,35,36
 1054 160 1054 160 1054 270 c 0,37,38
 1054 353 1054 353 998 426 c 0,39,40
 938 505 938 505 864 505 c 0,41,42
 801 505 801 505 723 447 c 1,43,44
 724 437 724 437 724 427 c 0,45,46
 724 320 724 320 607 164 c 0,47,48
 484 0 484 0 376 0 c 0,49,50
 333 0 333 0 286 82 c 1,51,-1
 384 210 l 1,52,53
 444 160 444 160 490 160 c 0,54,55
 571 160 571 160 571 270 c 0,56,57
 571 353 571 353 516 426 c 0,58,59
 456 505 456 505 381 505 c 0,60,61
 300 505 300 505 200 412 c 1,62,-1
 200 -452 l 2,0,1
EndSplineSet
Validated: 1
EndChar

StartChar: uniE008
Encoding: 57352 57352 22
Width: 768
Flags: W
LayerCount: 2
Fore
SplineSet
200 186 m 2,0,1
 200 102 200 102 144 56 c 0,2,3
 103 23 103 23 11 0 c 1,4,5
 57 202 57 202 57 414 c 2,6,-1
 57 1048 l 2,7,8
 57 1116 57 1116 0 1160 c 1,9,10
 46 1213 46 1213 129 1313 c 1,11,12
 183 1270 183 1270 200 1130 c 1,13,-1
 200 511 l 1,14,15
 275 587 275 587 331 618 c 0,16,17
 402 656 402 656 495 656 c 0,18,19
 580 656 580 656 652 586.5 c 128,-1,20
 724 517 724 517 724 432 c 0,21,22
 724 320 724 320 607 164 c 0,23,24
 484 0 484 0 376 0 c 0,25,26
 333 0 333 0 286 82 c 1,27,-1
 384 210 l 1,28,29
 444 160 444 160 490 160 c 0,30,31
 571 160 571 160 571 270 c 0,32,33
 571 354 571 354 516 426 c 0,34,35
 457 505 457 505 376 505 c 0,36,37
 300 505 300 505 200 412 c 1,38,-1
 200 186 l 2,0,1
EndSplineSet
Validated: 1
EndChar

StartChar: uniE00C
Encoding: 57356 57356 23
Width: 1260
Flags: W
LayerCount: 2
Fore
SplineSet
200 511 m 1,0,1
 275 587 275 587 331 618 c 0,2,3
 402 656 402 656 495 656 c 0,4,5
 624 656 624 656 696 526 c 1,6,7
 770 597 770 597 822 623 c 0,8,9
 887 656 887 656 977 656 c 0,10,11
 1063 656 1063 656 1134.5 587 c 128,-1,12
 1206 518 1206 518 1206 432 c 0,13,14
 1206 321 1206 321 1089 164 c 0,15,16
 967 0 967 0 858 0 c 0,17,18
 815 0 815 0 768 82 c 1,19,-1
 866 210 l 1,20,21
 926 160 926 160 973 160 c 0,22,23
 1054 160 1054 160 1054 270 c 0,24,25
 1054 353 1054 353 999 426 c 0,26,27
 939 505 939 505 858 505 c 0,28,29
 801 505 801 505 723 447 c 1,30,31
 724 437 724 437 724 427 c 0,32,33
 724 320 724 320 607 164 c 0,34,35
 484 0 484 0 376 0 c 0,36,37
 333 0 333 0 286 82 c 1,38,-1
 384 210 l 1,39,40
 444 160 444 160 490 160 c 0,41,42
 571 160 571 160 571 270 c 0,43,44
 571 354 571 354 516 426 c 0,45,46
 457 505 457 505 376 505 c 0,47,48
 300 505 300 505 200 412 c 1,49,-1
 200 186 l 2,50,51
 200 102 200 102 144 56 c 0,52,53
 103 23 103 23 11 0 c 1,54,55
 57 202 57 202 57 414 c 2,56,-1
 57 1048 l 2,57,58
 57 1116 57 1116 0 1160 c 1,59,60
 46 1213 46 1213 129 1313 c 1,61,62
 183 1270 183 1270 200 1130 c 1,63,-1
 200 511 l 1,0,1
EndSplineSet
Validated: 1
EndChar

StartChar: uniE010
Encoding: 57360 57360 24
Width: 1260
Flags: W
LayerCount: 2
Fore
SplineSet
200 511 m 1,0,1
 275 587 275 587 331 618 c 0,2,3
 402 656 402 656 495 656 c 0,4,5
 624 656 624 656 696 526 c 1,6,7
 770 597 770 597 822 623 c 0,8,9
 887 656 887 656 977 656 c 0,10,11
 1063 656 1063 656 1134.5 587 c 128,-1,12
 1206 518 1206 518 1206 432 c 0,13,14
 1206 321 1206 321 1089 164 c 0,15,16
 967 0 967 0 858 0 c 0,17,18
 815 0 815 0 768 82 c 1,19,-1
 866 210 l 1,20,21
 926 160 926 160 973 160 c 0,22,23
 1054 160 1054 160 1054 270 c 0,24,25
 1054 353 1054 353 999 426 c 0,26,27
 939 505 939 505 858 505 c 0,28,29
 801 505 801 505 723 447 c 1,30,31
 724 437 724 437 724 427 c 0,32,33
 724 320 724 320 607 164 c 0,34,35
 484 0 484 0 376 0 c 0,36,37
 333 0 333 0 286 82 c 1,38,-1
 384 210 l 1,39,40
 444 160 444 160 490 160 c 0,41,42
 571 160 571 160 571 270 c 0,43,44
 571 354 571 354 516 426 c 0,45,46
 457 505 457 505 376 505 c 0,47,48
 300 505 300 505 200 412 c 1,49,-1
 200 186 l 2,50,51
 200 102 200 102 144 56 c 0,52,53
 103 23 103 23 11 0 c 1,54,55
 57 195 57 195 57 332 c 2,56,-1
 57 410 l 2,57,58
 57 478 57 478 0 522 c 1,59,60
 46 575 46 575 129 675 c 1,61,62
 183 632 183 632 200 511 c 1,0,1
EndSplineSet
Validated: 1
EndChar

StartChar: uniE014
Encoding: 57364 57364 25
Width: 768
Flags: W
LayerCount: 2
Fore
SplineSet
200 186 m 2,0,1
 200 102 200 102 144 56 c 0,2,3
 103 23 103 23 11 0 c 1,4,5
 57 195 57 195 57 332 c 2,6,-1
 57 410 l 2,7,8
 57 478 57 478 0 522 c 1,9,10
 46 575 46 575 129 675 c 1,11,12
 183 632 183 632 200 511 c 1,13,14
 275 587 275 587 331 618 c 0,15,16
 402 656 402 656 495 656 c 0,17,18
 580 656 580 656 652 586.5 c 128,-1,19
 724 517 724 517 724 432 c 0,20,21
 724 320 724 320 607 164 c 0,22,23
 484 0 484 0 376 0 c 0,24,25
 333 0 333 0 286 82 c 1,26,-1
 384 210 l 1,27,28
 444 160 444 160 490 160 c 0,29,30
 571 160 571 160 571 270 c 0,31,32
 571 354 571 354 516 426 c 0,33,34
 457 505 457 505 376 505 c 0,35,36
 300 505 300 505 200 412 c 1,37,-1
 200 186 l 2,0,1
EndSplineSet
Validated: 1
EndChar

StartChar: uniE020
Encoding: 57376 57376 26
Width: 830
Flags: W
LayerCount: 2
Fore
SplineSet
705 334 m 0,0,1
 684 300 684 300 467 31 c 0,2,3
 294 -184 294 -184 275 -268 c 0,4,5
 271 -284 271 -284 271 -300 c 0,6,7
 271 -356 271 -356 309 -396.5 c 128,-1,8
 347 -437 347 -437 404 -437 c 0,9,10
 431 -437 431 -437 491 -410 c 1,11,12
 461 -462 461 -462 413 -537 c 1,13,14
 355 -608 355 -608 304 -608 c 0,15,16
 231 -608 231 -608 186.5 -558 c 128,-1,17
 142 -508 142 -508 142 -435 c 0,18,19
 142 -345 142 -345 382 5 c 1,20,21
 382 84 382 84 285 269 c 0,22,23
 182 464 182 464 118 464 c 0,24,25
 100 464 100 464 30 417 c 1,26,27
 135 645 135 645 209 645 c 0,28,29
 319 645 319 645 531 195 c 1,30,31
 609 296 609 296 611 299 c 0,32,33
 654 365 654 365 654 419 c 0,34,35
 654 434 654 434 651 448 c 1,36,37
 629 472 629 472 592 472 c 0,38,39
 537 472 537 472 449 416 c 1,40,41
 511 500 511 500 631 627 c 1,42,43
 664 651 664 651 696 651 c 0,44,45
 738 651 738 651 770 617.5 c 128,-1,46
 802 584 802 584 802 542 c 0,47,48
 802 488 802 488 705 334 c 0,0,1
EndSplineSet
Validated: 1
EndChar

StartChar: uniE024
Encoding: 57380 57380 27
Width: 700
Flags: W
LayerCount: 2
Fore
SplineSet
577 184 m 0,0,1
 543 144 543 144 457 39 c 0,2,3
 425 0 425 0 311 0 c 0,4,5
 196 0 196 0 116 68 c 0,6,7
 30 140 30 140 30 253 c 0,8,9
 30 367 30 367 131 514 c 1,10,11
 219 629 219 629 307 745 c 0,12,13
 417 898 417 898 417 1001 c 0,14,15
 417 1014 417 1014 410 1039 c 128,-1,16
 403 1064 403 1064 403 1076 c 0,17,18
 403 1114 403 1114 516 1219 c 1,19,20
 592 1201 592 1201 592 1124 c 0,21,22
 592 1052 592 1052 382.5 763.5 c 128,-1,23
 173 475 173 475 173 395 c 0,24,25
 173 306 173 306 242.5 238.5 c 128,-1,26
 312 171 312 171 401 171 c 0,27,28
 427 171 427 171 464 190 c 0,29,30
 506 211 506 211 506 233 c 0,31,32
 506 276 506 276 470 324 c 128,-1,33
 434 372 434 372 392 374 c 1,34,35
 512 533 512 533 530 533 c 0,36,37
 582 533 582 533 614 477 c 0,38,39
 641 430 641 430 641 373 c 0,40,41
 641 270 641 270 577 184 c 0,0,1
EndSplineSet
Validated: 1
EndChar

StartChar: uniE028
Encoding: 57384 57384 28
Width: 878
Flags: W
LayerCount: 2
Fore
SplineSet
145 190 m 2,0,-1
 358 642 l 1,1,2
 232 1000 232 1000 218 1000 c 0,3,4
 198 1000 198 1000 116 943 c 1,5,6
 206 1054 206 1054 308 1171 c 0,7,8
 313 1173 313 1173 318 1173 c 0,9,10
 368 1173 368 1173 385 1128 c 2,11,-1
 744 190 l 2,12,13
 746 187 746 187 750 187 c 0,14,15
 770 187 770 187 832 233 c 1,16,17
 772 147 772 147 737 102 c 0,18,19
 661 2 661 2 634 -6 c 1,20,21
 587 -6 587 -6 577 23 c 2,22,-1
 384 566 l 1,23,-1
 149 40 l 2,24,25
 128 -6 128 -6 88 -6 c 0,26,27
 70 -6 70 -6 0 39 c 1,28,-1
 89 248 l 1,29,30
 130 189 130 189 142 189 c 0,31,32
 144 189 144 189 145 190 c 2,0,-1
EndSplineSet
Validated: 1
EndChar

StartChar: uniEC12
Encoding: 60434 60434 29
Width: 0
Flags: W
LayerCount: 2
Fore
SplineSet
-164 -20 m 1,0,1
 -270 -217 -270 -217 -527 -217 c 0,2,3
 -602 -217 -602 -217 -749 -189 c 128,-1,4
 -896 -161 -896 -161 -971 -161 c 0,5,6
 -1095 -161 -1095 -161 -1153 -215 c 1,7,8
 -1066 -29 -1066 -29 -784 -29 c 0,9,10
 -723 -29 -723 -29 -603.5 -54.5 c 128,-1,11
 -484 -80 -484 -80 -423 -80 c 0,12,13
 -307 -80 -307 -80 -164 -20 c 1,0,1
EndSplineSet
Validated: 1
EndChar

StartChar: uniEC11
Encoding: 60433 60433 30
Width: 0
Flags: W
LayerCount: 2
Fore
SplineSet
-102 -20 m 1,0,1
 -224 -217 -224 -217 -342 -217 c 0,2,3
 -388 -217 -388 -217 -477 -189 c 128,-1,4
 -566 -161 -566 -161 -603 -161 c 0,5,6
 -665 -161 -665 -161 -723 -215 c 1,7,8
 -609 -29 -609 -29 -477 -29 c 0,9,10
 -439 -29 -439 -29 -366 -51 c 128,-1,11
 -293 -73 -293 -73 -255 -73 c 0,12,13
 -185 -73 -185 -73 -102 -20 c 1,0,1
EndSplineSet
Validated: 1
EndChar

StartChar: uni603C
Encoding: 24636 24636 31
Width: 768
Flags: W
LayerCount: 2
Fore
SplineSet
478 480 m 1,0,1
 640 415 640 415 640 226 c 0,2,3
 640 128 640 128 529 -26 c 1,4,5
 443 -138 443 -138 357 -251 c 1,6,7
 252 -402 252 -402 252 -498 c 0,8,9
 252 -511 252 -511 259.5 -536.5 c 128,-1,10
 267 -562 267 -562 267 -574 c 0,11,12
 267 -612 267 -612 154 -717 c 1,13,14
 78 -699 78 -699 78 -622 c 0,15,16
 78 -547 78 -547 218 -355 c 0,17,18
 319 -220 319 -220 420 -85 c 1,19,20
 494 30 494 30 494 117 c 0,21,22
 494 198 494 198 428 264 c 128,-1,23
 362 330 362 330 281 330 c 0,24,25
 249 330 249 330 210 315 c 0,26,27
 163 296 163 296 163 269 c 0,28,29
 163 228 163 228 199 181 c 0,30,31
 238 131 238 131 277 128 c 1,32,33
 158 -31 158 -31 140 -31 c 0,34,35
 93 -31 93 -31 60 16 c 0,36,37
 30 58 30 58 30 107 c 0,38,39
 30 216 30 216 85 303 c 0,40,41
 93 316 93 316 213 463 c 0,42,43
 245 502 245 502 359 502 c 0,44,45
 392 502 392 502 423 496 c 1,46,47
 497 610 497 610 497 689 c 256,48,49
 497 768 497 768 428.5 835 c 128,-1,50
 360 902 360 902 281 902 c 0,51,52
 249 902 249 902 210 887 c 0,53,54
 163 868 163 868 163 841 c 0,55,56
 163 800 163 800 199 753 c 0,57,58
 238 703 238 703 277 700 c 1,59,60
 158 541 158 541 140 541 c 0,61,62
 93 541 93 541 60 588 c 0,63,64
 30 630 30 630 30 679 c 0,65,66
 30 788 30 788 85 875 c 0,67,68
 94 890 94 890 213 1035 c 0,69,70
 247 1076 247 1076 330 1076 c 0,71,72
 456 1076 456 1076 542 1015 c 0,73,74
 640 946 640 946 640 825 c 0,75,76
 640 691 640 691 478 480 c 1,0,1
EndSplineSet
Validated: 1
EndChar

StartChar: uni2E31
Encoding: 11825 11825 32
Width: 410
Flags: W
LayerCount: 2
Fore
SplineSet
56 320 m 1,0,-1
 163 427 l 1,1,-1
 242 348 l 1,2,-1
 135 241 l 1,3,-1
 56 320 l 1,0,-1
EndSplineSet
Validated: 1
EndChar

StartChar: uni603E
Encoding: 24638 24638 33
Width: 0
Flags: W
LayerCount: 2
Fore
SplineSet
-310 -472 m 1,0,-1
 -204 -365 l 1,1,-1
 -125 -444 l 1,2,-1
 -231 -550 l 1,3,-1
 -310 -472 l 1,0,-1
-420 -301 m 1,4,-1
 -313 -194 l 1,5,-1
 -234 -273 l 1,6,-1
 -341 -380 l 1,7,-1
 -420 -301 l 1,4,-1
-188 -298 m 1,8,-1
 -81 -191 l 1,9,-1
 -2 -270 l 1,10,-1
 -109 -377 l 1,11,-1
 -188 -298 l 1,8,-1
EndSplineSet
Validated: 1
EndChar

StartChar: uni603F
Encoding: 24639 24639 34
Width: 0
Flags: W
LayerCount: 2
Fore
SplineSet
-164 -522 m 1,0,1
 -270 -718 -270 -718 -527 -718 c 0,2,3
 -602 -718 -602 -718 -749 -690 c 128,-1,4
 -896 -662 -896 -662 -971 -662 c 0,5,6
 -1095 -662 -1095 -662 -1153 -717 c 1,7,8
 -1066 -531 -1066 -531 -784 -531 c 0,9,10
 -723 -531 -723 -531 -603.5 -556 c 128,-1,11
 -484 -581 -484 -581 -423 -581 c 0,12,13
 -307 -581 -307 -581 -164 -522 c 1,0,1
EndSplineSet
Validated: 1
EndChar

StartChar: uniE01C
Encoding: 57372 57372 35
Width: 1260
Flags: W
LayerCount: 2
Fore
SplineSet
57 1048 m 2,0,1
 57 1116 57 1116 0 1160 c 1,2,3
 46 1213 46 1213 129 1313 c 1,4,5
 183 1270 183 1270 200 1130 c 1,6,-1
 200 511 l 1,7,8
 275 587 275 587 331 618 c 0,9,10
 402 656 402 656 495 656 c 0,11,12
 624 656 624 656 696 526 c 1,13,14
 770 597 770 597 822 623 c 0,15,16
 887 656 887 656 977 656 c 0,17,18
 1063 656 1063 656 1134.5 587 c 128,-1,19
 1206 518 1206 518 1206 432 c 0,20,21
 1206 321 1206 321 1089 164 c 0,22,23
 967 0 967 0 858 0 c 0,24,25
 815 0 815 0 768 82 c 1,26,-1
 866 210 l 1,27,28
 926 160 926 160 973 160 c 0,29,30
 1054 160 1054 160 1054 270 c 0,31,32
 1054 353 1054 353 999 426 c 0,33,34
 939 505 939 505 858 505 c 0,35,36
 801 505 801 505 723 447 c 1,37,38
 724 437 724 437 724 427 c 0,39,40
 724 320 724 320 607 164 c 0,41,42
 484 0 484 0 376 0 c 0,43,44
 333 0 333 0 286 82 c 1,45,-1
 384 210 l 1,46,47
 444 160 444 160 490 160 c 0,48,49
 571 160 571 160 571 270 c 0,50,51
 571 354 571 354 516 426 c 0,52,53
 457 505 457 505 376 505 c 0,54,55
 300 505 300 505 200 412 c 1,56,-1
 200 -452 l 2,57,58
 200 -595 200 -595 11 -638 c 1,59,60
 57 -436 57 -436 57 -224 c 2,61,-1
 57 1048 l 2,0,1
EndSplineSet
Validated: 1
EndChar

StartChar: uniE01A
Encoding: 57370 57370 36
Width: 768
Flags: W
LayerCount: 2
Fore
SplineSet
524 1123 m 1,0,1
 589 1197 589 1197 613 1222 c 0,2,3
 664 1274 664 1274 713 1309 c 1,4,5
 667 1107 667 1107 667 895 c 2,6,-1
 667 -373 l 2,7,8
 667 -441 667 -441 703 -486 c 1,9,-1
 574 -638 l 1,10,11
 524 -559 524 -559 524 -475 c 2,12,-1
 524 144 l 1,13,14
 382 0 382 0 229 0 c 0,15,16
 143 0 143 0 71.5 69 c 128,-1,17
 0 138 0 138 0 224 c 0,18,19
 0 338 0 338 116 493 c 0,20,21
 238 656 238 656 348 656 c 0,22,23
 391 656 391 656 438 574 c 1,24,-1
 340 446 l 1,25,26
 280 495 280 495 233 495 c 0,27,28
 152 495 152 495 152 386 c 0,29,30
 152 303 152 303 207 230 c 0,31,32
 267 151 267 151 348 151 c 0,33,34
 421 151 421 151 524 243 c 1,35,-1
 524 1123 l 1,0,1
EndSplineSet
Validated: 1
EndChar

StartChar: uniEC60
Encoding: 60512 60512 37
Width: 0
Flags: W
LayerCount: 2
Fore
SplineSet
-101 969 m 1,0,-1
 -208 862 l 1,1,-1
 -287 941 l 1,2,-1
 -180 1048 l 1,3,-1
 -101 969 l 1,0,-1
EndSplineSet
Validated: 1
EndChar

StartChar: uniEC40
Encoding: 60480 60480 38
Width: 0
Flags: W
LayerCount: 2
Fore
SplineSet
-56 1146 m 1,0,-1
 -162 1039 l 1,1,-1
 -241 1118 l 1,2,-1
 -135 1225 l 1,3,-1
 -56 1146 l 1,0,-1
54 975 m 1,4,-1
 -53 868 l 1,5,-1
 -132 947 l 1,6,-1
 -25 1054 l 1,7,-1
 54 975 l 1,4,-1
-178 972 m 1,8,-1
 -285 865 l 1,9,-1
 -364 944 l 1,10,-1
 -257 1051 l 1,11,-1
 -178 972 l 1,8,-1
EndSplineSet
Validated: 1
EndChar

StartChar: uniEC41
Encoding: 60481 60481 39
Width: 0
Flags: W
LayerCount: 2
Fore
SplineSet
-416 1118 m 1,0,-1
 -309 1225 l 1,1,-1
 -230 1146 l 1,2,-1
 -337 1039 l 1,3,-1
 -416 1118 l 1,0,-1
-307 947 m 1,4,-1
 -200 1054 l 1,5,-1
 -121 975 l 1,6,-1
 -228 868 l 1,7,-1
 -307 947 l 1,4,-1
-559 944 m 1,8,-1
 -452 1051 l 1,9,-1
 -373 972 l 1,10,-1
 -480 865 l 1,11,-1
 -559 944 l 1,8,-1
EndSplineSet
Validated: 1
EndChar

StartChar: uniEC42
Encoding: 60482 60482 40
Width: 0
Flags: W
LayerCount: 2
Fore
SplineSet
-484 1115 m 1,0,-1
 -377 1222 l 1,1,-1
 -298 1143 l 1,2,-1
 -405 1036 l 1,3,-1
 -484 1115 l 1,0,-1
-364 944 m 1,4,-1
 -257 1051 l 1,5,-1
 -178 972 l 1,6,-1
 -285 865 l 1,7,-1
 -364 944 l 1,4,-1
-636 941 m 1,8,-1
 -530 1048 l 1,9,-1
 -451 969 l 1,10,-1
 -557 862 l 1,11,-1
 -636 941 l 1,8,-1
EndSplineSet
Validated: 1
EndChar

StartChar: uniEC51
Encoding: 60497 60497 41
Width: 0
Flags: W
LayerCount: 2
Fore
SplineSet
-19 1174 m 1,0,-1
 -402 746 l 1,1,-1
 -54 1224 l 1,2,-1
 -19 1174 l 1,0,-1
EndSplineSet
Validated: 1
EndChar

StartChar: uniEC61
Encoding: 60513 60513 42
Width: 0
Flags: W
LayerCount: 2
Fore
SplineSet
-440 941 m 1,0,-1
 -333 1048 l 1,1,-1
 -254 969 l 1,2,-1
 -361 862 l 1,3,-1
 -440 941 l 1,0,-1
EndSplineSet
Validated: 1
EndChar

StartChar: uniEC71
Encoding: 60529 60529 43
Width: 0
Flags: W
LayerCount: 2
Fore
SplineSet
-101 985 m 1,0,1
 -92 1006 -92 1006 -96 1035 c 0,2,3
 -103 1086 -103 1086 -140 1086 c 0,4,5
 -219 1086 -219 1086 -402 719 c 1,6,7
 -238 1145 -238 1145 -181 1207 c 0,8,9
 -126 1266 -126 1266 -92 1266 c 0,10,11
 -59 1266 -59 1266 -35 1239 c 128,-1,12
 -11 1212 -11 1212 -11 1179 c 0,13,14
 -11 1100 -11 1100 -101 985 c 1,0,1
EndSplineSet
Validated: 1
EndChar

StartChar: uniE03F
Encoding: 57407 57407 44
Width: 768
Flags: W
LayerCount: 2
Fore
SplineSet
164 443 m 0,0,1
 164 401 164 401 200 354 c 0,2,3
 237 304 237 304 278 302 c 1,4,5
 158 143 158 143 140 143 c 0,6,7
 94 143 94 143 60 190 c 0,8,9
 30 233 30 233 30 281 c 0,10,11
 30 390 30 390 85 477 c 0,12,13
 93 490 93 490 213 637 c 0,14,15
 245 676 245 676 359 676 c 0,16,17
 505 676 505 676 587 574 c 0,18,19
 664 479 664 479 664 329 c 0,20,21
 664 86 664 86 486 -221.5 c 128,-1,22
 308 -529 308 -529 97 -655 c 1,23,24
 258 -533 258 -533 390 -274.5 c 128,-1,25
 522 -16 522 -16 522 183 c 0,26,27
 522 298 522 298 462 394 c 0,28,29
 393 504 393 504 283 504 c 0,30,31
 251 504 251 504 212 488 c 0,32,33
 164 469 164 469 164 443 c 0,0,1
EndSplineSet
Validated: 1
EndChar

StartChar: uniEC81
Encoding: 60545 60545 45
Width: 0
Flags: W
LayerCount: 2
Fore
SplineSet
-349 1067 m 1,0,1
 -220 1281 -220 1281 -127 1281 c 0,2,3
 -94 1281 -94 1281 -71.5 1258 c 128,-1,4
 -49 1235 -49 1235 -49 1201 c 0,5,6
 -49 1062 -49 1062 -392 719 c 1,7,8
 -185 973 -185 973 -185 1070 c 0,9,10
 -185 1122 -185 1122 -244 1122 c 0,11,12
 -309 1122 -309 1122 -349 1067 c 1,0,1
EndSplineSet
Validated: 1
EndChar

StartChar: uni604B
Encoding: 24651 24651 46
Width: 768
Flags: W
LayerCount: 2
Fore
SplineSet
30 655 m 0,0,1
 30 887 30 887 556 1331 c 1,2,3
 209 976 209 976 209 748 c 0,4,5
 209 662 209 662 364 655 c 1,6,7
 173 482 173 482 173 395 c 0,8,9
 173 306 173 306 242.5 238.5 c 128,-1,10
 312 171 312 171 401 171 c 0,11,12
 427 171 427 171 464 190 c 0,13,14
 506 211 506 211 506 233 c 0,15,16
 506 275 506 275 469.5 323.5 c 128,-1,17
 433 372 433 372 392 374 c 1,18,19
 512 533 512 533 530 533 c 0,20,21
 576 533 576 533 610 486 c 0,22,23
 640 443 640 443 640 395 c 0,24,25
 640 286 640 286 585 199 c 0,26,27
 577 186 577 186 457 39 c 0,28,29
 425 0 425 0 311 0 c 0,30,31
 185 0 185 0 107.5 75 c 128,-1,32
 30 150 30 150 30 276 c 0,33,34
 30 323 30 323 148 491 c 1,35,36
 30 547 30 547 30 655 c 0,0,1
EndSplineSet
Validated: 1
EndChar

StartChar: uniECBF
Encoding: 60607 60607 47
Width: 0
Flags: W
LayerCount: 2
Fore
SplineSet
-737 -28 m 1,0,-1
 -631 79 l 1,1,-1
 -552 0 l 1,2,-1
 -658 -107 l 1,3,-1
 -737 -28 l 1,0,-1
EndSplineSet
Validated: 1
EndChar

StartChar: uniEC80
Encoding: 60544 60544 48
Width: 0
Flags: W
LayerCount: 2
Fore
SplineSet
-193 1106 m 1,0,1
 -132 1202 -132 1202 -83 1265 c 0,2,3
 -50 1307 -50 1307 5 1307 c 0,4,5
 83 1307 83 1307 83 1222 c 0,6,7
 83 1070 83 1070 -184 719 c 1,8,9
 -13 1047 -13 1047 -13 1107 c 0,10,11
 -13 1155 -13 1155 -62 1155 c 0,12,13
 -129 1155 -129 1155 -193 1106 c 1,0,1
EndSplineSet
Validated: 1
EndChar

StartChar: uniEC70
Encoding: 60528 60528 49
Width: 0
Flags: W
LayerCount: 2
Fore
SplineSet
43 978 m 1,0,1
 56 1016 56 1016 56 1051 c 0,2,3
 56 1121 56 1121 1 1121 c 0,4,5
 -65 1121 -65 1121 -184 719 c 1,6,7
 -80 1288 -80 1288 42 1288 c 0,8,9
 116 1288 116 1288 116 1207 c 0,10,11
 116 1114 116 1114 43 978 c 1,0,1
EndSplineSet
Validated: 1
EndChar

StartChar: uni604F
Encoding: 24655 24655 50
Width: 0
Flags: W
LayerCount: 2
Fore
SplineSet
-553 -330 m 1,0,-1
 -446 -223 l 1,1,-1
 -367 -302 l 1,2,-1
 -474 -409 l 1,3,-1
 -553 -330 l 1,0,-1
EndSplineSet
Validated: 1
EndChar

StartChar: uniEC32
Encoding: 60466 60466 51
Width: 0
Flags: W
LayerCount: 2
Fore
SplineSet
-164 901 m 1,0,1
 -270 705 -270 705 -527 705 c 0,2,3
 -602 705 -602 705 -749 733 c 128,-1,4
 -896 761 -896 761 -971 761 c 0,5,6
 -1095 761 -1095 761 -1153 706 c 1,7,8
 -1066 893 -1066 893 -784 893 c 0,9,10
 -723 893 -723 893 -603.5 867.5 c 128,-1,11
 -484 842 -484 842 -423 842 c 0,12,13
 -307 842 -307 842 -164 901 c 1,0,1
EndSplineSet
Validated: 1
EndChar

StartChar: uniE019
Encoding: 57369 57369 52
Width: 768
Flags: W
LayerCount: 2
Fore
SplineSet
200 412 m 1,0,-1
 200 190 l 1,1,-1
 555 190 l 1,2,3
 571 218 571 218 571 270 c 0,4,5
 571 354 571 354 516 426 c 0,6,7
 457 505 457 505 376 505 c 0,8,9
 300 505 300 505 200 412 c 1,0,-1
200 -452 m 2,10,11
 200 -595 200 -595 11 -638 c 1,12,13
 57 -436 57 -436 57 -224 c 2,14,-1
 57 1048 l 2,15,16
 57 1116 57 1116 0 1160 c 1,17,18
 46 1213 46 1213 129 1313 c 1,19,20
 183 1270 183 1270 200 1130 c 1,21,-1
 200 511 l 1,22,23
 275 587 275 587 331 618 c 0,24,25
 402 656 402 656 495 656 c 0,26,27
 580 656 580 656 652 586.5 c 128,-1,28
 724 517 724 517 724 432 c 0,29,30
 724 329 724 329 631 190 c 1,31,32
 662 191 662 191 723 215 c 1,33,34
 723 213 723 213 723 211 c 128,-1,35
 723 209 723 209 723 208 c 0,36,37
 723 206 723 206 723 205 c 0,38,39
 723 203 723 203 723 202 c 0,40,41
 723 200 723 200 723 199 c 128,-1,42
 723 198 723 198 723 197 c 128,-1,43
 723 196 723 196 723 195 c 128,-1,44
 723.113475177 194.120567376 723.113475177 194.120567376 723.113475177 193.134097882 c 0,45,46
 723.113475177 159.34751773 723.113475177 159.34751773 590 0 c 1,47,-1
 200 0 l 1,48,-1
 200 -452 l 2,10,11
EndSplineSet
Validated: 1
EndChar

StartChar: uniEC52
Encoding: 60498 60498 53
Width: 0
Flags: W
LayerCount: 2
Fore
SplineSet
-214 1154 m 1,0,-1
 -555 746 l 1,1,-1
 -249 1204 l 1,2,-1
 -214 1154 l 1,0,-1
EndSplineSet
Validated: 1
EndChar

StartChar: uniE01E
Encoding: 57374 57374 54
Width: 1260
Flags: W
LayerCount: 2
Fore
SplineSet
1154 895 m 2,0,-1
 1154 -373 l 2,1,2
 1154 -441 1154 -441 1191 -486 c 1,3,-1
 1061 -638 l 1,4,5
 1012 -559 1012 -559 1012 -475 c 2,6,-1
 1011 144 l 1,7,8
 871 0 871 0 716 0 c 0,9,10
 585 0 585 0 513 133 c 1,11,12
 440 62 440 62 386 34 c 0,13,14
 319 0 319 0 229 0 c 0,15,16
 143 0 143 0 71.5 69 c 128,-1,17
 0 138 0 138 0 224 c 0,18,19
 0 341 0 341 115 494 c 0,20,21
 236 656 236 656 348 656 c 0,22,23
 391 656 391 656 438 574 c 1,24,-1
 340 446 l 1,25,26
 280 495 280 495 233 495 c 0,27,28
 152 495 152 495 152 386 c 0,29,30
 152 303 152 303 207 230 c 0,31,32
 267 151 267 151 348 151 c 0,33,34
 406 151 406 151 488 214 c 1,35,-1
 488 224 l 2,36,37
 488 341 488 341 603 494 c 0,38,39
 723 656 723 656 835 656 c 0,40,41
 878 656 878 656 926 574 c 1,42,-1
 827 446 l 1,43,44
 768 495 768 495 721 495 c 0,45,46
 640 495 640 495 640 386 c 0,47,48
 640 302 640 302 695 230 c 0,49,50
 754 151 754 151 835 151 c 256,51,52
 916 151 916 151 1012 243 c 1,53,-1
 1012 1123 l 1,54,55
 1076 1196 1076 1196 1103 1225 c 0,56,57
 1173 1299 1173 1299 1201 1309 c 1,58,59
 1154 1107 1154 1107 1154 895 c 2,0,-1
EndSplineSet
Validated: 1
EndChar

StartChar: uniEC62
Encoding: 60514 60514 55
Width: 0
Flags: W
LayerCount: 2
Fore
SplineSet
-553 941 m 1,0,-1
 -446 1048 l 1,1,-1
 -367 969 l 1,2,-1
 -474 862 l 1,3,-1
 -553 941 l 1,0,-1
EndSplineSet
Validated: 1
EndChar

StartChar: uniEC82
Encoding: 60546 60546 56
Width: 0
Flags: W
LayerCount: 2
Fore
SplineSet
-534 1106 m 1,0,1
 -473 1202 -473 1202 -424 1265 c 0,2,3
 -391 1307 -391 1307 -336 1307 c 0,4,5
 -254 1307 -254 1307 -254 1219 c 0,6,7
 -254 1128 -254 1128 -362 961 c 0,8,9
 -378 935 -378 935 -535 719 c 1,10,11
 -354 1010 -354 1010 -354 1107 c 0,12,13
 -354 1155 -354 1155 -403 1155 c 0,14,15
 -470 1155 -470 1155 -534 1106 c 1,0,1
EndSplineSet
Validated: 1
EndChar

StartChar: uniEC50
Encoding: 60496 60496 57
Width: 0
Flags: W
LayerCount: 2
Fore
SplineSet
107 1070 m 1,0,-1
 -184 767 l 1,1,-1
 72 1120 l 1,2,-1
 107 1070 l 1,0,-1
EndSplineSet
Validated: 1
EndChar

StartChar: uniE01D
Encoding: 57373 57373 58
Width: 1260
Flags: W
LayerCount: 2
Fore
SplineSet
1054 270 m 0,0,1
 1054 353 1054 353 999 426 c 0,2,3
 939 505 939 505 858 505 c 0,4,5
 801 505 801 505 723 447 c 1,6,7
 724 438 724 438 724 428 c 0,8,9
 724 333 724 333 626 190 c 1,10,-1
 1033 190 l 1,11,12
 1054 219 1054 219 1054 270 c 0,0,1
200 412 m 1,13,-1
 200 190 l 1,14,-1
 551 190 l 1,15,16
 571 219 571 219 571 270 c 0,17,18
 571 354 571 354 516 426 c 0,19,20
 457 505 457 505 376 505 c 0,21,22
 300 505 300 505 200 412 c 1,13,-1
57 1048 m 2,23,24
 57 1116 57 1116 0 1160 c 1,25,26
 46 1213 46 1213 129 1313 c 1,27,28
 183 1270 183 1270 200 1130 c 1,29,-1
 200 511 l 1,30,31
 342 656 342 656 493 656 c 0,32,33
 624 656 624 656 696 526 c 1,34,35
 831 656 831 656 975 656 c 0,36,37
 1062 656 1062 656 1134 587 c 128,-1,38
 1206 518 1206 518 1206 432 c 0,39,40
 1206 333 1206 333 1108 190 c 1,41,42
 1153 190 1153 190 1211 215 c 0,43,44
 1213 212 1213 212 1213 207 c 0,45,46
 1213 158 1213 158 1079 0 c 1,47,-1
 200 0 l 1,48,-1
 200 -452 l 2,49,50
 200 -595 200 -595 11 -638 c 1,51,52
 57 -436 57 -436 57 -224 c 2,53,-1
 57 1048 l 2,23,24
EndSplineSet
Validated: 1
EndChar

StartChar: uniE01F
Encoding: 57375 57375 59
Width: 1260
Flags: W
LayerCount: 2
Fore
SplineSet
602 489 m 1,0,-1
 206 491 l 1,1,2
 152 472 152 472 152 386 c 0,3,4
 152 303 152 303 207 230 c 0,5,6
 267 151 267 151 348 151 c 0,7,8
 406 151 406 151 488 214 c 1,9,-1
 488 224 l 2,10,11
 488 334 488 334 602 489 c 1,0,-1
1012 682 m 1,12,-1
 1012 1123 l 1,13,14
 1076 1196 1076 1196 1103 1225 c 0,15,16
 1173 1299 1173 1299 1201 1309 c 1,17,18
 1154 1107 1154 1107 1154 895 c 2,19,-1
 1154 -373 l 2,20,21
 1154 -441 1154 -441 1191 -486 c 1,22,-1
 1061 -638 l 1,23,24
 1012 -559 1012 -559 1012 -475 c 2,25,-1
 1011 144 l 1,26,27
 871 0 871 0 716 0 c 0,28,29
 585 0 585 0 513 133 c 1,30,31
 440 62 440 62 386 34 c 0,32,33
 319 0 319 0 229 0 c 0,34,35
 143 0 143 0 71.5 69 c 128,-1,36
 0 138 0 138 0 224 c 0,37,38
 0 335 0 335 116 491 c 1,39,40
 30 491 30 491 0 473 c 1,41,42
 92 680 92 680 156 680 c 2,43,-1
 1012 682 l 1,12,-1
1012 489 m 1,44,-1
 687 488 l 1,45,46
 640 467 640 467 640 386 c 0,47,48
 640 302 640 302 695 230 c 0,49,50
 754 151 754 151 835 151 c 256,51,52
 916 151 916 151 1012 243 c 1,53,-1
 1012 489 l 1,44,-1
EndSplineSet
Validated: 1
EndChar

StartChar: uniEC72
Encoding: 60530 60530 60
Width: 0
Flags: W
LayerCount: 2
Fore
SplineSet
-298 912 m 1,0,1
 -285 950 -285 950 -285 985 c 0,2,3
 -285 1055 -285 1055 -340 1055 c 0,4,5
 -416 1055 -416 1055 -535 719 c 1,6,-1
 -448 1007 l 1,7,8
 -369 1222 -369 1222 -299 1222 c 0,9,10
 -225 1222 -225 1222 -225 1141 c 0,11,12
 -225 1048 -225 1048 -298 912 c 1,0,1
EndSplineSet
Validated: 1
EndChar

StartChar: uniE01B
Encoding: 57371 57371 61
Width: 768
Flags: W
LayerCount: 2
Fore
SplineSet
524 495 m 1,0,-1
 206 491 l 1,1,2
 152 472 152 472 152 386 c 0,3,4
 152 303 152 303 207 230 c 0,5,6
 267 151 267 151 348 151 c 0,7,8
 428 151 428 151 524 243 c 1,9,-1
 524 495 l 1,0,-1
524 682 m 1,10,-1
 524 1123 l 1,11,12
 588 1196 588 1196 615 1225 c 0,13,14
 685 1299 685 1299 713 1309 c 1,15,16
 667 1107 667 1107 667 895 c 2,17,-1
 667 -373 l 2,18,19
 667 -441 667 -441 703 -486 c 1,20,-1
 574 -638 l 1,21,22
 524 -559 524 -559 524 -475 c 2,23,-1
 524 144 l 1,24,25
 382 0 382 0 229 0 c 0,26,27
 143 0 143 0 71.5 69 c 128,-1,28
 0 138 0 138 0 224 c 0,29,30
 0 335 0 335 116 491 c 1,31,32
 30 491 30 491 0 473 c 1,33,34
 93 680 93 680 156 680 c 2,35,-1
 524 682 l 1,10,-1
EndSplineSet
Validated: 1
EndChar

StartChar: uniEC21
Encoding: 60449 60449 62
Width: 0
Flags: W
LayerCount: 2
Fore
SplineSet
-600 840 m 1,0,-1
 -117 840 l 1,1,-1
 -220 706 l 1,2,-1
 -702 706 l 1,3,-1
 -600 840 l 1,0,-1
EndSplineSet
Validated: 1
EndChar

StartChar: uni605C
Encoding: 24668 24668 63
Width: 768
Flags: W
LayerCount: 2
Fore
SplineSet
620 484 m 1,0,1
 499 288 499 288 380 288 c 0,2,3
 334 288 334 288 245.5 316 c 128,-1,4
 157 344 157 344 119 344 c 0,5,6
 58 344 58 344 0 289 c 1,7,8
 114 475 114 475 246 475 c 0,9,10
 284 475 284 475 356.5 453 c 128,-1,11
 429 431 429 431 467 431 c 0,12,13
 538 431 538 431 620 484 c 1,0,1
EndSplineSet
Validated: 1
EndChar

StartChar: uniE032
Encoding: 57394 57394 64
Width: 650
Flags: W
LayerCount: 2
Fore
SplineSet
611 309 m 1,0,1
 548 137 548 137 458 39 c 0,2,3
 422 0 422 0 276 0 c 0,4,5
 157 0 157 0 78.5 80.5 c 128,-1,6
 0 161 0 161 0 281 c 0,7,8
 0 425 0 425 101 551 c 0,9,10
 208 686 208 686 348 686 c 0,11,12
 452 686 452 686 552 606 c 1,13,-1
 433 448 l 2,14,15
 429 448 429 448 357 486 c 128,-1,16
 285 524 285 524 248 524 c 0,17,18
 173 524 173 524 150 498 c 0,19,20
 133 478 133 478 133 419 c 0,21,22
 133 315 133 315 202 248 c 128,-1,23
 271 181 271 181 376 181 c 0,24,25
 539 181 539 181 611 309 c 1,0,1
EndSplineSet
Validated: 1
EndChar

StartChar: uniEC73
Encoding: 60531 60531 65
Width: 0
Flags: W
LayerCount: 2
Fore
SplineSet
-347 853 m 1,0,1
 -284 943 -284 943 -284 1013 c 0,2,3
 -284 1072 -284 1072 -348 1072 c 0,4,5
 -456 1072 -456 1072 -658 719 c 1,6,7
 -575 898 -575 898 -486 1034 c 0,8,9
 -339 1258 -339 1258 -236 1258 c 0,10,11
 -141 1258 -141 1258 -141 1166 c 0,12,13
 -141 1057 -141 1057 -347 853 c 1,0,1
EndSplineSet
Validated: 1
EndChar

StartChar: uniEBD9
Encoding: 60377 60377 66
Width: 410
Flags: W
LayerCount: 2
Fore
SplineSet
363 -114 m 1,0,1
 294 -229 294 -229 251 -277 c 0,2,3
 171 -367 171 -367 85 -367 c 0,4,5
 62 -367 62 -367 47 -344 c 128,-1,6
 32 -321 32 -321 32 -297 c 0,7,8
 32 -266 32 -266 101 -186 c 1,9,10
 161 -252 161 -252 179 -252 c 0,11,12
 240 -252 240 -252 240 -223 c 0,13,14
 240 -124 240 -124 167 -93 c 0,15,16
 123 -74 123 -74 8 -74 c 2,17,-1
 -383 -74 l 1,18,-1
 -269 64 l 1,19,-1
 60 64 l 2,20,21
 167 64 167 64 247 26 c 0,22,23
 346 -21 346 -21 363 -114 c 1,0,1
EndSplineSet
Validated: 1
EndChar

StartChar: uniE02E
Encoding: 57390 57390 67
Width: 410
Flags: W
LayerCount: 2
Fore
SplineSet
103 491 m 2,0,1
 30 491 30 491 0 473 c 1,2,3
 93 679 93 679 156 680 c 2,4,-1
 335 682 l 1,5,-1
 335 186 l 2,6,7
 335 108 335 108 281 57 c 0,8,9
 247 25 247 25 146 0 c 1,10,11
 193 196 193 196 193 332 c 2,12,-1
 193 410 l 2,13,14
 193 454 193 454 166 491 c 1,15,-1
 103 491 l 2,0,1
EndSplineSet
Validated: 1
EndChar

StartChar: uniE002
Encoding: 57346 57346 68
Width: 768
Flags: W
LayerCount: 2
Fore
SplineSet
524 144 m 1,0,1
 382 0 382 0 229 0 c 0,2,3
 143 0 143 0 71.5 69 c 128,-1,4
 0 138 0 138 0 224 c 0,5,6
 0 341 0 341 115 494 c 0,7,8
 236 656 236 656 348 656 c 0,9,10
 391 656 391 656 438 574 c 1,11,-1
 340 446 l 1,12,13
 280 495 280 495 233 495 c 0,14,15
 152 495 152 495 152 386 c 0,16,17
 152 303 152 303 207 230 c 0,18,19
 267 151 267 151 348 151 c 0,20,21
 421 151 421 151 524 243 c 1,22,-1
 524 488 l 2,23,24
 524 589 524 589 713 675 c 1,25,26
 667 472 667 472 667 261 c 2,27,-1
 667 -373 l 2,28,29
 667 -441 667 -441 703 -486 c 1,30,-1
 574 -638 l 1,31,32
 524 -559 524 -559 524 -475 c 2,33,-1
 524 144 l 1,0,1
EndSplineSet
Validated: 1
EndChar

StartChar: uniE013
Encoding: 57363 57363 69
Width: 1260
Flags: W
LayerCount: 2
Fore
SplineSet
1011 489 m 1,0,-1
 687 488 l 1,1,2
 640 467 640 467 640 386 c 0,3,4
 640 302 640 302 695 230 c 0,5,6
 754 151 754 151 835 151 c 0,7,8
 914 151 914 151 1011 242 c 1,9,-1
 1011 489 l 1,0,-1
716 0 m 0,10,11
 585 0 585 0 513 133 c 1,12,13
 440 62 440 62 386 34 c 0,14,15
 319 0 319 0 229 0 c 0,16,17
 143 0 143 0 71.5 69 c 128,-1,18
 0 138 0 138 0 224 c 0,19,20
 0 335 0 335 116 491 c 1,21,22
 30 491 30 491 0 473 c 1,23,24
 92 680 92 680 156 680 c 2,25,-1
 1260 682 l 1,26,27
 1236 616 1236 616 1169 492 c 1,28,29
 1153 403 1153 403 1153 343 c 2,30,-1
 1153 265 l 2,31,32
 1153 197 1153 197 1210 152 c 1,33,34
 1165 100 1165 100 1081 0 c 1,35,36
 1011 56 1011 56 1011 102 c 2,37,-1
 1011 143 l 1,38,39
 936 68 936 68 879 38 c 0,40,41
 808 0 808 0 716 0 c 0,10,11
602 489 m 1,42,-1
 206 491 l 1,43,44
 152 472 152 472 152 386 c 0,45,46
 152 303 152 303 207 230 c 0,47,48
 267 151 267 151 348 151 c 0,49,50
 406 151 406 151 488 214 c 1,51,-1
 488 224 l 2,52,53
 488 334 488 334 602 489 c 1,42,-1
EndSplineSet
Validated: 1
EndChar

StartChar: uniE00B
Encoding: 57355 57355 70
Width: 768
Flags: W
LayerCount: 2
Fore
SplineSet
524 495 m 1,0,-1
 207 491 l 1,1,2
 153 472 153 472 153 386 c 0,3,4
 153 303 153 303 208 230 c 0,5,6
 268 151 268 151 349 151 c 0,7,8
 425 151 425 151 524 243 c 1,9,-1
 524 495 l 1,0,-1
523 143 m 1,10,11
 382 0 382 0 229 0 c 0,12,13
 143 0 143 0 71.5 69 c 128,-1,14
 0 138 0 138 0 224 c 0,15,16
 0 335 0 335 116 491 c 1,17,18
 68 491 68 491 57 490 c 0,19,20
 23 487 23 487 0 473 c 1,21,22
 93 680 93 680 156 680 c 2,23,-1
 524 682 l 1,24,-1
 524 1126 l 1,25,26
 670 1296 670 1296 713 1313 c 1,27,28
 667 1110 667 1110 667 899 c 2,29,-1
 667 248 l 1,30,31
 674 190 674 190 723 152 c 1,32,33
 677 100 677 100 593 0 c 1,34,35
 523 56 523 56 523 102 c 2,36,-1
 523 143 l 1,10,11
EndSplineSet
Validated: 1
EndChar

StartChar: uniE00A
Encoding: 57354 57354 71
Width: 768
Flags: W
LayerCount: 2
Fore
SplineSet
523 143 m 1,0,1
 380 0 380 0 229 0 c 0,2,3
 143 0 143 0 71.5 69 c 128,-1,4
 0 138 0 138 0 224 c 0,5,6
 0 341 0 341 115 494 c 0,7,8
 236 656 236 656 348 656 c 0,9,10
 391 656 391 656 438 574 c 1,11,-1
 340 446 l 1,12,13
 280 495 280 495 233 495 c 0,14,15
 152 495 152 495 152 386 c 0,16,17
 152 303 152 303 207 230 c 0,18,19
 267 151 267 151 348 151 c 0,20,21
 424 151 424 151 523 242 c 1,22,-1
 523 1126 l 1,23,24
 669 1296 669 1296 712 1313 c 1,25,26
 665 1110 665 1110 665 899 c 2,27,-1
 665 265 l 2,28,29
 665 197 665 197 723 152 c 1,30,31
 677 100 677 100 593 0 c 1,32,33
 539 43 539 43 523 121 c 1,34,-1
 523 143 l 1,0,1
EndSplineSet
Validated: 1
EndChar

StartChar: uniE009
Encoding: 57353 57353 72
Width: 768
Flags: W
LayerCount: 2
Fore
SplineSet
200 186 m 1,0,-1
 518 191 l 1,1,2
 571 210 571 210 571 270 c 0,3,4
 571 352 571 352 516 425 c 0,5,6
 456 504 456 504 376 504 c 256,7,8
 296 504 296 504 200 412 c 1,9,-1
 200 186 l 1,0,-1
200 511 m 1,10,11
 276 588 276 588 331 618 c 0,12,13
 401 655 401 655 495 655 c 0,14,15
 580 655 580 655 652 586 c 128,-1,16
 724 517 724 517 724 432 c 256,17,18
 724 347 724 347 607 191 c 1,19,20
 692 191 692 191 724 209 c 1,21,22
 630 0 630 0 566 0 c 2,23,-1
 6 0 l 1,24,25
 57 202 57 202 57 414 c 2,26,-1
 57 1048 l 2,27,28
 57 1116 57 1116 0 1160 c 1,29,30
 46 1213 46 1213 129 1313 c 1,31,32
 183 1270 183 1270 200 1130 c 1,33,-1
 200 511 l 1,10,11
EndSplineSet
Validated: 1
EndChar

StartChar: uniE00E
Encoding: 57358 57358 73
Width: 1260
Flags: W
LayerCount: 2
Fore
SplineSet
1011 144 m 1,0,1
 853 0 853 0 716 0 c 0,2,3
 585 0 585 0 513 133 c 1,4,5
 440 62 440 62 386 34 c 0,6,7
 319 0 319 0 229 0 c 0,8,9
 143 0 143 0 71.5 69 c 128,-1,10
 0 138 0 138 0 224 c 0,11,12
 0 341 0 341 115 494 c 0,13,14
 236 656 236 656 348 656 c 0,15,16
 391 656 391 656 438 574 c 1,17,-1
 340 446 l 1,18,19
 280 495 280 495 233 495 c 0,20,21
 152 495 152 495 152 386 c 0,22,23
 152 303 152 303 207 230 c 0,24,25
 267 151 267 151 348 151 c 0,26,27
 406 151 406 151 488 214 c 1,28,-1
 488 224 l 2,29,30
 488 341 488 341 603 494 c 0,31,32
 723 656 723 656 835 656 c 0,33,34
 878 656 878 656 926 574 c 1,35,-1
 827 446 l 1,36,37
 768 495 768 495 721 495 c 0,38,39
 640 495 640 495 640 386 c 0,40,41
 640 302 640 302 695 230 c 0,42,43
 754 151 754 151 835 151 c 256,44,45
 916 151 916 151 1012 243 c 1,46,-1
 1012 1123 l 1,47,48
 1164 1299 1164 1299 1200 1313 c 1,49,50
 1154 1110 1154 1110 1154 899 c 2,51,-1
 1154 265 l 2,52,53
 1154 197 1154 197 1211 152 c 1,54,55
 1105 31 1105 31 1081 0 c 1,56,57
 1011 56 1011 56 1011 102 c 2,58,-1
 1011 144 l 1,0,1
EndSplineSet
Validated: 1
EndChar

StartChar: uniE012
Encoding: 57362 57362 74
Width: 1260
Flags: W
LayerCount: 2
Fore
SplineSet
835 151 m 0,0,1
 914 151 914 151 1011 242 c 1,2,-1
 1011 488 l 2,3,4
 1011 589 1011 589 1199 675 c 1,5,6
 1153 479 1153 479 1153 343 c 2,7,-1
 1153 265 l 2,8,9
 1153 197 1153 197 1210 152 c 1,10,11
 1165 100 1165 100 1081 0 c 1,12,13
 1011 56 1011 56 1011 102 c 2,14,-1
 1011 143 l 1,15,16
 936 68 936 68 879 38 c 0,17,18
 808 0 808 0 716 0 c 0,19,20
 585 0 585 0 513 133 c 1,21,22
 440 62 440 62 386 34 c 0,23,24
 319 0 319 0 229 0 c 0,25,26
 143 0 143 0 71.5 69 c 128,-1,27
 0 138 0 138 0 224 c 0,28,29
 0 341 0 341 115 494 c 0,30,31
 236 656 236 656 348 656 c 0,32,33
 391 656 391 656 438 574 c 1,34,-1
 340 446 l 1,35,36
 280 495 280 495 233 495 c 0,37,38
 152 495 152 495 152 386 c 0,39,40
 152 303 152 303 207 230 c 0,41,42
 267 151 267 151 348 151 c 0,43,44
 406 151 406 151 488 214 c 1,45,-1
 488 224 l 2,46,47
 488 341 488 341 603 494 c 0,48,49
 723 656 723 656 835 656 c 0,50,51
 878 656 878 656 926 574 c 1,52,-1
 827 446 l 1,53,54
 768 495 768 495 721 495 c 0,55,56
 640 495 640 495 640 386 c 0,57,58
 640 302 640 302 695 230 c 0,59,60
 754 151 754 151 835 151 c 0,0,1
EndSplineSet
Validated: 1
EndChar

StartChar: uniE016
Encoding: 57366 57366 75
Width: 768
Flags: W
LayerCount: 2
Fore
SplineSet
523 143 m 1,0,1
 382 0 382 0 229 0 c 0,2,3
 143 0 143 0 71.5 69 c 128,-1,4
 0 138 0 138 0 224 c 0,5,6
 0 341 0 341 115 494 c 0,7,8
 236 656 236 656 348 656 c 0,9,10
 391 656 391 656 438 574 c 1,11,-1
 340 446 l 1,12,13
 280 495 280 495 233 495 c 0,14,15
 152 495 152 495 152 386 c 0,16,17
 152 303 152 303 207 230 c 0,18,19
 267 151 267 151 348 151 c 0,20,21
 425 151 425 151 523 243 c 1,22,-1
 523 488 l 2,23,24
 523 589 523 589 712 675 c 1,25,26
 666 477 666 477 666 343 c 2,27,-1
 666 265 l 2,28,29
 666 197 666 197 723 152 c 1,30,31
 677 100 677 100 593 0 c 1,32,33
 523 56 523 56 523 102 c 2,34,-1
 523 143 l 1,0,1
EndSplineSet
Validated: 1
EndChar

StartChar: uniE025
Encoding: 57381 57381 76
Width: 768
Flags: W
LayerCount: 2
Fore
SplineSet
30 284 m 0,0,1
 30 393 30 393 85 480 c 0,2,3
 93 493 93 493 213 640 c 0,4,5
 245 679 245 679 359 679 c 0,6,7
 485 679 485 679 562.5 604 c 128,-1,8
 640 529 640 529 640 403 c 0,9,10
 640 305 640 305 539 163 c 1,11,12
 446 41 446 41 353 -81 c 1,13,14
 252 -224 252 -224 252 -322 c 0,15,16
 252 -335 252 -335 259.5 -360 c 128,-1,17
 267 -385 267 -385 267 -397 c 0,18,19
 267 -435 267 -435 154 -540 c 1,20,21
 78 -522 78 -522 78 -445 c 0,22,23
 78 -373 78 -373 287.5 -84.5 c 128,-1,24
 497 204 497 204 497 284 c 0,25,26
 497 374 497 374 427.5 441 c 128,-1,27
 358 508 358 508 268 508 c 0,28,29
 242 508 242 508 205 489 c 0,30,31
 163 468 163 468 163 446 c 0,32,33
 163 406 163 406 200 358 c 0,34,35
 238 307 238 307 277 305 c 1,36,37
 158 146 158 146 140 146 c 0,38,39
 93 146 93 146 60 193 c 0,40,41
 30 235 30 235 30 284 c 0,0,1
EndSplineSet
Validated: 1
EndChar

StartChar: uniE022
Encoding: 57378 57378 77
Width: 1209
Flags: W
LayerCount: 2
Fore
SplineSet
1179 653 m 1,0,1
 1138 443 1138 443 824 443 c 0,2,3
 756 443 756 443 621 458.5 c 128,-1,4
 486 474 486 474 419 474 c 0,5,6
 330 474 330 474 232 295 c 0,7,8
 143 132 143 132 143 31 c 0,9,10
 143 -129 143 -129 276 -249 c 0,11,12
 405 -364 405 -364 567 -364 c 0,13,14
 665 -364 665 -364 786 -316 c 0,15,16
 931 -258 931 -258 931 -186 c 0,17,18
 931 -138 931 -138 876 -74 c 1,19,-1
 990 64 l 1,20,21
 1018 64 1018 64 1047 21.5 c 128,-1,22
 1076 -21 1076 -21 1076 -50 c 0,23,24
 1076 -155 1076 -155 935 -308 c 0,25,26
 810 -444 810 -444 719 -488 c 0,27,28
 620 -536 620 -536 443 -536 c 0,29,30
 285 -536 285 -536 144 -409 c 0,31,32
 0 -279 0 -279 0 -122 c 0,33,34
 0 8 0 8 110 198 c 0,35,36
 197 350 197 350 314 479 c 1,37,38
 301 494 301 494 254 494 c 0,39,40
 194 494 194 494 120 473 c 0,41,42
 43 451 43 451 22 427 c 1,43,44
 72 665 72 665 435 665 c 0,45,46
 528 665 528 665 713 647.5 c 128,-1,47
 898 630 898 630 991 630 c 0,48,49
 1107 630 1107 630 1179 653 c 1,0,1
EndSplineSet
Validated: 1
EndChar

StartChar: uniE026
Encoding: 57382 57382 78
Width: 768
Flags: W
LayerCount: 2
Fore
SplineSet
192 22 m 1,0,1
 30 87 30 87 30 276 c 0,2,3
 30 368 30 368 141 528 c 1,4,5
 229 644 229 644 317 760 c 0,6,7
 418 897 418 897 418 1000 c 0,8,9
 418 1013 418 1013 410.5 1038.5 c 128,-1,10
 403 1064 403 1064 403 1076 c 0,11,12
 403 1114 403 1114 516 1219 c 1,13,14
 592 1201 592 1201 592 1124 c 0,15,16
 592 1032 592 1032 383 764 c 0,17,18
 274 625 274 625 250 587 c 0,19,20
 176 471 176 471 176 385 c 0,21,22
 176 304 176 304 242 238 c 128,-1,23
 308 172 308 172 389 172 c 0,24,25
 421 172 421 172 460 187 c 0,26,27
 507 206 507 206 507 233 c 0,28,29
 507 274 507 274 471 321 c 0,30,31
 432 371 432 371 393 374 c 1,32,33
 512 533 512 533 530 533 c 0,34,35
 577 533 577 533 610 486 c 0,36,37
 640 444 640 444 640 395 c 0,38,39
 640 286 640 286 585 199 c 0,40,41
 577 186 577 186 457 39 c 0,42,43
 425 0 425 0 311 0 c 0,44,45
 278 0 278 0 247 6 c 1,46,47
 173 -108 173 -108 173 -187 c 256,48,49
 173 -266 173 -266 241.5 -333 c 128,-1,50
 310 -400 310 -400 389 -400 c 0,51,52
 421 -400 421 -400 460 -385 c 0,53,54
 507 -366 507 -366 507 -339 c 0,55,56
 507 -298 507 -298 471 -251 c 0,57,58
 432 -201 432 -201 393 -198 c 1,59,60
 512 -39 512 -39 530 -39 c 0,61,62
 577 -39 577 -39 610 -86 c 0,63,64
 640 -128 640 -128 640 -177 c 0,65,66
 640 -286 640 -286 585 -373 c 0,67,68
 576 -388 576 -388 457 -533 c 0,69,70
 423 -574 423 -574 340 -574 c 0,71,72
 214 -574 214 -574 128 -513 c 0,73,74
 30 -444 30 -444 30 -323 c 0,75,76
 30 -189 30 -189 192 22 c 1,0,1
EndSplineSet
Validated: 1
EndChar

StartChar: uniE02A
Encoding: 57386 57386 79
Width: 821
Flags: W
LayerCount: 2
Fore
SplineSet
821 233 m 1,0,1
 768 120 768 120 755 97 c 0,2,3
 701 -0 701 -0 661 -0 c 0,4,5
 660 -0 660 -0 659 0 c 0,6,7
 628 0 628 0 574 66 c 2,8,-1
 405 276 l 1,9,-1
 250 93 l 2,10,11
 171 0 171 0 95 0 c 0,12,13
 55 0 55 0 0 76 c 1,14,-1
 100 219 l 1,15,16
 153 171 153 171 195 171 c 0,17,18
 216 171 216 171 362 329 c 1,19,20
 327 375 327 375 227 481 c 1,21,22
 201 498 201 498 170 498 c 0,23,24
 116 498 116 498 73 453 c 1,25,26
 101 524 101 524 150 584 c 0,27,28
 214 661 214 661 272 661 c 256,29,30
 330 661 330 661 529.5 430.5 c 128,-1,31
 729 200 729 200 752 200 c 0,32,33
 771 200 771 200 821 233 c 1,0,1
EndSplineSet
Validated: 1
EndChar

StartChar: uniE023
Encoding: 57379 57379 80
Width: 1188
Flags: W
LayerCount: 2
Fore
SplineSet
112 88 m 0,0,1
 112 163 112 163 176 292 c 0,2,3
 231 402 231 402 292 479 c 1,4,5
 279 494 279 494 232 494 c 0,6,7
 172 494 172 494 98 473 c 0,8,9
 21 451 21 451 0 427 c 1,10,11
 50 665 50 665 413 665 c 0,12,13
 506 665 506 665 691 647.5 c 128,-1,14
 876 630 876 630 969 630 c 0,15,16
 1085 630 1085 630 1157 653 c 1,17,18
 1116 443 1116 443 802 443 c 0,19,20
 734 443 734 443 599 458.5 c 128,-1,21
 464 474 464 474 397 474 c 0,22,23
 342 474 342 474 292 374 c 0,24,25
 248 287 248 287 248 224 c 0,26,27
 248 107 248 107 399 107 c 0,28,29
 405 107 405 107 526 118 c 0,30,31
 603 125 603 125 661 125 c 0,32,33
 662 125 662 125 664 125 c 0,34,35
 665.255813953 125.003875969 665.255813953 125.003875969 666.506760411 125.003875969 c 0,36,37
 988 125.003875969 988 125.003875969 988 -131 c 0,38,39
 988 -179 988 -179 885.5 -333.5 c 128,-1,40
 783 -488 783 -488 745 -488 c 0,41,42
 702 -488 702 -488 617.5 -493.5 c 128,-1,43
 533 -499 533 -499 490 -499 c 0,44,45
 394 -499 394 -499 294 -467 c 0,46,47
 159 -425 159 -425 159 -350 c 0,48,49
 159 -300 159 -300 290 -155 c 1,50,51
 313 -279 313 -279 435 -319 c 0,52,53
 505 -342 505 -342 668 -342 c 0,54,55
 826 -342 826 -342 826 -255 c 0,56,57
 826 -40 826 -40 644 -40 c 0,58,59
 635 -41 635 -41 626 -41 c 2,60,-1
 288 -60 l 2,61,62
 282 -60 282 -60 276 -60 c 0,63,64
 270.933333333 -60.3555555556 270.933333333 -60.3555555556 265.90617284 -60.3555555556 c 0,65,66
 214.377777778 -60.3555555556 214.377777778 -60.3555555556 167 -23 c 0,67,68
 112 20 112 20 112 88 c 0,0,1
EndSplineSet
Validated: 1
EndChar

StartChar: uniE017
Encoding: 57367 57367 81
Width: 768
Flags: W
LayerCount: 2
Fore
SplineSet
523 495 m 1,0,-1
 206 491 l 1,1,2
 152 472 152 472 152 386 c 0,3,4
 152 303 152 303 207 230 c 0,5,6
 267 151 267 151 348 151 c 0,7,8
 425 151 425 151 523 243 c 1,9,-1
 523 495 l 1,0,-1
523 143 m 1,10,11
 382 0 382 0 229 0 c 0,12,13
 143 0 143 0 71.5 69 c 128,-1,14
 0 138 0 138 0 224 c 0,15,16
 0 335 0 335 116 491 c 1,17,18
 30 491 30 491 0 473 c 1,19,20
 92 680 92 680 156 680 c 2,21,-1
 759 682 l 1,22,23
 742 637 742 637 689 530 c 1,24,25
 666 404 666 404 666 343 c 2,26,-1
 666 265 l 2,27,28
 666 197 666 197 723 152 c 1,29,30
 677 100 677 100 593 0 c 1,31,32
 523 56 523 56 523 102 c 2,33,-1
 523 143 l 1,10,11
EndSplineSet
Validated: 1
EndChar

StartChar: uniE029
Encoding: 57385 57385 82
Width: 900
Flags: W
LayerCount: 2
Fore
SplineSet
523 103 m 1,0,1
 458 38 458 38 387 17 c 0,2,3
 332 0 332 0 229 0 c 0,4,5
 143 0 143 0 71.5 69 c 128,-1,6
 0 138 0 138 0 224 c 0,7,8
 0 316 0 316 84 438 c 0,9,10
 162 551 162 551 248 603 c 0,11,12
 320 647 320 647 441 647 c 0,13,14
 487 647 487 647 523 625 c 1,15,-1
 523 1126 l 1,16,17
 669 1296 669 1296 712 1313 c 1,18,19
 665 1110 665 1110 665 899 c 2,20,-1
 665 265 l 2,21,22
 665 222 665 222 682.5 186.5 c 128,-1,23
 700 151 700 151 717 151 c 0,24,25
 721 151 721 151 723 152 c 0,26,27
 755 167 755 167 808 167 c 0,28,29
 833 167 833 167 878.5 161 c 128,-1,30
 924 155 924 155 949 155 c 0,31,32
 996 155 996 155 1035 169 c 1,33,34
 1030 140 1030 140 980.5 71.5 c 128,-1,35
 931 3 931 3 906 -2 c 0,36,37
 899 -3 899 -3 889 -3 c 0,38,39
 866 -3 866 -3 803 8 c 128,-1,40
 740 19 740 19 716 19 c 0,41,42
 696 19 696 19 659.5 9.5 c 128,-1,43
 623 0 623 0 604 0 c 0,44,45
 574 0 574 0 548.5 29.5 c 128,-1,46
 523 59 523 59 523 103 c 1,0,1
318 511 m 0,47,48
 233 511 233 511 200 493 c 0,49,50
 152 466 152 466 152 386 c 0,51,52
 152 303 152 303 207 230 c 0,53,54
 267 151 267 151 348 151 c 0,55,56
 414 151 414 151 430 154 c 0,57,58
 480 163 480 163 523 202 c 1,59,60
 523 370 523 370 505 415 c 0,61,62
 467 511 467 511 318 511 c 0,47,48
EndSplineSet
Validated: 1
EndChar

StartChar: uniEC31
Encoding: 60465 60465 83
Width: 0
Flags: W
LayerCount: 2
Fore
SplineSet
-102 901 m 1,0,1
 -224 705 -224 705 -342 705 c 0,2,3
 -388 705 -388 705 -477 733 c 128,-1,4
 -566 761 -566 761 -603 761 c 0,5,6
 -665 761 -665 761 -723 706 c 1,7,8
 -609 893 -609 893 -477 893 c 0,9,10
 -439 893 -439 893 -366 870.5 c 128,-1,11
 -293 848 -293 848 -255 848 c 0,12,13
 -185 848 -185 848 -102 901 c 1,0,1
EndSplineSet
Validated: 1
EndChar

StartChar: uniE001
Encoding: 57345 57345 84
Width: 768
Flags: W
LayerCount: 2
Fore
SplineSet
200 190 m 1,0,-1
 555 190 l 1,1,2
 571 218 571 218 571 270 c 0,3,4
 571 354 571 354 516 426 c 0,5,6
 457 505 457 505 376 505 c 0,7,8
 300 505 300 505 200 412 c 1,9,-1
 200 190 l 1,0,-1
200 511 m 1,10,11
 275 587 275 587 331 618 c 0,12,13
 402 656 402 656 495 656 c 0,14,15
 580 656 580 656 652 586.5 c 128,-1,16
 724 517 724 517 724 432 c 0,17,18
 724 329 724 329 631 190 c 1,19,20
 662 191 662 191 723 215 c 1,21,22
 723.248275862 212.931034483 723.248275862 212.931034483 723.248275862 210.665160523 c 0,23,24
 723.248275862 158.172413793 723.248275862 158.172413793 590 0 c 1,25,-1
 200 0 l 1,26,-1
 200 -452 l 2,27,28
 200 -595 200 -595 11 -638 c 1,29,30
 57 -436 57 -436 57 -224 c 2,31,-1
 57 410 l 2,32,33
 57 478 57 478 0 522 c 1,34,35
 46 575 46 575 129 675 c 1,36,37
 183 632 183 632 200 511 c 1,10,11
EndSplineSet
Validated: 1
EndChar

StartChar: uniE00D
Encoding: 57357 57357 85
Width: 1260
Flags: W
LayerCount: 2
Fore
SplineSet
57 414 m 2,0,-1
 57 1048 l 2,1,2
 57 1116 57 1116 0 1160 c 1,3,4
 46 1213 46 1213 129 1313 c 1,5,6
 183 1270 183 1270 200 1130 c 1,7,-1
 200 511 l 1,8,9
 342 656 342 656 493 656 c 0,10,11
 624 656 624 656 696 526 c 1,12,13
 831 656 831 656 975 656 c 0,14,15
 1062 656 1062 656 1134 587.5 c 128,-1,16
 1206 519 1206 519 1206 432 c 0,17,18
 1206 333 1206 333 1108 190 c 1,19,20
 1153 190 1153 190 1211 215 c 1,21,22
 1213 211 1213 211 1213 205 c 0,23,24
 1213 159 1213 159 1079 0 c 1,25,-1
 0 0 l 1,26,27
 57 110 57 110 57 414 c 2,0,-1
200 186 m 1,28,-1
 551 190 l 1,29,30
 571 219 571 219 571 270 c 0,31,32
 571 354 571 354 516 426 c 0,33,34
 457 505 457 505 376 505 c 0,35,36
 300 505 300 505 200 412 c 1,37,-1
 200 186 l 1,28,-1
1054 270 m 0,38,39
 1054 353 1054 353 999 426 c 0,40,41
 939 505 939 505 858 505 c 0,42,43
 801 505 801 505 723 447 c 1,44,45
 724 438 724 438 724 428 c 0,46,47
 724 333 724 333 626 190 c 1,48,-1
 1033 190 l 1,49,50
 1054 219 1054 219 1054 270 c 0,38,39
EndSplineSet
Validated: 1
EndChar

StartChar: uniE006
Encoding: 57350 57350 86
Width: 1260
Flags: W
LayerCount: 2
Fore
SplineSet
835 151 m 256,0,1
 916 151 916 151 1012 243 c 1,2,-1
 1012 488 l 2,3,4
 1012 589 1012 589 1201 675 c 1,5,6
 1154 472 1154 472 1154 261 c 2,7,-1
 1154 -373 l 2,8,9
 1154 -441 1154 -441 1191 -486 c 1,10,-1
 1061 -638 l 1,11,12
 1012 -559 1012 -559 1012 -475 c 2,13,-1
 1011 144 l 1,14,15
 871 0 871 0 716 0 c 0,16,17
 585 0 585 0 513 133 c 1,18,19
 440 62 440 62 386 34 c 0,20,21
 319 0 319 0 229 0 c 0,22,23
 143 0 143 0 71.5 69 c 128,-1,24
 0 138 0 138 0 224 c 0,25,26
 0 341 0 341 115 494 c 0,27,28
 236 656 236 656 348 656 c 0,29,30
 391 656 391 656 438 574 c 1,31,-1
 340 446 l 1,32,33
 280 495 280 495 233 495 c 0,34,35
 152 495 152 495 152 386 c 0,36,37
 152 303 152 303 207 230 c 0,38,39
 267 151 267 151 348 151 c 0,40,41
 406 151 406 151 488 214 c 1,42,-1
 488 224 l 2,43,44
 488 341 488 341 603 494 c 0,45,46
 723 656 723 656 835 656 c 0,47,48
 878 656 878 656 926 574 c 1,49,-1
 827 446 l 1,50,51
 768 495 768 495 721 495 c 0,52,53
 640 495 640 495 640 386 c 0,54,55
 640 302 640 302 695 230 c 0,56,57
 754 151 754 151 835 151 c 256,0,1
EndSplineSet
Validated: 1
EndChar

StartChar: uniE011
Encoding: 57361 57361 87
Width: 1260
Flags: W
LayerCount: 2
Fore
SplineSet
626 190 m 1,0,-1
 1033 190 l 1,1,2
 1054 219 1054 219 1054 270 c 0,3,4
 1054 353 1054 353 999 426 c 0,5,6
 939 505 939 505 858 505 c 0,7,8
 801 505 801 505 723 447 c 1,9,10
 724 438 724 438 724 428 c 0,11,12
 724 333 724 333 626 190 c 1,0,-1
200 511 m 1,13,14
 342 656 342 656 493 656 c 0,15,16
 624 656 624 656 696 526 c 1,17,18
 831 656 831 656 975 656 c 0,19,20
 1062 656 1062 656 1134 587.5 c 128,-1,21
 1206 519 1206 519 1206 432 c 0,22,23
 1206 333 1206 333 1108 190 c 1,24,25
 1153 190 1153 190 1211 215 c 1,26,27
 1213 211 1213 211 1213 205 c 0,28,29
 1213 159 1213 159 1079 0 c 1,30,-1
 0 0 l 1,31,32
 57 114 57 114 57 332 c 2,33,-1
 57 410 l 2,34,35
 57 478 57 478 0 522 c 1,36,37
 46 575 46 575 129 675 c 1,38,39
 183 632 183 632 200 511 c 1,13,14
376 505 m 0,40,41
 300 505 300 505 200 412 c 1,42,-1
 200 186 l 1,43,-1
 551 190 l 1,44,45
 571 219 571 219 571 270 c 0,46,47
 571 354 571 354 516 426 c 0,48,49
 457 505 457 505 376 505 c 0,40,41
EndSplineSet
Validated: 1
EndChar

StartChar: uniE021
Encoding: 57377 57377 88
Width: 830
Flags: W
LayerCount: 2
Fore
SplineSet
705 334 m 0,0,1
 684 300 684 300 467 31 c 0,2,3
 294 -184 294 -184 275 -268 c 0,4,5
 271 -284 271 -284 271 -300 c 0,6,7
 271 -356 271 -356 309 -396.5 c 128,-1,8
 347 -437 347 -437 404 -437 c 0,9,10
 431 -437 431 -437 491 -410 c 1,11,12
 461 -462 461 -462 413 -537 c 1,13,14
 355 -608 355 -608 304 -608 c 0,15,16
 231 -608 231 -608 186.5 -558 c 128,-1,17
 142 -508 142 -508 142 -435 c 0,18,19
 142 -345 142 -345 382 5 c 1,20,21
 382 53 382 53 327 178 c 1,22,23
 192 8 192 8 192 -16 c 0,24,25
 192 -55 192 -55 223 -74 c 1,26,-1
 101 -239 l 1,27,28
 55 -188 55 -188 55 -143 c 0,29,30
 55 -113 55 -113 74 -79 c 0,31,32
 102 -29 102 -29 306 223 c 1,33,34
 190 464 190 464 118 464 c 0,35,36
 100 464 100 464 30 417 c 1,37,38
 135 645 135 645 209 645 c 0,39,40
 319 645 319 645 531 195 c 1,41,42
 609 296 609 296 611 299 c 0,43,44
 654 365 654 365 654 419 c 0,45,46
 654 434 654 434 651 448 c 1,47,48
 629 472 629 472 592 472 c 0,49,50
 537 472 537 472 449 416 c 1,51,52
 511 500 511 500 631 627 c 1,53,54
 664 651 664 651 696 651 c 0,55,56
 738 651 738 651 770 617.5 c 128,-1,57
 802 584 802 584 802 542 c 0,58,59
 802 488 802 488 705 334 c 0,0,1
EndSplineSet
Validated: 1
EndChar

StartChar: uniE00F
Encoding: 57359 57359 89
Width: 1260
Flags: W
LayerCount: 2
Fore
SplineSet
1011 1126 m 1,0,1
 1157 1296 1157 1296 1200 1313 c 1,2,3
 1154 1110 1154 1110 1154 899 c 2,4,-1
 1154 265 l 2,5,6
 1154 197 1154 197 1211 152 c 1,7,8
 1165 100 1165 100 1082 0 c 1,9,10
 1011 57 1011 57 1011 121 c 2,11,-1
 1011 144 l 1,12,13
 871 0 871 0 716 0 c 0,14,15
 585 0 585 0 513 133 c 1,16,17
 440 62 440 62 386 34 c 0,18,19
 319 0 319 0 229 0 c 0,20,21
 143 0 143 0 71.5 69 c 128,-1,22
 0 138 0 138 0 224 c 0,23,24
 0 335 0 335 116 491 c 1,25,26
 30 491 30 491 0 473 c 1,27,28
 92 680 92 680 156 680 c 2,29,-1
 1011 682 l 1,30,-1
 1011 1126 l 1,0,1
687 488 m 1,31,32
 640 467 640 467 640 386 c 0,33,34
 640 302 640 302 695 230 c 0,35,36
 754 151 754 151 835 151 c 256,37,38
 916 151 916 151 1012 243 c 1,39,-1
 1012 489 l 1,40,-1
 687 488 l 1,31,32
602 489 m 1,41,-1
 206 491 l 1,42,43
 152 472 152 472 152 386 c 0,44,45
 152 303 152 303 207 230 c 0,46,47
 267 151 267 151 348 151 c 0,48,49
 406 151 406 151 488 214 c 1,50,51
 488 334 488 334 602 489 c 1,41,-1
EndSplineSet
Validated: 1
EndChar

StartChar: uniE005
Encoding: 57349 57349 90
Width: 1260
Flags: W
LayerCount: 2
Fore
SplineSet
200 511 m 1,0,1
 342 656 342 656 493 656 c 0,2,3
 624 656 624 656 696 526 c 1,4,5
 831 656 831 656 975 656 c 0,6,7
 1062 656 1062 656 1134 587 c 128,-1,8
 1206 518 1206 518 1206 432 c 0,9,10
 1206 333 1206 333 1108 190 c 1,11,12
 1153 190 1153 190 1211 215 c 0,13,14
 1213 212 1213 212 1213 207 c 0,15,16
 1213 158 1213 158 1079 0 c 1,17,-1
 200 0 l 1,18,-1
 200 -452 l 2,19,20
 200 -595 200 -595 11 -638 c 1,21,22
 57 -436 57 -436 57 -224 c 2,23,-1
 57 410 l 2,24,25
 57 478 57 478 0 522 c 1,26,27
 46 575 46 575 129 675 c 1,28,29
 183 632 183 632 200 511 c 1,0,1
376 505 m 0,30,31
 300 505 300 505 200 412 c 1,32,-1
 200 190 l 1,33,-1
 551 190 l 1,34,35
 571 219 571 219 571 270 c 0,36,37
 571 354 571 354 516 426 c 0,38,39
 457 505 457 505 376 505 c 0,30,31
1054 270 m 0,40,41
 1054 353 1054 353 999 426 c 0,42,43
 939 505 939 505 858 505 c 0,44,45
 801 505 801 505 723 447 c 1,46,47
 724 438 724 438 724 428 c 0,48,49
 724 333 724 333 626 190 c 1,50,-1
 1033 190 l 1,51,52
 1054 219 1054 219 1054 270 c 0,40,41
EndSplineSet
Validated: 1
EndChar

StartChar: uniE007
Encoding: 57351 57351 91
Width: 1260
Flags: W
LayerCount: 2
Fore
SplineSet
602 489 m 1,0,-1
 206 491 l 1,1,2
 152 472 152 472 152 386 c 0,3,4
 152 303 152 303 207 230 c 0,5,6
 267 151 267 151 348 151 c 0,7,8
 406 151 406 151 488 214 c 1,9,10
 488 334 488 334 602 489 c 1,0,-1
1163 489 m 1,11,12
 1154 416 1154 416 1154 261 c 2,13,-1
 1154 -373 l 2,14,15
 1154 -441 1154 -441 1191 -486 c 1,16,-1
 1061 -638 l 1,17,18
 1012 -559 1012 -559 1012 -475 c 2,19,-1
 1011 144 l 1,20,21
 871 0 871 0 716 0 c 0,22,23
 585 0 585 0 513 133 c 1,24,25
 440 62 440 62 386 34 c 0,26,27
 319 0 319 0 229 0 c 0,28,29
 143 0 143 0 71.5 69 c 128,-1,30
 0 138 0 138 0 224 c 0,31,32
 0 335 0 335 116 491 c 1,33,34
 30 491 30 491 0 473 c 1,35,36
 92 680 92 680 156 680 c 2,37,-1
 1260 682 l 1,38,39
 1235 614 1235 614 1167 489 c 1,40,-1
 1163 489 l 1,11,12
1012 489 m 1,41,-1
 687 488 l 1,42,43
 640 467 640 467 640 386 c 0,44,45
 640 302 640 302 695 230 c 0,46,47
 754 151 754 151 835 151 c 256,48,49
 916 151 916 151 1012 243 c 1,50,-1
 1012 489 l 1,41,-1
EndSplineSet
Validated: 1
EndChar

StartChar: uniE015
Encoding: 57365 57365 92
Width: 768
Flags: W
LayerCount: 2
Fore
SplineSet
200 186 m 1,0,-1
 512 191 l 1,1,2
 566 210 566 210 566 270 c 0,3,4
 566 353 566 353 510 426 c 0,5,6
 450 504 450 504 370 504 c 0,7,8
 296 504 296 504 200 417 c 1,9,-1
 200 186 l 1,0,-1
195 512 m 1,10,11
 270 588 270 588 326 618 c 0,12,13
 395 655 395 655 489 655 c 0,14,15
 575 655 575 655 646.5 586.5 c 128,-1,16
 718 518 718 518 718 432 c 0,17,18
 718 347 718 347 602 191 c 1,19,20
 688 191 688 191 718 209 c 1,21,22
 624 0 624 0 560 0 c 2,23,-1
 0 0 l 1,24,25
 57 195 57 195 57 332 c 2,26,-1
 57 410 l 2,27,28
 57 478 57 478 0 522 c 1,29,30
 46 575 46 575 129 675 c 1,31,32
 166 646 166 646 195 512 c 1,10,11
EndSplineSet
Validated: 1
EndChar

StartChar: uniE003
Encoding: 57347 57347 93
Width: 768
Flags: W
LayerCount: 2
Fore
SplineSet
679 513 m 1,0,1
 667 440 667 440 667 261 c 2,2,-1
 667 -373 l 2,3,4
 667 -441 667 -441 703 -486 c 1,5,-1
 574 -638 l 1,6,7
 524 -559 524 -559 524 -475 c 2,8,-1
 524 144 l 1,9,10
 382 0 382 0 229 0 c 0,11,12
 143 0 143 0 71.5 69 c 128,-1,13
 0 138 0 138 0 224 c 0,14,15
 0 335 0 335 116 491 c 1,16,17
 30 491 30 491 0 473 c 1,18,19
 92 680 92 680 156 680 c 2,20,-1
 759 682 l 1,21,22
 739 628 739 628 679 513 c 1,0,1
524 495 m 1,23,-1
 206 491 l 1,24,25
 152 472 152 472 152 386 c 0,26,27
 152 303 152 303 207 230 c 0,28,29
 267 151 267 151 348 151 c 0,30,31
 428 151 428 151 524 243 c 1,32,-1
 524 495 l 1,23,-1
EndSplineSet
Validated: 1
EndChar

StartChar: uniEC22
Encoding: 60450 60450 94
Width: 0
Flags: W
LayerCount: 2
Fore
SplineSet
-1071 840 m 1,0,-1
 -117 840 l 1,1,-1
 -220 706 l 1,2,-1
 -1173 706 l 1,3,-1
 -1071 840 l 1,0,-1
EndSplineSet
Validated: 1
EndChar

StartChar: uniEBD0
Encoding: 60368 60368 95
Width: 0
Flags: W
LayerCount: 2
Fore
SplineSet
-349 -234 m 1,0,1
 -519 -508 -519 -508 -621 -508 c 0,2,3
 -661 -508 -661 -508 -689.5 -480 c 128,-1,4
 -718 -452 -718 -452 -718 -412 c 0,5,6
 -718 -286 -718 -286 -466 -37 c 0,7,8
 -323 105 -323 105 -144 244 c 1,9,10
 -559 -155 -559 -155 -559 -275 c 0,11,12
 -559 -331 -559 -331 -499 -331 c 0,13,14
 -437 -331 -437 -331 -349 -234 c 1,0,1
EndSplineSet
Validated: 1
EndChar

StartChar: uniEBD1
Encoding: 60369 60369 96
Width: 0
Flags: W
LayerCount: 2
Fore
SplineSet
-128 -276 m 1,0,1
 -146 -431 -146 -431 -166 -498 c 0,2,3
 -211 -648 -211 -648 -298 -648 c 0,4,5
 -403 -648 -403 -648 -403 -506 c 0,6,7
 -403 -262 -403 -262 -144 244 c 1,8,9
 -311 -189 -311 -189 -311 -338 c 0,10,11
 -311 -434 -311 -434 -250 -434 c 0,12,13
 -177 -434 -177 -434 -128 -276 c 1,0,1
EndSplineSet
Validated: 1
EndChar

StartChar: uniE02C
Encoding: 57388 57388 97
Width: 410
Flags: W
LayerCount: 2
Fore
SplineSet
166 491 m 1,0,-1
 103 491 l 2,1,2
 30 491 30 491 0 473 c 1,3,4
 93 679 93 679 156 680 c 2,5,-1
 335 682 l 1,6,-1
 335 -452 l 2,7,8
 335 -595 335 -595 146 -638 c 1,9,10
 193 -436 193 -436 193 -224 c 2,11,-1
 193 410 l 2,12,13
 193 454 193 454 166 491 c 1,0,-1
EndSplineSet
Validated: 1
EndChar

StartChar: uni60C4
Encoding: 24772 24772 98
Width: 880
Flags: W
LayerCount: 2
Fore
SplineSet
800 370 m 0,0,1
 800 288 800 288 703 117 c 0,2,3
 609 -48 609 -48 538 -106 c 1,4,5
 401 8 401 8 306 8 c 0,6,7
 220 8 220 8 164 -73 c 0,8,9
 114 -145 114 -145 114 -235 c 0,10,11
 114 -369 114 -369 199 -451 c 128,-1,12
 284 -533 284 -533 419 -533 c 0,13,14
 478 -533 478 -533 534 -514 c 0,15,16
 610 -488 610 -488 610 -440 c 0,17,18
 610 -420 610 -420 562 -383 c 1,19,-1
 662 -240 l 1,20,21
 695 -240 695 -240 719 -268 c 128,-1,22
 743 -296 743 -296 743 -330 c 0,23,24
 743 -416 743 -416 622 -564 c 0,25,26
 497 -716 497 -716 414 -716 c 0,27,28
 212 -716 212 -716 118 -655 c 0,29,30
 0 -578 0 -578 0 -387 c 0,31,32
 0 -202 0 -202 156 89 c 1,33,34
 152 236 152 236 145 396 c 1,35,36
 134 429 134 429 77 476 c 1,37,-1
 195 646 l 1,38,39
 261 603 261 603 292 541 c 1,40,41
 392 665 392 665 505 665 c 0,42,43
 629 665 629 665 714.5 579.5 c 128,-1,44
 800 494 800 494 800 370 c 0,0,1
657 236 m 0,45,46
 657 337 657 337 596 408 c 0,47,48
 532 484 532 484 433 484 c 0,49,50
 346 484 346 484 296 395 c 1,51,-1
 296 180 l 1,52,53
 344 195 344 195 385 195 c 0,54,55
 441 195 441 195 510 164 c 1,56,57
 568 133 568 133 626 103 c 1,58,59
 657 169 657 169 657 236 c 0,45,46
EndSplineSet
Validated: 1
EndChar

StartChar: uniEBE8
Encoding: 60392 60392 99
Width: 410
Flags: W
LayerCount: 2
Fore
SplineSet
-392 0 m 1,0,-1
 -208 190 l 1,1,-1
 183 190 l 2,2,3
 225 190 225 190 225 241 c 0,4,5
 225 276 225 276 204 305.5 c 128,-1,6
 183 335 183 335 150 335 c 0,7,8
 97 335 97 335 40 250 c 1,9,10
 113 406 113 406 158 447 c 0,11,12
 195 481 195 481 270 481 c 0,13,14
 357 481 357 481 357 403 c 0,15,16
 357 346 357 346 252 154 c 0,17,18
 168 0 168 0 64 0 c 2,19,-1
 -392 0 l 1,0,-1
EndSplineSet
Validated: 1
EndChar

StartChar: uniEBF0
Encoding: 60400 60400 100
Width: 330
Flags: W
LayerCount: 2
Fore
SplineSet
284 -233 m 0,0,1
 284 -301 284 -301 177 -456 c 0,2,3
 66 -616 66 -616 5 -616 c 0,4,5
 -47 -616 -47 -616 -97 -583 c 0,6,7
 -153 -546 -153 -546 -153 -497 c 0,8,9
 -153 -456 -153 -456 -51 -328 c 1,10,11
 -33 -384 -33 -384 -18 -401 c 0,12,13
 14 -437 14 -437 95 -437 c 0,14,15
 135 -437 135 -437 135 -377 c 0,16,17
 135 -199 135 -199 -362 0 c 1,18,-1
 -192 140 l 1,19,20
 284 -91 284 -91 284 -233 c 0,0,1
EndSplineSet
Validated: 1
EndChar

StartChar: uniECB2
Encoding: 60594 60594 101
Width: 0
Flags: W
LayerCount: 2
Fore
SplineSet
-583 -369 m 1,0,-1
 -476 -262 l 1,1,-1
 -397 -341 l 1,2,-1
 -504 -448 l 1,3,-1
 -583 -369 l 1,0,-1
EndSplineSet
Validated: 1
EndChar

StartChar: uniEC91
Encoding: 60561 60561 102
Width: 0
Flags: W
LayerCount: 2
Fore
SplineSet
-386 -447 m 1,0,-1
 -493 -554 l 1,1,-1
 -572 -475 l 1,2,-1
 -465 -368 l 1,3,-1
 -386 -447 l 1,0,-1
-506 -276 m 1,4,-1
 -613 -383 l 1,5,-1
 -692 -304 l 1,6,-1
 -585 -197 l 1,7,-1
 -506 -276 l 1,4,-1
-234 -273 m 1,8,-1
 -340 -380 l 1,9,-1
 -419 -301 l 1,10,-1
 -313 -194 l 1,11,-1
 -234 -273 l 1,8,-1
EndSplineSet
Validated: 1
EndChar

StartChar: uniED01
Encoding: 60673 60673 103
Width: 0
Flags: W
LayerCount: 2
Fore
SplineSet
-321 944 m 1,0,-1
 -214 1051 l 1,1,-1
 -135 972 l 1,2,-1
 -242 865 l 1,3,-1
 -321 944 l 1,0,-1
-579 944 m 1,4,-1
 -472 1051 l 1,5,-1
 -393 972 l 1,6,-1
 -500 865 l 1,7,-1
 -579 944 l 1,4,-1
EndSplineSet
Validated: 1
EndChar

StartChar: uniED93
Encoding: 60819 60819 104
Width: 0
Flags: W
LayerCount: 2
Fore
SplineSet
-861 880 m 1,0,-1
 -625 1163 l 1,1,-1
 -433 972 l 1,2,-1
 -540 865 l 1,3,-1
 -690 1015 l 1,4,-1
 -844 862 l 1,5,-1
 -861 880 l 1,0,-1
EndSplineSet
Validated: 1
EndChar

StartChar: uniEDB2
Encoding: 60850 60850 105
Width: 0
Flags: W
LayerCount: 2
Fore
SplineSet
-154 1062 m 1,0,1
 -244.066666667 870.979487179 -244.066666667 870.979487179 -298.86800789 870.979487179 c 0,2,3
 -299.435897436 870.979487179 -299.435897436 870.979487179 -300 871 c 0,4,5
 -343 873 -343 873 -377 921 c 2,6,-1
 -469 1051 l 1,7,-1
 -549 955 l 2,8,9
 -619 871 -619 871 -679 871 c 0,10,11
 -733 871 -733 871 -775 930 c 1,12,-1
 -685 1059 l 1,13,14
 -637 1016 -637 1016 -599 1016 c 0,15,16
 -585 1016 -585 1016 -508 1098 c 1,17,18
 -519 1115 -519 1115 -600 1206 c 0,19,20
 -624 1234 -624 1234 -670 1234 c 0,21,22
 -697 1234 -697 1234 -719 1210 c 1,23,24
 -656 1368 -656 1368 -559 1368 c 0,25,26
 -506 1368 -506 1368 -371.5 1200 c 128,-1,27
 -237 1032 -237 1032 -216 1032 c 0,28,29
 -199 1032 -199 1032 -154 1062 c 1,0,1
EndSplineSet
Validated: 1
EndChar

StartChar: uniEDB3
Encoding: 60851 60851 106
Width: 0
Flags: W
LayerCount: 2
Fore
SplineSet
-324 1062 m 1,0,1
 -414.066666667 870.979487179 -414.066666667 870.979487179 -468.86800789 870.979487179 c 0,2,3
 -469.435897436 870.979487179 -469.435897436 870.979487179 -470 871 c 0,4,5
 -513 873 -513 873 -547 921 c 2,6,-1
 -639 1051 l 1,7,-1
 -719 955 l 2,8,9
 -789 871 -789 871 -849 871 c 0,10,11
 -903 871 -903 871 -945 930 c 1,12,-1
 -855 1059 l 1,13,14
 -807 1016 -807 1016 -769 1016 c 0,15,16
 -755 1016 -755 1016 -678 1098 c 1,17,18
 -689 1115 -689 1115 -770 1206 c 0,19,20
 -794 1234 -794 1234 -840 1234 c 0,21,22
 -867 1234 -867 1234 -889 1210 c 1,23,24
 -826 1368 -826 1368 -729 1368 c 0,25,26
 -676 1368 -676 1368 -541.5 1200 c 128,-1,27
 -407 1032 -407 1032 -386 1032 c 0,28,29
 -369 1032 -369 1032 -324 1062 c 1,0,1
EndSplineSet
Validated: 1
EndChar

StartChar: uniEDB1
Encoding: 60849 60849 107
Width: 0
Flags: W
LayerCount: 2
Fore
SplineSet
0 1062 m 1,0,1
 -91 869 -91 869 -146 871 c 0,2,3
 -189 873 -189 873 -223 921 c 2,4,-1
 -315 1051 l 1,5,-1
 -395 955 l 2,6,7
 -465 871 -465 871 -525 871 c 0,8,9
 -579 871 -579 871 -621 930 c 1,10,-1
 -531 1059 l 1,11,12
 -483 1016 -483 1016 -445 1016 c 0,13,14
 -431 1016 -431 1016 -354 1098 c 1,15,16
 -365 1115 -365 1115 -446 1206 c 0,17,18
 -470 1234 -470 1234 -516 1234 c 0,19,20
 -543 1234 -543 1234 -565 1210 c 1,21,22
 -502 1368 -502 1368 -405 1368 c 0,23,24
 -352 1368 -352 1368 -217 1200 c 128,-1,25
 -82 1032 -82 1032 -62 1032 c 0,26,27
 -45 1032 -45 1032 0 1062 c 1,0,1
EndSplineSet
Validated: 33
EndChar

StartChar: uniECC3
Encoding: 60611 60611 108
Width: 0
Flags: W
LayerCount: 2
Fore
SplineSet
-714 -446 m 1,0,1
 -884 -720 -884 -720 -986 -720 c 0,2,3
 -1026 -720 -1026 -720 -1055.5 -691 c 128,-1,4
 -1085 -662 -1085 -662 -1085 -622 c 0,5,6
 -1085 -449 -1085 -449 -653 -112 c 1,7,8
 -929 -369 -929 -369 -929 -479 c 0,9,10
 -929 -543 -929 -543 -864 -543 c 0,11,12
 -802 -543 -802 -543 -714 -446 c 1,0,1
EndSplineSet
Validated: 1
EndChar

StartChar: uniEDB0
Encoding: 60848 60848 109
Width: 0
Flags: W
LayerCount: 2
Fore
SplineSet
140 1062 m 1,0,1
 49 869 49 869 -6 871 c 0,2,3
 -49 873 -49 873 -83 921 c 2,4,-1
 -175 1051 l 1,5,-1
 -255 955 l 2,6,7
 -325 871 -325 871 -385 871 c 0,8,9
 -439 871 -439 871 -481 930 c 1,10,-1
 -391 1059 l 1,11,12
 -343 1016 -343 1016 -305 1016 c 0,13,14
 -291 1016 -291 1016 -214 1098 c 1,15,16
 -225 1115 -225 1115 -306 1206 c 0,17,18
 -330 1234 -330 1234 -376 1234 c 0,19,20
 -403 1234 -403 1234 -425 1210 c 1,21,22
 -362 1368 -362 1368 -265 1368 c 0,23,24
 -212 1368 -212 1368 -77 1200 c 128,-1,25
 58 1032 58 1032 78 1032 c 0,26,27
 95 1032 95 1032 140 1062 c 1,0,1
EndSplineSet
Validated: 33
EndChar

StartChar: uniECC2
Encoding: 60610 60610 110
Width: 0
Flags: W
LayerCount: 2
Fore
SplineSet
-365 -469 m 1,0,1
 -426 -565 -426 -565 -475 -628 c 0,2,3
 -508 -670 -508 -670 -563 -670 c 0,4,5
 -645 -670 -645 -670 -645 -582 c 0,6,7
 -645 -491 -645 -491 -537 -324 c 0,8,9
 -521 -298 -521 -298 -364 -82 c 1,10,11
 -545 -373 -545 -373 -545 -470 c 0,12,13
 -545 -518 -545 -518 -496 -518 c 0,14,15
 -429 -518 -429 -518 -365 -469 c 1,0,1
EndSplineSet
Validated: 1
EndChar

StartChar: uniECC0
Encoding: 60608 60608 111
Width: 0
Flags: W
LayerCount: 2
Fore
SplineSet
-115 -469 m 1,0,1
 -176 -565 -176 -565 -225 -628 c 0,2,3
 -258 -670 -258 -670 -313 -670 c 0,4,5
 -391 -670 -391 -670 -391 -585 c 0,6,7
 -391 -433 -391 -433 -124 -82 c 1,8,9
 -295 -410 -295 -410 -295 -470 c 0,10,11
 -295 -518 -295 -518 -246 -518 c 0,12,13
 -179 -518 -179 -518 -115 -469 c 1,0,1
EndSplineSet
Validated: 1
EndChar

StartChar: uniED52
Encoding: 60754 60754 112
Width: 0
Flags: W
LayerCount: 2
Fore
SplineSet
-284 1135 m 0,0,1
 -269 1099 -269 1099 -545 746 c 1,2,-1
 -408 980 l 2,3,4
 -402 991 -402 991 -503 991 c 2,5,-1
 -704 991 l 2,6,7
 -768 991 -768 991 -768 1083 c 0,8,9
 -768 1123 -768 1123 -606 1350 c 1,10,11
 -652 1244 -652 1244 -652 1224 c 0,12,13
 -652 1164 -652 1164 -565 1164 c 0,14,15
 -535 1164 -535 1164 -474 1171.5 c 128,-1,16
 -413 1179 -413 1179 -383 1179 c 0,17,18
 -303 1179 -303 1179 -284 1135 c 0,0,1
EndSplineSet
Validated: 33
EndChar

StartChar: uniED53
Encoding: 60755 60755 113
Width: 0
Flags: W
LayerCount: 2
Fore
SplineSet
-287 1135 m 0,0,1
 -272 1099 -272 1099 -568 726 c 1,2,-1
 -411 980 l 2,3,4
 -404 991 -404 991 -506 991 c 2,5,-1
 -937 991 l 2,6,7
 -1001 991 -1001 991 -1001 1083 c 0,8,9
 -1001 1123 -1001 1123 -839 1350 c 1,10,11
 -885 1244 -885 1244 -885 1224 c 0,12,13
 -885 1164 -885 1164 -736 1164 c 0,14,15
 -686 1164 -686 1164 -585 1171.5 c 128,-1,16
 -484 1179 -484 1179 -434 1179 c 0,17,18
 -306 1179 -306 1179 -287 1135 c 0,0,1
EndSplineSet
Validated: 33
EndChar

StartChar: uniED51
Encoding: 60753 60753 114
Width: 0
Flags: W
LayerCount: 2
Fore
SplineSet
-131 1135 m 0,0,1
 -116 1099 -116 1099 -392 746 c 1,2,-1
 -255 980 l 2,3,4
 -249 991 -249 991 -350 991 c 2,5,-1
 -581 991 l 2,6,7
 -645 991 -645 991 -645 1083 c 0,8,9
 -645 1123 -645 1123 -483 1350 c 1,10,11
 -529 1244 -529 1244 -529 1224 c 0,12,13
 -529 1164 -529 1164 -434 1164 c 0,14,15
 -401 1164 -401 1164 -335 1171.5 c 128,-1,16
 -269 1179 -269 1179 -236 1179 c 0,17,18
 -150 1179 -150 1179 -131 1135 c 0,0,1
EndSplineSet
Validated: 33
EndChar

StartChar: uniED50
Encoding: 60752 60752 115
Width: 0
Flags: W
LayerCount: 2
Fore
SplineSet
0 1052 m 0,0,1
 0 1034 0 1034 -184 767 c 1,2,-1
 -125 893 l 2,3,4
 -118 908 -118 908 -229 908 c 2,5,-1
 -349 908 l 2,6,7
 -414 908 -414 908 -414 1000 c 0,8,9
 -414 1040 -414 1040 -262 1247 c 1,10,11
 -297 1162 -297 1162 -297 1141 c 0,12,13
 -297 1073 -297 1073 -194 1073 c 0,14,15
 -171 1073 -171 1073 -125 1077.5 c 128,-1,16
 -79 1082 -79 1082 -56 1082 c 0,17,18
 0 1082 0 1082 0 1052 c 0,0,1
EndSplineSet
Validated: 33
EndChar

StartChar: uni60ED
Encoding: 24813 24813 116
Width: 0
Flags: W
LayerCount: 2
Fore
SplineSet
-1071 -583 m 1,0,-1
 -117 -583 l 1,1,-1
 -220 -717 l 1,2,-1
 -1173 -717 l 1,3,-1
 -1071 -583 l 1,0,-1
EndSplineSet
Validated: 1
EndChar

StartChar: uni60EC
Encoding: 24812 24812 117
Width: 0
Flags: W
LayerCount: 2
Fore
SplineSet
-1071 1331 m 1,0,-1
 -117 1331 l 1,1,-1
 -220 1197 l 1,2,-1
 -1173 1197 l 1,3,-1
 -1071 1331 l 1,0,-1
EndSplineSet
Validated: 1
EndChar

StartChar: uni60EE
Encoding: 24814 24814 118
Width: 0
Flags: W
LayerCount: 2
Fore
SplineSet
-600 1331 m 1,0,-1
 -117 1331 l 1,1,-1
 -220 1197 l 1,2,-1
 -702 1197 l 1,3,-1
 -600 1331 l 1,0,-1
EndSplineSet
Validated: 1
EndChar

StartChar: uni60EF
Encoding: 24815 24815 119
Width: 0
Flags: W
LayerCount: 2
Fore
SplineSet
-600 -583 m 1,0,-1
 -117 -583 l 1,1,-1
 -220 -717 l 1,2,-1
 -702 -717 l 1,3,-1
 -600 -583 l 1,0,-1
EndSplineSet
Validated: 1
EndChar

StartChar: uniE071
Encoding: 57457 57457 120
Width: 768
Flags: W
LayerCount: 2
Fore
SplineSet
103 491 m 2,0,1
 31 491 31 491 0 473 c 1,2,3
 92 680 92 680 156 680 c 2,4,-1
 698 682 l 1,5,6
 673 618 673 618 606 497 c 1,7,-1
 269 493 l 1,8,9
 268 438 268 438 268 324 c 0,10,11
 268 190 268 190 416 190 c 0,12,13
 501 190 501 190 566 263 c 1,14,15
 418 0 418 0 321 0 c 0,16,17
 138 0 138 0 133 210 c 0,18,19
 131 291 131 291 133 491 c 1,20,-1
 103 491 l 2,0,1
EndSplineSet
Validated: 33
EndChar

StartChar: uniE073
Encoding: 57459 57459 121
Width: 1382
Flags: W
LayerCount: 2
Fore
SplineSet
269 493 m 1,0,1
 268 438 268 438 268 324 c 0,2,3
 268 190 268 190 416 190 c 0,4,5
 451 190 451 190 483 203 c 1,6,7
 482 238 482 238 482 310 c 0,8,9
 482 381 482 381 483 491 c 1,10,11
 412 493 412 493 269 493 c 1,0,1
1382 682 m 1,12,13
 1357 618 1357 618 1290 497 c 1,14,-1
 969 493 l 1,15,16
 968 438 968 438 968 324 c 0,17,18
 968 190 968 190 1116 190 c 0,19,20
 1201 190 1201 190 1266 263 c 1,21,22
 1118 0 1118 0 1021 0 c 0,23,24
 871 0 871 0 840 141 c 1,25,26
 742 0 742 0 671 0 c 0,27,28
 521 0 521 0 490 141 c 1,29,30
 392 0 392 0 321 0 c 0,31,32
 138 0 138 0 133 210 c 0,33,34
 131 291 131 291 133 491 c 1,35,-1
 103 491 l 2,36,37
 31 491 31 491 0 473 c 1,38,39
 92 680 92 680 156 680 c 2,40,-1
 1382 682 l 1,12,13
619 493 m 1,41,42
 618 438 618 438 618 324 c 0,43,44
 618 190 618 190 766 190 c 0,45,46
 801 190 801 190 833 203 c 1,47,48
 832 238 832 238 832 310 c 0,49,50
 832 381 832 381 833 491 c 1,51,52
 762 493 762 493 619 493 c 1,41,42
EndSplineSet
Validated: 33
EndChar

StartChar: uniE072
Encoding: 57458 57458 122
Width: 1078
Flags: W
LayerCount: 2
Fore
SplineSet
1078 682 m 1,0,1
 1053 618 1053 618 986 497 c 1,2,-1
 619 493 l 1,3,4
 618 438 618 438 618 324 c 0,5,6
 618 190 618 190 766 190 c 0,7,8
 851 190 851 190 916 263 c 1,9,10
 768 0 768 0 671 0 c 0,11,12
 521 0 521 0 490 141 c 1,13,14
 392 0 392 0 321 0 c 0,15,16
 138 0 138 0 133 210 c 0,17,18
 131 291 131 291 133 491 c 1,19,-1
 103 491 l 2,20,21
 31 491 31 491 0 473 c 1,22,23
 92 680 92 680 156 680 c 2,24,-1
 1078 682 l 1,0,1
269 493 m 1,25,26
 268 438 268 438 268 324 c 0,27,28
 268 190 268 190 416 190 c 0,29,30
 451 190 451 190 483 203 c 1,31,32
 482 238 482 238 482 310 c 0,33,34
 482 381 482 381 483 491 c 1,35,36
 412 493 412 493 269 493 c 1,25,26
EndSplineSet
Validated: 33
EndChar

StartChar: uniE074
Encoding: 57460 57460 123
Width: 798
Flags: W
LayerCount: 2
Fore
SplineSet
112 -589 m 0,0,1
 20 -509 20 -509 20 -350 c 0,2,3
 20 -287 20 -287 38.5 -163 c 128,-1,4
 57 -39 57 -39 57 10 c 2,5,-1
 57 1048 l 2,6,7
 57 1116 57 1116 0 1160 c 1,8,9
 46 1213 46 1213 129 1313 c 1,10,11
 183 1270 183 1270 200 1130 c 1,12,-1
 200 160 l 2,13,14
 200 108 200 108 186 -27.5 c 128,-1,15
 172 -163 172 -163 172 -230 c 0,16,17
 172 -388 172 -388 234 -450 c 0,18,19
 318 -534 318 -534 491 -534 c 0,20,21
 517 -534 517 -534 585 -501.5 c 128,-1,22
 653 -469 653 -469 668 -449 c 1,23,24
 679 -355 679 -355 655 -295 c 1,25,26
 671 -268 671 -268 723 -184 c 1,27,28
 798 -199 798 -199 798 -295 c 0,29,30
 798 -410 798 -410 661 -554 c 128,-1,31
 524 -698 524 -698 408 -698 c 0,32,33
 238 -698 238 -698 112 -589 c 0,0,1
EndSplineSet
Validated: 33
EndChar

StartChar: uniE076
Encoding: 57462 57462 124
Width: 1379
Flags: W
LayerCount: 2
Fore
SplineSet
622 0 m 1,0,1
 439 0 439 0 434 210 c 0,2,3
 432 291 432 291 434 491 c 1,4,-1
 200 491 l 1,5,-1
 200 160 l 2,6,7
 200 105 200 105 182.5 -37 c 128,-1,8
 165 -179 165 -179 165 -248 c 0,9,10
 165 -392 165 -392 224 -450 c 0,11,12
 308 -534 308 -534 481 -534 c 0,13,14
 508 -534 508 -534 575.5 -506 c 128,-1,15
 643 -478 643 -478 658 -459 c 1,16,17
 658 -173 658 -173 643 -77 c 1,18,19
 632 -38 632 -38 622 0 c 1,0,1
1379 682 m 1,20,21
 1354 618 1354 618 1287 497 c 1,22,-1
 920 493 l 1,23,24
 919 438 919 438 919 324 c 0,25,26
 919 190 919 190 1067 190 c 0,27,28
 1152 190 1152 190 1217 263 c 1,29,30
 1069 0 1069 0 972 0 c 0,31,32
 822 0 822 0 791 141 c 1,33,34
 773 114 773 114 755 93 c 1,35,36
 767 26 767 26 778 -41 c 0,37,38
 788 -115 788 -115 788 -305 c 0,39,40
 788 -420 788 -420 651.5 -559 c 128,-1,41
 515 -698 515 -698 398 -698 c 0,42,43
 228 -698 228 -698 102 -589 c 0,44,45
 14 -513 14 -513 14 -364 c 0,46,47
 14 -298 14 -298 35.5 -170 c 128,-1,48
 57 -42 57 -42 57 9 c 2,49,-1
 57 1048 l 2,50,51
 57 1116 57 1116 0 1160 c 1,52,53
 46 1213 46 1213 129 1313 c 1,54,55
 183 1270 183 1270 200 1130 c 1,56,-1
 200 645 l 1,57,58
 231 680 231 680 257 680 c 2,59,-1
 1379 682 l 1,20,21
570 493 m 1,60,61
 569 438 569 438 569 324 c 0,62,63
 569 190 569 190 717 190 c 0,64,65
 752 190 752 190 784 203 c 1,66,67
 783 238 783 238 783 310 c 0,68,69
 783 381 783 381 784 491 c 1,70,71
 713 493 713 493 570 493 c 1,60,61
EndSplineSet
Validated: 33
EndChar

StartChar: uniE075
Encoding: 57461 57461 125
Width: 1050
Flags: W
LayerCount: 2
Fore
SplineSet
755 93 m 1,0,1
 769 28 769 28 783 -36 c 0,2,3
 798 -110 798 -110 798 -295 c 0,4,5
 798 -410 798 -410 661 -554 c 128,-1,6
 524 -698 524 -698 408 -698 c 0,7,8
 238 -698 238 -698 112 -589 c 0,9,10
 20 -509 20 -509 20 -350 c 0,11,12
 20 -287 20 -287 38.5 -163 c 128,-1,13
 57 -39 57 -39 57 10 c 2,14,-1
 57 1048 l 2,15,16
 57 1116 57 1116 0 1160 c 1,17,18
 46 1213 46 1213 129 1313 c 1,19,20
 183 1270 183 1270 200 1130 c 1,21,-1
 200 645 l 1,22,23
 231 680 231 680 257 680 c 2,24,-1
 999 682 l 1,25,26
 974 618 974 618 907 497 c 1,27,-1
 570 493 l 1,28,29
 569 438 569 438 569 324 c 0,30,31
 569 190 569 190 717 190 c 0,32,33
 802 190 802 190 867 263 c 1,34,35
 807 156 807 156 755 93 c 1,0,1
622 0 m 1,36,37
 439 0 439 0 434 210 c 0,38,39
 432 291 432 291 434 491 c 1,40,-1
 200 491 l 1,41,-1
 200 160 l 2,42,43
 200 108 200 108 186 -27.5 c 128,-1,44
 172 -163 172 -163 172 -230 c 0,45,46
 172 -388 172 -388 234 -450 c 0,47,48
 318 -534 318 -534 491 -534 c 0,49,50
 517 -534 517 -534 585 -501.5 c 128,-1,51
 653 -469 653 -469 668 -449 c 1,52,53
 668 -164 668 -164 648 -72 c 1,54,55
 635 -36 635 -36 622 0 c 1,36,37
EndSplineSet
Validated: 33
EndChar

StartChar: uniE07A
Encoding: 57466 57466 126
Width: 768
Flags: W
LayerCount: 2
Fore
SplineSet
248 0 m 0,0,1
 154 0 154 0 77 79.5 c 128,-1,2
 0 159 0 159 0 252 c 0,3,4
 0 319 0 319 48 389 c 0,5,6
 52 395 52 395 142 504 c 1,7,8
 142 489 142 489 129 451.5 c 128,-1,9
 116 414 116 414 116 403 c 0,10,11
 116 316 116 316 205 248 c 0,12,13
 289 184 289 184 379 184 c 0,14,15
 437 184 437 184 482 235 c 0,16,17
 525 283 525 283 525 341 c 0,18,19
 525 467 525 467 166 1195 c 1,20,21
 166 1223 166 1223 215 1284.5 c 128,-1,22
 264 1346 264 1346 292 1346 c 1,23,24
 661 605 661 605 661 472 c 0,25,26
 661 404 661 404 602 258 c 1,27,-1
 458 78 l 1,28,29
 381 0 381 0 248 0 c 0,0,1
EndSplineSet
Validated: 1
EndChar

StartChar: uniE079
Encoding: 57465 57465 127
Width: 1748
Flags: W
LayerCount: 2
Fore
SplineSet
1163 190 m 1,0,-1
 1570 190 l 1,1,2
 1591 219 1591 219 1591 270 c 0,3,4
 1591 353 1591 353 1536 426 c 0,5,6
 1476 505 1476 505 1395 505 c 0,7,8
 1338 505 1338 505 1260 447 c 1,9,10
 1261 438 1261 438 1261 428 c 0,11,12
 1261 333 1261 333 1163 190 c 1,0,-1
737 412 m 1,13,-1
 737 186 l 1,14,-1
 1088 190 l 1,15,16
 1108 219 1108 219 1108 270 c 0,17,18
 1108 354 1108 354 1053 426 c 0,19,20
 994 505 994 505 913 505 c 0,21,22
 837 505 837 505 737 412 c 1,13,-1
398 -545 m 0,23,24
 478 -545 478 -545 540 -493 c 0,25,26
 611 -434 611 -434 611 -337 c 0,27,28
 611 -272 611 -272 602.5 -153 c 128,-1,29
 594 -34 594 -34 594 0 c 2,30,-1
 594 1048 l 2,31,32
 594 1116 594 1116 537 1160 c 1,33,34
 583 1213 583 1213 666 1313 c 1,35,36
 720 1270 720 1270 737 1130 c 1,37,-1
 737 511 l 1,38,39
 879 656 879 656 1030 656 c 0,40,41
 1161 656 1161 656 1233 526 c 1,42,43
 1368 656 1368 656 1512 656 c 0,44,45
 1599 656 1599 656 1671 587.5 c 128,-1,46
 1743 519 1743 519 1743 432 c 0,47,48
 1743 333 1743 333 1645 190 c 1,49,50
 1690 190 1690 190 1748 215 c 0,51,52
 1749 213 1749 213 1749 211 c 0,53,54
 1749 157 1749 157 1616 0 c 1,55,-1
 737 0 l 1,56,57
 737 -686 737 -686 260 -698 c 0,58,59
 144 -701 144 -701 72 -627 c 128,-1,60
 0 -553 0 -553 0 -438 c 1,61,62
 79 -312 79 -312 129 -285 c 1,63,64
 170 -545 170 -545 398 -545 c 0,23,24
EndSplineSet
Validated: 33
EndChar

StartChar: uniE07B
Encoding: 57467 57467 128
Width: 768
Flags: W
LayerCount: 2
Fore
SplineSet
520 156 m 1,0,1
 661 -154 661 -154 661 -246 c 0,2,3
 661 -314 661 -314 602 -460 c 1,4,-1
 458 -640 l 1,5,6
 381 -718 381 -718 248 -718 c 0,7,8
 154 -718 154 -718 77 -638.5 c 128,-1,9
 0 -559 0 -559 0 -466 c 0,10,11
 0 -399 0 -399 48 -329 c 0,12,13
 52 -323 52 -323 142 -214 c 1,14,15
 142 -229 142 -229 129 -266.5 c 128,-1,16
 116 -304 116 -304 116 -315 c 0,17,18
 116 -402 116 -402 205 -470 c 0,19,20
 289 -534 289 -534 379 -534 c 0,21,22
 437 -534 437 -534 482 -483 c 0,23,24
 525 -435 525 -435 525 -377 c 0,25,26
 525 -287 525 -287 382 27 c 1,27,28
 319 0 319 0 248 0 c 0,29,30
 154 0 154 0 77 79.5 c 128,-1,31
 0 159 0 159 0 252 c 0,32,33
 0 319 0 319 48 389 c 0,34,35
 52 395 52 395 142 504 c 1,36,37
 142 489 142 489 129 451.5 c 128,-1,38
 116 414 116 414 116 403 c 0,39,40
 116 316 116 316 205 248 c 0,41,42
 289 184 289 184 379 184 c 0,43,44
 437 184 437 184 482 235 c 0,45,46
 525 283 525 283 525 341 c 0,47,48
 525 467 525 467 166 1195 c 1,49,50
 166 1223 166 1223 215 1284.5 c 128,-1,51
 264 1346 264 1346 292 1346 c 1,52,53
 661 605 661 605 661 472 c 0,54,55
 661 404 661 404 602 258 c 1,56,-1
 520 156 l 1,0,1
EndSplineSet
Validated: 1
EndChar

StartChar: uniED63
Encoding: 60771 60771 129
Width: 0
Flags: W
LayerCount: 2
Fore
SplineSet
-761 -224 m 2,0,1
 -761 -80 l 1,2,-1
 -619 -30 l 1,3,-1
 -619 -452 l 2,4,5
 -619 -600 -619 -600 -788 -638 c 1,6,7
 -761 -436 -761 -436 -761 -224 c 2,0,1
EndSplineSet
Validated: 1
EndChar

StartChar: uniED30
Encoding: 60720 60720 130
Width: 0
Flags: W
LayerCount: 2
Fore
SplineSet
0 -145 m 1,0,-1
 -281 -463 l 1,1,-1
 -25 -110 l 1,2,-1
 0 -145 l 1,0,-1
-40 -65 m 1,3,-1
 -321 -383 l 1,4,-1
 -65 -30 l 1,5,-1
 -40 -65 l 1,3,-1
EndSplineSet
Validated: 1
EndChar

StartChar: uniEC1F
Encoding: 60447 60447 131
Width: 0
Flags: W
LayerCount: 2
Fore
SplineSet
-312 296 m 1,0,1
 -464 100 -464 100 -582 100 c 0,2,3
 -634 100 -634 100 -735.5 128 c 128,-1,4
 -837 156 -837 156 -888 156 c 0,5,6
 -965 156 -965 156 -1023 101 c 1,7,8
 -879 288 -879 288 -747 288 c 0,9,10
 -702 288 -702 288 -614.5 265.5 c 128,-1,11
 -527 243 -527 243 -482 243 c 0,12,13
 -395 243 -395 243 -312 296 c 1,0,1
EndSplineSet
Validated: 1
EndChar

StartChar: uniEBDA
Encoding: 60378 60378 132
Width: 410
Flags: W
LayerCount: 2
Fore
SplineSet
354 483 m 1,0,1
 283 328 283 328 248 275 c 0,2,3
 165 149 165 149 76 149 c 0,4,5
 54 149 54 149 38.5 172 c 128,-1,6
 23 195 23 195 23 218 c 0,7,8
 23 250 23 250 92 370 c 1,9,10
 153 304 153 304 171 304 c 0,11,12
 232 304 232 304 232 333 c 0,13,14
 232 432 232 432 159 463 c 0,15,16
 115 482 115 482 0 482 c 2,17,-1
 -222 482 l 1,18,-1
 -88 672 l 1,19,-1
 72 672 l 2,20,21
 173 672 173 672 249 627 c 0,22,23
 337 576 337 576 354 483 c 1,0,1
EndSplineSet
Validated: 1
EndChar

StartChar: uniEBF8
Encoding: 60408 60408 133
Width: 600
Flags: W
LayerCount: 2
Fore
SplineSet
-466 -421 m 0,0,1
 -466 -460 -466 -460 -422 -489 c 0,2,3
 -382 -515 -382 -515 -341 -515 c 0,4,5
 -307 -515 -307 -515 -276 -500 c 0,6,7
 -166 -447 -166 -447 60 0 c 1,8,-1
 -392 0 l 1,9,-1
 -208 190 l 1,10,-1
 132 190 l 1,11,12
 260 461 260 461 482 461 c 0,13,14
 561 461 561 461 561 382 c 0,15,16
 561 272 561 272 464 125 c 0,17,18
 412 46 412 46 332 19 c 0,19,20
 275 0 275 0 162 0 c 1,21,22
 -21 -332 -21 -332 -39 -362 c 0,23,24
 -196 -626 -196 -626 -282 -677 c 0,25,26
 -317 -698 -317 -698 -370 -698 c 0,27,28
 -445 -698 -445 -698 -507 -658 c 0,29,30
 -577 -612 -577 -612 -577 -541 c 0,31,32
 -577 -436 -577 -436 -444 -335 c 1,33,34
 -444 -339 -444 -339 -455 -360 c 128,-1,35
 -466 -381 -466 -381 -466 -421 c 0,0,1
234 190 m 1,36,-1
 395 190 l 2,37,38
 432 190 432 190 432 227 c 0,39,40
 432 256 432 256 411 278.5 c 128,-1,41
 390 301 390 301 361 301 c 0,42,43
 297 301 297 301 234 190 c 1,36,-1
EndSplineSet
Validated: 1
EndChar

StartChar: uniE800
Encoding: 59392 59392 134
Width: 1240
Flags: W
LayerCount: 2
Fore
SplineSet
843 505 m 0,0,1
 767 505 767 505 667 412 c 1,2,-1
 667 -373 l 2,3,4
 667 -441 667 -441 703 -486 c 1,5,-1
 574 -638 l 1,6,7
 524 -559 524 -559 524 -475 c 2,8,-1
 524 144 l 1,9,10
 382 0 382 0 229 0 c 0,11,12
 143 0 143 0 71.5 69 c 128,-1,13
 0 138 0 138 0 224 c 0,14,15
 0 341 0 341 115 494 c 0,16,17
 236 656 236 656 348 656 c 0,18,19
 391 656 391 656 438 574 c 1,20,-1
 340 446 l 1,21,22
 280 495 280 495 233 495 c 0,23,24
 152 495 152 495 152 386 c 0,25,26
 152 303 152 303 207 230 c 0,27,28
 267 151 267 151 348 151 c 0,29,30
 421 151 421 151 524 243 c 1,31,-1
 524 1123 l 1,32,33
 585 1193 585 1193 613 1222 c 0,34,35
 665 1275 665 1275 713 1309 c 1,36,37
 667 1107 667 1107 667 895 c 2,38,-1
 667 511 l 1,39,40
 742 587 742 587 798 618 c 0,41,42
 869 656 869 656 962 656 c 0,43,44
 1047 656 1047 656 1119 586.5 c 128,-1,45
 1191 517 1191 517 1191 432 c 0,46,47
 1191 317 1191 317 1075 163 c 0,48,49
 953 0 953 0 843 0 c 0,50,51
 800 0 800 0 753 82 c 1,52,-1
 851 210 l 1,53,54
 911 160 911 160 957 160 c 0,55,56
 1038 160 1038 160 1038 270 c 0,57,58
 1038 354 1038 354 983 426 c 0,59,60
 924 505 924 505 843 505 c 0,0,1
EndSplineSet
Validated: 1
EndChar

StartChar: uniE03C
Encoding: 57404 57404 135
Width: 768
Flags: W
LayerCount: 2
Fore
SplineSet
13 -368 m 1,0,1
 57 -171 57 -171 57 36 c 2,2,-1
 57 1048 l 2,3,4
 57 1116 57 1116 0 1160 c 1,5,6
 46 1213 46 1213 129 1313 c 1,7,8
 183 1270 183 1270 200 1130 c 1,9,-1
 200 511 l 1,10,11
 357 662 357 662 500 662 c 0,12,13
 658 662 658 662 658 555 c 0,14,15
 658 437 658 437 431 160 c 0,16,17
 287 -16 287 -16 253 -61 c 0,18,19
 130 -229 130 -229 130 -297 c 0,20,21
 130 -356 130 -356 166.5 -396.5 c 128,-1,22
 203 -437 203 -437 262 -437 c 0,23,24
 289 -437 289 -437 349 -410 c 1,25,26
 319 -462 319 -462 271 -537 c 1,27,28
 213 -608 213 -608 162 -608 c 0,29,30
 89 -608 89 -608 44.5 -558 c 128,-1,31
 0 -508 0 -508 0 -435 c 0,32,33
 0 -407 0 -407 13 -368 c 1,0,1
200 429 m 1,34,-1
 200 -58 l 1,35,36
 292 68 292 68 385 194 c 1,37,38
 519 390 519 390 509 448 c 1,39,40
 463 498 463 498 392 498 c 0,41,42
 308 498 308 498 200 429 c 1,34,-1
EndSplineSet
Validated: 33
EndChar

StartChar: uni60B6
Encoding: 24758 24758 136
Width: 1260
Flags: W
LayerCount: 2
Fore
SplineSet
1016 1368 m 1,0,1
 992 1300 992 1300 924 1175 c 1,2,-1
 919 1175 l 1,3,4
 911 1102 911 1102 911 947 c 2,5,-1
 911 -373 l 2,6,7
 911 -441 911 -441 948 -486 c 1,8,-1
 818 -638 l 1,9,10
 768 -559 768 -559 768 -475 c 2,11,-1
 768 1175 l 1,12,-1
 675 1175 l 1,13,14
 667 1102 667 1102 667 947 c 2,15,-1
 667 -373 l 2,16,17
 667 -441 667 -441 703 -486 c 1,18,-1
 574 -638 l 1,19,20
 524 -559 524 -559 524 -475 c 2,21,-1
 524 830 l 1,22,23
 382 686 382 686 229 686 c 0,24,25
 143 686 143 686 71.5 755 c 128,-1,26
 0 824 0 824 0 910 c 0,27,28
 0 984 0 984 111 1176 c 128,-1,29
 222 1368 222 1368 270 1368 c 2,30,-1
 1016 1368 l 1,0,1
206 1177 m 1,31,32
 152 1158 152 1158 152 1072 c 0,33,34
 152 989 152 989 207 916 c 0,35,36
 267 837 267 837 348 837 c 0,37,38
 428 837 428 837 524 929 c 1,39,-1
 524 1175 l 1,40,41
 488 1175 488 1175 365 1177 c 0,42,43
 266 1178 266 1178 206 1177 c 1,31,32
EndSplineSet
Validated: 33
EndChar

StartChar: uniED90
Encoding: 60816 60816 137
Width: 0
Flags: W
LayerCount: 2
Fore
SplineSet
-400 880 m 1,0,-1
 -163 1143 l 1,1,-1
 8 972 l 1,2,-1
 -99 865 l 1,3,-1
 -230 997 l 1,4,-1
 -382 862 l 1,5,-1
 -400 880 l 1,0,-1
EndSplineSet
Validated: 1
EndChar

StartChar: uniE07C
Encoding: 57468 57468 138
Width: 768
Flags: W
LayerCount: 2
Fore
SplineSet
45 -447 m 1,0,-1
 420 14 l 1,1,2
 359 0 359 0 279 0 c 0,3,4
 198 0 198 0 114 79 c 128,-1,5
 30 158 30 158 30 238 c 0,6,7
 30 392 30 392 148 524 c 0,8,9
 270 659 270 659 422 659 c 0,10,11
 513 659 513 659 609 603 c 0,12,13
 717 538 717 538 717 454 c 0,14,15
 717 266 717 266 559 89 c 2,16,-1
 85 -441 l 1,17,-1
 45 -447 l 1,0,-1
584 320 m 0,18,19
 584 396 584 396 461 443 c 0,20,21
 366 480 366 480 274 480 c 0,22,23
 202 480 202 480 145 428 c 1,24,25
 145 328 145 328 224 264 c 0,26,27
 297 203 297 203 399 203 c 0,28,29
 460 203 460 203 516 231 c 0,30,31
 584 265 584 265 584 320 c 0,18,19
EndSplineSet
Validated: 1
EndChar

StartChar: uniED70
Encoding: 60784 60784 139
Width: 0
Flags: W
LayerCount: 2
Fore
SplineSet
-100 -406 m 0,0,1
 -170 -492 -170 -492 -259 -492 c 0,2,3
 -327 -492 -327 -492 -368 -428 c 0,4,5
 -402 -375 -402 -375 -402 -328 c 0,6,7
 -402 -271 -402 -271 -347 -197 c 0,8,9
 -280 -109 -280 -109 -202 -109 c 0,10,11
 -152 -109 -152 -109 -102 -149 c 0,12,13
 -43 -195 -43 -195 -43 -264 c 0,14,15
 -43 -335 -43 -335 -100 -406 c 0,0,1
-123 -359 m 1,16,17
 -123 -298 -123 -298 -167 -248 c 0,18,19
 -207 -202 -207 -202 -256 -202 c 0,20,21
 -282 -202 -282 -202 -302 -221 c 0,22,23
 -318 -238 -318 -238 -318 -262 c 0,24,25
 -318 -308 -318 -308 -274 -353 c 0,26,27
 -236 -392 -236 -392 -192 -392 c 0,28,29
 -154 -392 -154 -392 -123 -359 c 1,16,17
EndSplineSet
Validated: 1
EndChar

StartChar: uniED72
Encoding: 60786 60786 140
Width: 0
Flags: W
LayerCount: 2
Fore
SplineSet
-302 -406 m 0,0,1
 -371 -492 -371 -492 -461 -492 c 0,2,3
 -528 -492 -528 -492 -569 -428 c 0,4,5
 -604 -375 -604 -375 -604 -328 c 0,6,7
 -604 -271 -604 -271 -548 -197 c 0,8,9
 -482 -109 -482 -109 -404 -109 c 0,10,11
 -353 -109 -353 -109 -303 -149 c 0,12,13
 -244 -195 -244 -195 -244 -264 c 0,14,15
 -244 -335 -244 -335 -302 -406 c 0,0,1
-325 -359 m 1,16,17
 -325 -298 -325 -298 -369 -248 c 0,18,19
 -409 -202 -409 -202 -457 -202 c 0,20,21
 -484 -202 -484 -202 -502 -220 c 128,-1,22
 -520 -238 -520 -238 -520 -262 c 0,23,24
 -520 -308 -520 -308 -476 -353 c 0,25,26
 -438 -392 -438 -392 -394 -392 c 0,27,28
 -355 -392 -355 -392 -325 -359 c 1,16,17
EndSplineSet
Validated: 1
EndChar

StartChar: uniED4F
Encoding: 60751 60751 141
Width: 0
Flags: W
LayerCount: 2
Fore
SplineSet
-669 -28 m 1,0,-1
 -562 79 l 1,1,-1
 -483 0 l 1,2,-1
 -590 -107 l 1,3,-1
 -669 -28 l 1,0,-1
-922 -31 m 1,4,-1
 -815 76 l 1,5,-1
 -736 -3 l 1,6,-1
 -843 -110 l 1,7,-1
 -922 -31 l 1,4,-1
EndSplineSet
Validated: 1
EndChar

StartChar: uniED71
Encoding: 60785 60785 142
Width: 0
Flags: W
LayerCount: 2
Fore
SplineSet
-202 -406 m 0,0,1
 -271 -492 -271 -492 -361 -492 c 0,2,3
 -428 -492 -428 -492 -469 -428 c 0,4,5
 -504 -375 -504 -375 -504 -328 c 0,6,7
 -504 -271 -504 -271 -448 -197 c 0,8,9
 -382 -109 -382 -109 -304 -109 c 0,10,11
 -253 -109 -253 -109 -203 -149 c 0,12,13
 -144 -195 -144 -195 -144 -264 c 0,14,15
 -144 -335 -144 -335 -202 -406 c 0,0,1
-225 -359 m 1,16,17
 -225 -298 -225 -298 -269 -248 c 0,18,19
 -309 -202 -309 -202 -357 -202 c 0,20,21
 -384 -202 -384 -202 -402 -220 c 128,-1,22
 -420 -238 -420 -238 -420 -262 c 0,23,24
 -420 -308 -420 -308 -376 -353 c 0,25,26
 -338 -392 -338 -392 -294 -392 c 0,27,28
 -255 -392 -255 -392 -225 -359 c 1,16,17
EndSplineSet
Validated: 1
EndChar

StartChar: uniEBEA
Encoding: 60394 60394 143
Width: 410
Flags: W
LayerCount: 2
Fore
SplineSet
-222 482 m 1,0,-1
 -88 672 l 1,1,-1
 163 672 l 2,2,3
 228 672 228 672 228 733 c 0,4,5
 228 765 228 765 206.5 791 c 128,-1,6
 185 817 185 817 152 817 c 0,7,8
 97 817 97 817 40 732 c 1,9,10
 113 888 113 888 158 929 c 0,11,12
 195 963 195 963 270 963 c 0,13,14
 357 963 357 963 357 885 c 0,15,16
 357 828 357 828 252 636 c 0,17,18
 168 482 168 482 64 482 c 2,19,-1
 -222 482 l 1,0,-1
EndSplineSet
Validated: 1
EndChar

StartChar: uniEDA3
Encoding: 60835 60835 144
Width: 0
Flags: W
LayerCount: 2
Fore
SplineSet
-433 1146 m 1,0,-1
 -670 862 l 1,1,-1
 -861 1053 l 1,2,-1
 -754 1160 l 1,3,-1
 -604 1010 l 1,4,-1
 -451 1163 l 1,5,-1
 -433 1146 l 1,0,-1
EndSplineSet
Validated: 1
EndChar

StartChar: quoteleft
Encoding: 8216 8216 145
Width: 240
Flags: W
LayerCount: 2
Fore
SplineSet
230 1143 m 1,0,1
 142 1066 142 1066 142 980 c 0,2,3
 142 899 142 899 230 840 c 1,4,-1
 85 666 l 1,5,6
 11 710 11 710 11 807 c 0,7,8
 11 903 11 903 76.5 1004 c 128,-1,9
 142 1105 142 1105 230 1143 c 1,0,1
EndSplineSet
Validated: 1
EndChar

StartChar: uniEBF9
Encoding: 60409 60409 146
Width: 700
Flags: W
LayerCount: 2
Fore
SplineSet
-153 -577 m 0,0,1
 -120 -577 -120 -577 -89 -565 c 0,2,3
 -6 -533 -6 -533 158 -74 c 1,4,-1
 -363 -74 l 1,5,-1
 -269 64 l 1,6,-1
 211 64 l 1,7,8
 305 345 305 345 521 345 c 0,9,10
 617 345 617 345 617 240 c 0,11,12
 617 109 617 109 547 20 c 0,13,14
 471 -77 471 -77 344 -75 c 2,15,-1
 260 -74 l 1,16,17
 196 -261 196 -261 110 -438 c 0,18,19
 -12 -687 -12 -687 -105 -742 c 0,20,21
 -144 -765 -144 -765 -198 -765 c 0,22,23
 -271 -765 -271 -765 -327 -728 c 0,24,25
 -390 -686 -390 -686 -390 -616 c 0,26,27
 -390 -542 -390 -542 -287 -400 c 1,28,29
 -294 -480 -294 -480 -284 -505 c 0,30,31
 -254 -577 -254 -577 -153 -577 c 0,0,1
313 64 m 1,32,-1
 474 64 l 2,33,34
 507 64 507 64 507 102 c 0,35,36
 507 137 507 137 483 170.5 c 128,-1,37
 459 204 459 204 426 204 c 0,38,39
 362 204 362 204 313 64 c 1,32,-1
EndSplineSet
Validated: 33
EndChar

StartChar: uniED83
Encoding: 60803 60803 147
Width: 0
Flags: W
LayerCount: 2
Fore
SplineSet
-526 969 m 1,0,-1
 -633 862 l 1,1,-1
 -712 941 l 1,2,-1
 -605 1048 l 1,3,-1
 -526 969 l 1,0,-1
-666 1140 m 1,4,-1
 -773 1033 l 1,5,-1
 -852 1112 l 1,6,-1
 -745 1219 l 1,7,-1
 -666 1140 l 1,4,-1
-373 1143 m 1,8,-1
 -480 1036 l 1,9,-1
 -559 1115 l 1,10,-1
 -452 1222 l 1,11,-1
 -373 1143 l 1,8,-1
EndSplineSet
Validated: 1
EndChar

StartChar: uni60BA
Encoding: 24762 24762 148
Width: 410
Flags: W
LayerCount: 2
Fore
SplineSet
61 59 m 1,0,-1
 168 166 l 1,1,-1
 247 87 l 1,2,-1
 140 -20 l 1,3,-1
 61 59 l 1,0,-1
EndSplineSet
Validated: 1
EndChar

StartChar: uniECC1
Encoding: 60609 60609 149
Width: 0
Flags: W
LayerCount: 2
Fore
SplineSet
-297 -430 m 1,0,1
 -426 -644 -426 -644 -519 -644 c 0,2,3
 -552 -644 -552 -644 -574.5 -621 c 128,-1,4
 -597 -598 -597 -598 -597 -564 c 0,5,6
 -597 -425 -597 -425 -254 -82 c 1,7,8
 -461 -336 -461 -336 -461 -433 c 0,9,10
 -461 -485 -461 -485 -402 -485 c 0,11,12
 -337 -485 -337 -485 -297 -430 c 1,0,1
EndSplineSet
Validated: 1
EndChar

StartChar: uniE078
Encoding: 57464 57464 150
Width: 1260
Flags: W
LayerCount: 2
Fore
SplineSet
737 412 m 1,0,-1
 737 190 l 1,1,-1
 1092 190 l 1,2,3
 1108 218 1108 218 1108 270 c 0,4,5
 1108 354 1108 354 1053 426 c 0,6,7
 994 505 994 505 913 505 c 0,8,9
 837 505 837 505 737 412 c 1,0,-1
398 -545 m 0,10,11
 478 -545 478 -545 540 -493 c 0,12,13
 611 -434 611 -434 611 -337 c 0,14,15
 611 -272 611 -272 602.5 -153 c 128,-1,16
 594 -34 594 -34 594 0 c 2,17,-1
 594 1048 l 2,18,19
 594 1116 594 1116 537 1160 c 1,20,21
 583 1213 583 1213 666 1313 c 1,22,23
 720 1270 720 1270 737 1130 c 1,24,-1
 737 511 l 1,25,26
 812 587 812 587 868 618 c 0,27,28
 939 656 939 656 1032 656 c 0,29,30
 1117 656 1117 656 1189 586.5 c 128,-1,31
 1261 517 1261 517 1261 432 c 0,32,33
 1261 329 1261 329 1168 190 c 1,34,35
 1199 191 1199 191 1260 215 c 1,36,37
 1266 165 1266 165 1127 0 c 1,38,-1
 737 0 l 1,39,40
 737 -686 737 -686 260 -698 c 0,41,42
 144 -701 144 -701 72 -627 c 128,-1,43
 0 -553 0 -553 0 -438 c 1,44,45
 79 -312 79 -312 129 -285 c 1,46,47
 170 -545 170 -545 398 -545 c 0,10,11
EndSplineSet
Validated: 33
EndChar

StartChar: uni60BF
Encoding: 24767 24767 151
Width: 768
Flags: W
LayerCount: 2
Fore
SplineSet
0 0 m 1,0,-1
 345 506 l 2,1,2
 531 779 531 779 531 873 c 0,3,4
 531 963 531 963 461.5 1029.5 c 128,-1,5
 392 1096 392 1096 302 1096 c 0,6,7
 275 1096 275 1096 239 1078 c 0,8,9
 197 1058 197 1058 197 1034 c 0,10,11
 197 993 197 993 233 946 c 0,12,13
 272 896 272 896 311 894 c 1,14,15
 192 734 192 734 174 734 c 0,16,17
 128 734 128 734 95 782 c 0,18,19
 64 825 64 825 64 873 c 0,20,21
 64 984 64 984 118 1070 c 0,22,23
 122 1075 122 1075 247 1229 c 0,24,25
 280 1270 280 1270 378 1270 c 0,26,27
 507 1270 507 1270 590.5 1195 c 128,-1,28
 674 1120 674 1120 674 992 c 0,29,30
 674 898 674 898 514 658 c 1,31,32
 397 495 397 495 281 333 c 1,33,34
 297 344 297 344 320 344 c 0,35,36
 372 344 372 344 509 262.5 c 128,-1,37
 646 181 646 181 680 181 c 0,38,39
 698 181 698 181 768 228 c 1,40,41
 633 0 633 0 589 0 c 0,42,43
 547 0 547 0 402.5 82.5 c 128,-1,44
 258 165 258 165 207 165 c 0,45,46
 178 165 178 165 161 148 c 2,47,-1
 44 30 l 2,48,49
 36 22 36 22 0 0 c 1,0,-1
EndSplineSet
Validated: 1
EndChar

StartChar: uniEBE0
Encoding: 60384 60384 152
Width: 610
Flags: W
LayerCount: 2
Fore
SplineSet
554 179 m 1,0,1
 483 24 483 24 448 -29 c 0,2,3
 365 -155 365 -155 276 -155 c 0,4,5
 254 -155 254 -155 238.5 -132 c 128,-1,6
 223 -109 223 -109 223 -86 c 0,7,8
 223 -54 223 -54 292 66 c 1,9,10
 353 0 353 0 371 0 c 0,11,12
 432 0 432 0 432 29 c 0,13,14
 432 109 432 109 405 142 c 0,15,16
 375 178 375 178 300 178 c 0,17,18
 254 178 254 178 162.5 89 c 128,-1,19
 71 0 71 0 0 0 c 2,20,-1
 -392 0 l 1,21,-1
 -208 190 l 1,22,-1
 0 190 l 2,23,24
 43 190 43 190 143.5 279 c 128,-1,25
 244 368 244 368 300 368 c 0,26,27
 520 368 520 368 554 179 c 1,0,1
EndSplineSet
Validated: 1
EndChar

StartChar: uniE069
Encoding: 57449 57449 153
Width: 768
Flags: W
LayerCount: 2
Fore
SplineSet
620 354 m 1,0,1
 499 158 499 158 380 158 c 0,2,3
 334 158 334 158 245.5 186 c 128,-1,4
 157 214 157 214 119 214 c 0,5,6
 58 214 58 214 0 159 c 1,7,8
 114 345 114 345 246 345 c 0,9,10
 284 345 284 345 356.5 323 c 128,-1,11
 429 301 429 301 467 301 c 0,12,13
 538 301 538 301 620 354 c 1,0,1
650 594 m 1,14,15
 529 398 529 398 410 398 c 0,16,17
 364 398 364 398 275.5 426 c 128,-1,18
 187 454 187 454 149 454 c 0,19,20
 88 454 88 454 30 399 c 1,21,22
 144 585 144 585 276 585 c 0,23,24
 314 585 314 585 386.5 563 c 128,-1,25
 459 541 459 541 497 541 c 0,26,27
 568 541 568 541 650 594 c 1,14,15
EndSplineSet
Validated: 1
EndChar

StartChar: uniED33
Encoding: 60723 60723 154
Width: 0
Flags: W
LayerCount: 2
Fore
SplineSet
-474 -90 m 1,0,-1
 -948 -644 l 1,1,-1
 -509 -40 l 1,2,-1
 -474 -90 l 1,0,-1
-634 -90 m 1,3,-1
 -1108 -644 l 1,4,-1
 -669 -40 l 1,5,-1
 -634 -90 l 1,3,-1
EndSplineSet
Validated: 1
EndChar

StartChar: uniE06A
Encoding: 57450 57450 155
Width: 592
Flags: W
LayerCount: 2
Fore
SplineSet
223 881 m 2,0,1
 106 768 l 1,2,3
 164 846 164 846 164 962 c 2,4,-1
 164 1151 l 2,5,6
 164 1167 164 1167 135 1167 c 0,7,8
 127 1167 127 1167 116 1166 c 1,9,-1
 284 1338 l 1,10,-1
 285 1110 l 2,11,12
 285 1022 285 1022 279 988 c 0,13,14
 267 923 267 923 223 881 c 2,0,1
422 911 m 2,15,16
 305 798 l 1,17,18
 363 876 363 876 363 992 c 2,19,-1
 363 1181 l 2,20,21
 363 1197 363 1197 334 1197 c 0,22,23
 326 1197 326 1197 315 1196 c 1,24,-1
 483 1368 l 1,25,-1
 484 1140 l 2,26,27
 484 1052 484 1052 478 1018 c 0,28,29
 466 953 466 953 422 911 c 2,15,16
EndSplineSet
Validated: 1
EndChar

StartChar: uniE06B
Encoding: 57451 57451 156
Width: 592
Flags: W
LayerCount: 2
Fore
SplineSet
223 -457 m 2,0,1
 106 -570 l 1,2,3
 164 -492 164 -492 164 -376 c 2,4,-1
 164 -187 l 2,5,6
 164 -171 164 -171 135 -171 c 0,7,8
 127 -171 127 -171 116 -172 c 1,9,-1
 284 0 l 1,10,-1
 285 -228 l 2,11,12
 285 -316 285 -316 279 -350 c 0,13,14
 267 -415 267 -415 223 -457 c 2,0,1
422 -427 m 2,15,16
 305 -540 l 1,17,18
 363 -462 363 -462 363 -346 c 2,19,-1
 363 -157 l 2,20,21
 363 -141 363 -141 334 -141 c 0,22,23
 326 -141 326 -141 315 -142 c 1,24,-1
 483 30 l 1,25,-1
 484 -198 l 2,26,27
 484 -286 484 -286 478 -320 c 0,28,29
 466 -385 466 -385 422 -427 c 2,15,16
EndSplineSet
Validated: 1
EndChar

StartChar: uniED31
Encoding: 60721 60721 157
Width: 0
Flags: W
LayerCount: 2
Fore
SplineSet
-166 -124 m 1,0,-1
 -542 -558 l 1,1,-1
 -194 -80 l 1,2,-1
 -166 -124 l 1,0,-1
-246 -84 m 1,3,-1
 -622 -518 l 1,4,-1
 -274 -40 l 1,5,-1
 -246 -84 l 1,3,-1
EndSplineSet
Validated: 1
EndChar

StartChar: uniE066
Encoding: 57446 57446 159
Width: 600
Flags: W
LayerCount: 2
Fore
SplineSet
195 301 m 1,0,-1
 195 156 l 1,1,2
 204 154 204 154 214 154 c 0,3,4
 266 154 266 154 318.5 197 c 128,-1,5
 371 240 371 240 371 291 c 0,6,7
 371 337 371 337 288 337 c 0,8,9
 227 337 227 337 195 301 c 1,0,-1
195 589 m 1,10,-1
 195 450 l 1,11,12
 259 459 259 459 313 494 c 0,13,14
 379 536 379 536 379 590 c 0,15,16
 379 619 379 619 352 639 c 128,-1,17
 325 659 325 659 295 659 c 0,18,19
 236 659 236 659 195 589 c 1,10,-1
195 -225 m 2,20,21
 195 -326 195 -326 6 -411 c 1,22,23
 52 -209 52 -209 52 3 c 2,24,-1
 52 616 l 2,25,26
 52 684 52 684 -5 729 c 1,27,28
 76 819 76 819 195 920 c 1,29,-1
 195 707 l 1,30,31
 313 833 313 833 398 833 c 0,32,33
 434 833 434 833 468.5 798.5 c 128,-1,34
 503 764 503 764 503 728 c 0,35,36
 503 663 503 663 398 514 c 1,37,38
 503 472 503 472 503 385 c 0,39,40
 503 340 503 340 400 195 c 0,41,42
 306 61 306 61 255 17 c 0,43,44
 239 3 239 3 195 0 c 1,45,-1
 195 -225 l 2,20,21
EndSplineSet
Validated: 1
EndChar

StartChar: uni60C3
Encoding: 24771 24771 160
Width: 410
Flags: W
LayerCount: 2
Fore
SplineSet
329 403 m 0,0,1
 329 296 329 296 244 162 c 0,2,3
 153 19 153 19 54 0 c 1,4,5
 174 123 174 123 174 253 c 0,6,7
 174 432 174 432 0 472 c 1,8,9
 15 516 15 516 145 646 c 1,10,11
 212 646 212 646 273 556 c 0,12,13
 329 474 329 474 329 403 c 0,0,1
EndSplineSet
Validated: 1
EndChar

StartChar: uniED02
Encoding: 60674 60674 161
Width: 0
Flags: W
LayerCount: 2
Fore
SplineSet
-706 941 m 1,0,-1
 -600 1048 l 1,1,-1
 -521 969 l 1,2,-1
 -627 862 l 1,3,-1
 -706 941 l 1,0,-1
-254 969 m 1,4,-1
 -361 862 l 1,5,-1
 -440 941 l 1,6,-1
 -333 1048 l 1,7,-1
 -254 969 l 1,4,-1
EndSplineSet
Validated: 1
EndChar

StartChar: uni6152
Encoding: 24914 24914 162
Width: 768
Flags: W
LayerCount: 2
Fore
SplineSet
157 1048 m 0,0,1
 157 1116 157 1116 100 1160 c 1,2,3
 146 1213 146 1213 229 1313 c 1,4,5
 283 1270 283 1270 300 1130 c 1,6,7
 300 996 300 996 296 727 c 128,-1,8
 292 458 292 458 292 324 c 256,9,10
 292 190 292 190 440 190 c 0,11,12
 525 190 525 190 590 263 c 1,13,14
 442 0 442 0 345 0 c 0,15,16
 162 0 162 0 157 210 c 1,17,18
 157 210 157 210 157 1048 c 0,0,1
EndSplineSet
Validated: 1
EndChar

StartChar: uni6153
Encoding: 24915 24915 163
Width: 1360
Flags: W
LayerCount: 2
Fore
SplineSet
532 492 m 1,0,-1
 200 491 l 1,1,-1
 200 469 l 2,2,3
 200 342 200 342 295.5 248.5 c 128,-1,4
 391 155 391 155 518 155 c 0,5,6
 534 155 534 155 570 165 c 1,7,8
 532 240 532 240 532 335 c 2,9,-1
 532 492 l 1,0,-1
968 494 m 1,10,11
 828 493 828 493 675 492 c 1,12,-1
 675 469 l 2,13,14
 675 342 675 342 770.5 248.5 c 128,-1,15
 866 155 866 155 993 155 c 0,16,17
 1108 155 1108 155 1108 270 c 0,18,19
 1108 336 1108 336 1067.5 403 c 128,-1,20
 1027 470 1027 470 968 494 c 1,10,11
1268 497 m 1,21,-1
 1248 497 l 1,22,23
 1260 463 1260 463 1260 363 c 0,24,25
 1260 247 1260 247 1144 115 c 0,26,27
 1025 -20 1025 -20 911 -20 c 0,28,29
 738 -20 738 -20 633 80 c 1,30,31
 528 -20 528 -20 435 -20 c 0,32,33
 267 -20 267 -20 164 73 c 0,34,35
 57 169 57 169 57 335 c 2,36,-1
 57 1048 l 2,37,38
 57 1116 57 1116 0 1160 c 1,39,40
 46 1213 46 1213 129 1313 c 1,41,42
 183 1270 183 1270 200 1130 c 1,43,-1
 200 680 l 1,44,-1
 1360 682 l 1,45,46
 1335 618 1335 618 1268 497 c 1,21,-1
EndSplineSet
Validated: 1
EndChar

StartChar: uniE802
Encoding: 59394 59394 164
Width: 1260
Flags: W
LayerCount: 2
Fore
SplineSet
1200 1313 m 1,0,1
 1154 1110 1154 1110 1154 899 c 2,2,-1
 1154 265 l 2,3,4
 1154 197 1154 197 1211 152 c 1,5,6
 1105 31 1105 31 1081 0 c 1,7,8
 1011 56 1011 56 1011 102 c 2,9,-1
 1011 144 l 1,10,11
 853 0 853 0 716 0 c 0,12,13
 585 0 585 0 513 133 c 1,14,15
 440 62 440 62 386 34 c 0,16,17
 319 0 319 0 229 0 c 0,18,19
 143 0 143 0 71.5 69 c 128,-1,20
 0 138 0 138 0 224 c 0,21,22
 0 467 0 467 327 762 c 0,23,24
 544 957 544 957 868 1146 c 0,25,26
 1154 1313 1154 1313 1200 1313 c 1,0,1
1011 1126 m 1,27,28
 952 1126 952 1126 747 1013 c 0,29,30
 528 893 528 893 374 755 c 0,31,32
 152 556 152 556 152 386 c 0,33,34
 152 303 152 303 207 230 c 0,35,36
 267 151 267 151 348 151 c 0,37,38
 406 151 406 151 488 214 c 1,39,-1
 488 224 l 2,40,41
 488 341 488 341 603 494 c 0,42,43
 723 656 723 656 835 656 c 0,44,45
 878 656 878 656 926 574 c 1,46,-1
 827 446 l 1,47,48
 768 495 768 495 721 495 c 0,49,50
 640 495 640 495 640 386 c 0,51,52
 640 302 640 302 695 230 c 0,53,54
 754 151 754 151 835 151 c 256,55,56
 916 151 916 151 1012 243 c 1,57,-1
 1011 1126 l 1,27,28
EndSplineSet
Validated: 1
EndChar

StartChar: uniE03E
Encoding: 57406 57406 165
Width: 768
Flags: W
LayerCount: 2
Fore
SplineSet
523 410 m 2,0,1
 523 454 523 454 496 491 c 1,2,-1
 133 491 l 2,3,4
 60 491 60 491 30 473 c 1,5,6
 123 680 123 680 186 680 c 2,7,-1
 665 682 l 1,8,-1
 665 0 l 2,9,10
 665 -315 665 -315 535 -495 c 0,11,12
 388 -698 388 -698 93 -698 c 0,13,14
 70 -698 70 -698 45 -675 c 128,-1,15
 20 -652 20 -652 20 -629 c 1,16,17
 42 -593 42 -593 109 -477 c 1,18,19
 202 -577 202 -577 294 -577 c 0,20,21
 406 -577 406 -577 470 -450 c 0,22,23
 523 -347 523 -347 523 -224 c 2,24,-1
 523 410 l 2,0,1
EndSplineSet
Validated: 1
EndChar

StartChar: uniECD1
Encoding: 60625 60625 166
Width: 0
Flags: W
LayerCount: 2
Fore
SplineSet
-525 -348 m 1,0,1
 -534 -369 -534 -369 -530 -398 c 0,2,3
 -523 -449 -523 -449 -486 -449 c 0,4,5
 -407 -449 -407 -449 -224 -82 c 1,6,7
 -272 -207 -272 -207 -312 -302 c 0,8,9
 -373 -448 -373 -448 -395 -489 c 0,10,11
 -471 -629 -471 -629 -534 -629 c 0,12,13
 -567 -629 -567 -629 -591 -602 c 128,-1,14
 -615 -575 -615 -575 -615 -542 c 0,15,16
 -615 -463 -615 -463 -525 -348 c 1,0,1
EndSplineSet
Validated: 1
EndChar

StartChar: uniECD0
Encoding: 60624 60624 167
Width: 0
Flags: W
LayerCount: 2
Fore
SplineSet
-266 -235 m 1,0,1
 -268 -340 -268 -340 -217 -352 c 0,2,3
 -165 -364 -165 -364 -124 -82 c 1,4,5
 -142 -262 -142 -262 -168 -464 c 1,6,7
 -192 -525 -192 -525 -245 -525 c 0,8,9
 -309 -525 -309 -525 -309 -439 c 0,10,11
 -309 -359 -309 -359 -266 -235 c 1,0,1
EndSplineSet
Validated: 33
EndChar

StartChar: uniECD3
Encoding: 60627 60627 168
Width: 0
Flags: W
LayerCount: 2
Fore
SplineSet
-1124 -495 m 0,0,1
 -1057 -405 -1057 -405 -964 -313 c 1,2,3
 -1026 -402 -1026 -402 -1026 -473 c 0,4,5
 -1026 -532 -1026 -532 -963 -532 c 0,6,7
 -855 -532 -855 -532 -653 -179 c 1,8,9
 -736 -358 -736 -358 -825 -494 c 0,10,11
 -972 -718 -972 -718 -1075 -718 c 0,12,13
 -1170 -718 -1170 -718 -1170 -626 c 0,14,15
 -1170 -557 -1170 -557 -1124 -495 c 0,0,1
EndSplineSet
Validated: 1
EndChar

StartChar: uniECD2
Encoding: 60626 60626 169
Width: 0
Flags: W
LayerCount: 2
Fore
SplineSet
-531 -275 m 1,0,1
 -544 -312 -544 -312 -544 -348 c 0,2,3
 -544 -418 -544 -418 -489 -418 c 0,4,5
 -413 -418 -413 -418 -294 -82 c 1,6,-1
 -381 -370 l 1,7,8
 -460 -585 -460 -585 -530 -585 c 0,9,10
 -604 -585 -604 -585 -604 -491 c 0,11,12
 -604 -410 -604 -410 -531 -275 c 1,0,1
EndSplineSet
Validated: 1
EndChar

StartChar: uniE077
Encoding: 57463 57463 170
Width: 798
Flags: W
LayerCount: 2
Fore
SplineSet
398 -545 m 0,0,1
 478 -545 478 -545 540 -493 c 0,2,3
 611 -434 611 -434 611 -337 c 0,4,5
 611 -272 611 -272 602.5 -153 c 128,-1,6
 594 -34 594 -34 594 0 c 2,7,-1
 594 1048 l 2,8,9
 594 1116 594 1116 537 1160 c 1,10,11
 583 1213 583 1213 666 1313 c 1,12,13
 720 1270 720 1270 737 1130 c 1,14,-1
 737 0 l 2,15,16
 737 -686 737 -686 260 -698 c 0,17,18
 255.480519481 -698.116883117 255.480519481 -698.116883117 251.027829314 -698.116883117 c 0,19,20
 141.194805195 -698.116883117 141.194805195 -698.116883117 72 -627 c 0,21,22
 0 -553 0 -553 0 -438 c 1,23,24
 79 -312 79 -312 129 -285 c 1,25,26
 170 -545 170 -545 398 -545 c 0,0,1
EndSplineSet
Validated: 1
EndChar

StartChar: uniED60
Encoding: 60768 60768 171
Width: 0
Flags: W
LayerCount: 2
Fore
SplineSet
-251 -224 m 2,0,1
 -251 -80 l 1,2,-1
 -109 -30 l 1,3,-1
 -109 -452 l 2,4,5
 -109 -600 -109 -600 -278 -638 c 1,6,7
 -251 -436 -251 -436 -251 -224 c 2,0,1
EndSplineSet
Validated: 1
EndChar

StartChar: uniECA0
Encoding: 60576 60576 172
Width: 0
Flags: W
LayerCount: 2
Fore
SplineSet
-405 -400 m 1,0,-1
 -124 -82 l 1,1,-1
 -380 -435 l 1,2,-1
 -405 -400 l 1,0,-1
EndSplineSet
Validated: 1
EndChar

StartChar: uni60A4
Encoding: 24740 24740 173
Width: 768
Flags: W
LayerCount: 2
Fore
SplineSet
391 393 m 256,1,2
 458 393 458 393 505 440 c 128,-1,3
 552 487 552 487 552 554 c 256,4,5
 552 621 552 621 505 668 c 128,-1,6
 458 715 458 715 391 715 c 256,7,8
 324 715 324 715 277 668 c 128,-1,9
 230 621 230 621 230 554 c 256,10,11
 230 487 230 487 277 440 c 128,-1,0
 324 393 324 393 391 393 c 256,1,2
518 710 m 1,12,-1
 561 753 l 1,13,-1
 590 724 l 1,14,-1
 547 681 l 1,15,16
 592 626 592 626 592 554 c 256,17,18
 592 482 592 482 547 427 c 1,19,-1
 590 384 l 1,20,-1
 561 355 l 1,21,-1
 519 398 l 1,22,23
 463 353 463 353 391 353 c 256,24,25
 319 353 319 353 264 398 c 1,26,-1
 221 355 l 1,27,-1
 192 384 l 1,28,-1
 235 427 l 1,29,30
 190 482 190 482 190 554 c 256,31,32
 190 626 190 626 235 682 c 1,33,-1
 192 725 l 1,34,-1
 221 753 l 1,35,-1
 264 710 l 1,36,37
 319 755 319 755 391 755 c 256,38,39
 463 755 463 755 518 710 c 1,12,-1
EndSplineSet
Validated: 1
EndChar

StartChar: uniECA1
Encoding: 60577 60577 174
Width: 0
Flags: W
LayerCount: 2
Fore
SplineSet
-530 -516 m 1,0,-1
 -154 -82 l 1,1,-1
 -502 -560 l 1,2,-1
 -530 -516 l 1,0,-1
EndSplineSet
Validated: 1
EndChar

StartChar: uniE067
Encoding: 57447 57447 175
Width: 592
Flags: W
LayerCount: 2
Fore
SplineSet
483 331 m 2,0,-1
 316 66 l 1,1,-1
 313 10 l 2,2,3
 311 -26 311 -26 170.5 -227.5 c 128,-1,4
 30 -429 30 -429 0 -438 c 1,5,6
 50 -326 50 -326 100 -214 c 1,7,8
 154 -77 154 -77 154 20 c 2,9,-1
 155 1083 l 2,10,11
 155 1122 155 1122 132 1122 c 0,12,13
 123 1122 123 1122 77 1103 c 1,14,-1
 279 1368 l 1,15,16
 316 1350 316 1350 316 1106 c 1,17,-1
 534 1368 l 1,18,-1
 535 640 l 2,19,20
 535 414 535 414 483 331 c 2,0,-1
414 572 m 2,21,-1
 414 1171 l 1,22,-1
 316 1062 l 1,23,-1
 316 128 l 1,24,25
 414 391 414 391 414 572 c 2,21,-1
EndSplineSet
Validated: 1
EndChar

StartChar: uni8021
Encoding: 32801 32801 176
Width: 778
Flags: W
LayerCount: 2
Fore
SplineSet
305 -211 m 1,0,-1
 407 13 l 1,1,2
 360 0 360 0 276 0 c 0,3,4
 157 0 157 0 78.5 80.5 c 128,-1,5
 0 161 0 161 0 281 c 0,6,7
 0 425 0 425 101 551 c 0,8,9
 208 686 208 686 348 686 c 0,10,11
 452 686 452 686 552 606 c 1,12,-1
 433 448 l 2,13,14
 429 448 429 448 357 486 c 128,-1,15
 285 524 285 524 248 524 c 0,16,17
 182 524 182 524 160 507 c 0,18,19
 133 485 133 485 133 419 c 0,20,21
 133 315 133 315 202 248 c 128,-1,22
 271 181 271 181 376 181 c 0,23,24
 539 181 539 181 611 309 c 1,25,26
 537 105 537 105 305 -211 c 1,0,-1
EndSplineSet
Validated: 1
EndChar

StartChar: uniED3F
Encoding: 60735 60735 177
Width: 0
Flags: W
LayerCount: 2
Fore
SplineSet
-407 334 m 1,0,-1
 -783 -100 l 1,1,-1
 -435 378 l 1,2,-1
 -407 334 l 1,0,-1
-527 334 m 1,3,-1
 -903 -100 l 1,4,-1
 -555 378 l 1,5,-1
 -527 334 l 1,3,-1
EndSplineSet
Validated: 1
EndChar

StartChar: uniED32
Encoding: 60722 60722 178
Width: 0
Flags: W
LayerCount: 2
Fore
SplineSet
-320 -124 m 1,0,-1
 -655 -538 l 1,1,-1
 -349 -80 l 1,2,-1
 -320 -124 l 1,0,-1
-400 -84 m 1,3,-1
 -735 -498 l 1,4,-1
 -429 -40 l 1,5,-1
 -400 -84 l 1,3,-1
EndSplineSet
Validated: 1
EndChar

StartChar: uniECA3
Encoding: 60579 60579 179
Width: 0
Flags: W
LayerCount: 2
Fore
SplineSet
-1087 -636 m 1,0,-1
 -613 -82 l 1,1,-1
 -1052 -686 l 1,2,-1
 -1087 -636 l 1,0,-1
EndSplineSet
Validated: 1
EndChar

StartChar: uniE068
Encoding: 57448 57448 180
Width: 1260
Flags: W
LayerCount: 2
Fore
SplineSet
1020 484 m 1,0,1
 873 291 873 291 629 291 c 0,2,3
 552 291 552 291 399 319.5 c 128,-1,4
 246 348 246 348 173 348 c 0,5,6
 62 348 62 348 0 289 c 1,7,8
 144 473 144 473 381 472 c 0,9,10
 451 472 451 472 593 450 c 128,-1,11
 735 428 735 428 807 428 c 0,12,13
 934 428 934 428 1020 484 c 1,0,1
EndSplineSet
Validated: 33
EndChar

StartChar: uniECB1
Encoding: 60593 60593 181
Width: 0
Flags: W
LayerCount: 2
Fore
SplineSet
-490 -369 m 1,0,-1
 -383 -262 l 1,1,-1
 -304 -341 l 1,2,-1
 -411 -448 l 1,3,-1
 -490 -369 l 1,0,-1
EndSplineSet
Validated: 1
EndChar

StartChar: uniE065
Encoding: 57445 57445 182
Width: 284
Flags: W
LayerCount: 2
Fore
SplineSet
219 295 m 0,0,1
 219 139 219 139 74 0 c 1,2,3
 105 114 105 114 105 137 c 0,4,5
 105 201 105 201 52.5 329 c 128,-1,6
 0 457 0 457 0 533 c 0,7,8
 0 590 0 590 61 688 c 0,9,10
 119 781 119 781 170 817 c 1,11,12
 153 790 153 790 133.5 733 c 128,-1,13
 114 676 114 676 114 647 c 0,14,15
 114 607 114 607 166.5 484.5 c 128,-1,16
 219 362 219 362 219 295 c 0,0,1
EndSplineSet
Validated: 1
EndChar

StartChar: uniECB0
Encoding: 60592 60592 183
Width: 0
Flags: W
LayerCount: 2
Fore
SplineSet
-101 -341 m 1,0,-1
 -208 -448 l 1,1,-1
 -287 -369 l 1,2,-1
 -180 -262 l 1,3,-1
 -101 -341 l 1,0,-1
EndSplineSet
Validated: 1
EndChar

StartChar: uniECB3
Encoding: 60595 60595 184
Width: 0
Flags: W
LayerCount: 2
Fore
SplineSet
-799 -369 m 1,0,-1
 -692 -262 l 1,1,-1
 -613 -341 l 1,2,-1
 -720 -448 l 1,3,-1
 -799 -369 l 1,0,-1
EndSplineSet
Validated: 1
EndChar

StartChar: uniED42
Encoding: 60738 60738 185
Width: 0
Flags: W
LayerCount: 2
Fore
SplineSet
-484 -348 m 1,0,-1
 -377 -241 l 1,1,-1
 -298 -320 l 1,2,-1
 -405 -427 l 1,3,-1
 -484 -348 l 1,0,-1
-716 -351 m 1,4,-1
 -610 -244 l 1,5,-1
 -531 -323 l 1,6,-1
 -637 -430 l 1,7,-1
 -716 -351 l 1,4,-1
EndSplineSet
Validated: 1
EndChar

StartChar: uniED41
Encoding: 60737 60737 186
Width: 0
Flags: W
LayerCount: 2
Fore
SplineSet
-301 -348 m 1,0,-1
 -194 -241 l 1,1,-1
 -115 -320 l 1,2,-1
 -222 -427 l 1,3,-1
 -301 -348 l 1,0,-1
-533 -351 m 1,4,-1
 -427 -244 l 1,5,-1
 -348 -323 l 1,6,-1
 -454 -430 l 1,7,-1
 -533 -351 l 1,4,-1
EndSplineSet
Validated: 1
EndChar

StartChar: uniED40
Encoding: 60736 60736 187
Width: 0
Flags: W
LayerCount: 2
Fore
SplineSet
-420 -351 m 1,0,-1
 -313 -244 l 1,1,-1
 -234 -323 l 1,2,-1
 -341 -430 l 1,3,-1
 -420 -351 l 1,0,-1
-188 -348 m 1,4,-1
 -81 -241 l 1,5,-1
 -2 -320 l 1,6,-1
 -109 -427 l 1,7,-1
 -188 -348 l 1,4,-1
EndSplineSet
Validated: 1
EndChar

StartChar: uniED43
Encoding: 60739 60739 188
Width: 0
Flags: W
LayerCount: 2
Fore
SplineSet
-649 -348 m 1,0,-1
 -542 -241 l 1,1,-1
 -463 -320 l 1,2,-1
 -570 -427 l 1,3,-1
 -649 -348 l 1,0,-1
-942 -351 m 1,4,-1
 -835 -244 l 1,5,-1
 -756 -323 l 1,6,-1
 -863 -430 l 1,7,-1
 -942 -351 l 1,4,-1
EndSplineSet
Validated: 1
EndChar

StartChar: uniEC90
Encoding: 60560 60560 189
Width: 0
Flags: W
LayerCount: 2
Fore
SplineSet
-310 -472 m 1,0,-1
 -204 -365 l 1,1,-1
 -125 -444 l 1,2,-1
 -231 -551 l 1,3,-1
 -310 -472 l 1,0,-1
-420 -301 m 1,4,-1
 -313 -194 l 1,5,-1
 -234 -273 l 1,6,-1
 -341 -380 l 1,7,-1
 -420 -301 l 1,4,-1
-188 -298 m 1,8,-1
 -81 -191 l 1,9,-1
 -2 -270 l 1,10,-1
 -109 -377 l 1,11,-1
 -188 -298 l 1,8,-1
EndSplineSet
Validated: 1
EndChar

StartChar: uniED03
Encoding: 60675 60675 190
Width: 0
Flags: W
LayerCount: 2
Fore
SplineSet
-579 944 m 1,0,-1
 -472 1051 l 1,1,-1
 -393 972 l 1,2,-1
 -500 865 l 1,3,-1
 -579 944 l 1,0,-1
-892 941 m 1,4,-1
 -785 1048 l 1,5,-1
 -706 969 l 1,6,-1
 -813 862 l 1,7,-1
 -892 941 l 1,4,-1
EndSplineSet
Validated: 1
EndChar

StartChar: uniEC92
Encoding: 60562 60562 191
Width: 0
Flags: W
LayerCount: 2
Fore
SplineSet
-264 -444 m 1,0,-1
 -371 -551 l 1,1,-1
 -450 -472 l 1,2,-1
 -343 -365 l 1,3,-1
 -264 -444 l 1,0,-1
-373 -273 m 1,4,-1
 -480 -380 l 1,5,-1
 -559 -301 l 1,6,-1
 -452 -194 l 1,7,-1
 -373 -273 l 1,4,-1
-121 -270 m 1,8,-1
 -228 -377 l 1,9,-1
 -307 -298 l 1,10,-1
 -200 -191 l 1,11,-1
 -121 -270 l 1,8,-1
EndSplineSet
Validated: 1
EndChar

StartChar: uniEDA1
Encoding: 60833 60833 192
Width: 0
Flags: W
LayerCount: 2
Fore
SplineSet
-145 1125 m 1,0,-1
 -382 862 l 1,1,-1
 -553 1033 l 1,2,-1
 -446 1140 l 1,3,-1
 -314 1008 l 1,4,-1
 -163 1143 l 1,5,-1
 -145 1125 l 1,0,-1
EndSplineSet
Validated: 1
EndChar

StartChar: uniEDA0
Encoding: 60832 60832 193
Width: 0
Flags: W
LayerCount: 2
Fore
SplineSet
29 1125 m 1,0,-1
 -208 862 l 1,1,-1
 -379 1033 l 1,2,-1
 -272 1140 l 1,3,-1
 -140 1008 l 1,4,-1
 11 1143 l 1,5,-1
 29 1125 l 1,0,-1
EndSplineSet
Validated: 1
EndChar

StartChar: uniEDA2
Encoding: 60834 60834 194
Width: 0
Flags: W
LayerCount: 2
Fore
SplineSet
-258 1125 m 1,0,-1
 -495 862 l 1,1,-1
 -666 1033 l 1,2,-1
 -559 1140 l 1,3,-1
 -428 1008 l 1,4,-1
 -276 1143 l 1,5,-1
 -258 1125 l 1,0,-1
EndSplineSet
Validated: 1
EndChar

StartChar: uni205D
Encoding: 8285 8285 195
Width: 410
Flags: W
LayerCount: 2
Fore
SplineSet
61 559 m 1,0,-1
 168 666 l 1,1,-1
 247 587 l 1,2,-1
 140 480 l 1,3,-1
 61 559 l 1,0,-1
61 119 m 1,4,-1
 168 226 l 1,5,-1
 247 147 l 1,6,-1
 140 40 l 1,7,-1
 61 119 l 1,4,-1
61 339 m 1,8,-1
 168 446 l 1,9,-1
 247 367 l 1,10,-1
 140 260 l 1,11,-1
 61 339 l 1,8,-1
EndSplineSet
Validated: 1
EndChar

StartChar: uniED73
Encoding: 60787 60787 196
Width: 0
Flags: W
LayerCount: 2
Fore
SplineSet
-547 -406 m 0,0,1
 -617 -492 -617 -492 -706 -492 c 0,2,3
 -774 -492 -774 -492 -815 -428 c 0,4,5
 -849 -375 -849 -375 -849 -328 c 0,6,7
 -849 -271 -849 -271 -794 -197 c 0,8,9
 -727 -109 -727 -109 -649 -109 c 0,10,11
 -599 -109 -599 -109 -549 -149 c 0,12,13
 -490 -195 -490 -195 -490 -264 c 0,14,15
 -490 -335 -490 -335 -547 -406 c 0,0,1
-570 -359 m 1,16,17
 -570 -298 -570 -298 -614 -248 c 0,18,19
 -654 -202 -654 -202 -703 -202 c 0,20,21
 -729 -202 -729 -202 -749 -221 c 0,22,23
 -765 -238 -765 -238 -765 -262 c 0,24,25
 -765 -308 -765 -308 -721 -353 c 0,26,27
 -683 -392 -683 -392 -639 -392 c 0,28,29
 -601 -392 -601 -392 -570 -359 c 1,16,17
EndSplineSet
Validated: 1
EndChar

StartChar: uniED81
Encoding: 60801 60801 197

Width: 0
Flags: W
LayerCount: 2
Fore
SplineSet
-264 972 m 1,0,-1
 -371 865 l 1,1,-1
 -450 944 l 1,2,-1
 -343 1051 l 1,3,-1
 -264 972 l 1,0,-1
-373 1143 m 1,4,-1
 -480 1036 l 1,5,-1
 -559 1115 l 1,6,-1
 -452 1222 l 1,7,-1
 -373 1143 l 1,4,-1
-121 1146 m 1,8,-1
 -228 1039 l 1,9,-1
 -307 1118 l 1,10,-1
 -200 1225 l 1,11,-1
 -121 1146 l 1,8,-1
EndSplineSet
Validated: 1
EndChar

StartChar: uniEC0F
Encoding: 60431 60431 198
Width: 0
Flags: W
LayerCount: 2
Fore
SplineSet
-861 235 m 1,0,-1
 -378 235 l 1,1,-1
 -481 101 l 1,2,-1
 -963 101 l 1,3,-1
 -861 235 l 1,0,-1
EndSplineSet
Validated: 1
EndChar

StartChar: uniECA2
Encoding: 60578 60578 199
Width: 0
Flags: W
LayerCount: 2
Fore
SplineSet
-669 -496 m 1,0,-1
 -334 -82 l 1,1,-1
 -640 -540 l 1,2,-1
 -669 -496 l 1,0,-1
EndSplineSet
Validated: 1
EndChar

StartChar: uniE03A
Encoding: 57402 57402 200
Width: 1305
Flags: W
LayerCount: 2
Fore
SplineSet
626 190 m 1,0,-1
 1033 190 l 1,1,2
 1054 219 1054 219 1054 270 c 0,3,4
 1054 353 1054 353 999 426 c 0,5,6
 939 505 939 505 858 505 c 0,7,8
 801 505 801 505 723 447 c 1,9,10
 724 438 724 438 724 428 c 0,11,12
 724 333 724 333 626 190 c 1,0,-1
376 505 m 0,13,14
 300 505 300 505 200 412 c 1,15,-1
 200 186 l 1,16,-1
 551 190 l 1,17,18
 571 219 571 219 571 270 c 0,19,20
 571 354 571 354 516 426 c 0,21,22
 457 505 457 505 376 505 c 0,13,14
1108 190 m 1,23,24
 1168 190 1168 190 1231 125.5 c 128,-1,25
 1294 61 1294 61 1294 0 c 0,26,27
 1294 -120 1294 -120 1164 -290 c 0,28,29
 1028 -466 1028 -466 914 -466 c 0,30,31
 861 -466 861 -466 814 -384 c 1,32,-1
 942 -226 l 1,33,34
 1002 -276 1002 -276 1049 -276 c 0,35,36
 1140 -276 1140 -276 1140 -166 c 0,37,38
 1140 -88 1140 -88 1065 -41 c 0,39,40
 1001 0 1001 0 918 0 c 2,41,-1
 0 0 l 1,42,43
 57 114 57 114 57 332 c 2,44,-1
 57 410 l 2,45,46
 57 478 57 478 0 522 c 1,47,48
 46 575 46 575 129 675 c 1,49,50
 183 632 183 632 200 511 c 1,51,52
 342 656 342 656 493 656 c 0,53,54
 624 656 624 656 696 526 c 1,55,56
 831 656 831 656 975 656 c 0,57,58
 1062 656 1062 656 1134 587.5 c 128,-1,59
 1206 519 1206 519 1206 432 c 0,60,61
 1206 333 1206 333 1108 190 c 1,23,24
EndSplineSet
Validated: 1
EndChar

StartChar: uniE801
Encoding: 59393 59393 201
Width: 1240
Flags: W
LayerCount: 2
Fore
SplineSet
524 495 m 1,0,-1
 206 491 l 1,1,2
 152 472 152 472 152 386 c 0,3,4
 152 303 152 303 207 230 c 0,5,6
 267 151 267 151 348 151 c 0,7,8
 428 151 428 151 524 243 c 1,9,-1
 524 495 l 1,0,-1
843 505 m 0,10,11
 767 505 767 505 667 412 c 1,12,-1
 667 -373 l 2,13,14
 667 -441 667 -441 703 -486 c 1,15,-1
 574 -638 l 1,16,17
 524 -559 524 -559 524 -475 c 2,18,-1
 524 144 l 1,19,20
 382 0 382 0 229 0 c 0,21,22
 143 0 143 0 71.5 69 c 128,-1,23
 0 138 0 138 0 224 c 0,24,25
 0 335 0 335 116 491 c 1,26,27
 30 491 30 491 0 473 c 1,28,29
 93 680 93 680 156 680 c 2,30,-1
 524 682 l 1,31,-1
 524 1123 l 1,32,33
 588 1197 588 1197 617 1227 c 0,34,35
 685 1299 685 1299 713 1309 c 1,36,37
 667 1107 667 1107 667 895 c 2,38,-1
 667 511 l 1,39,40
 742 587 742 587 798 618 c 0,41,42
 869 656 869 656 962 656 c 0,43,44
 1047 656 1047 656 1119 586.5 c 128,-1,45
 1191 517 1191 517 1191 432 c 0,46,47
 1191 317 1191 317 1075 163 c 0,48,49
 953 0 953 0 843 0 c 0,50,51
 800 0 800 0 753 82 c 1,52,-1
 851 210 l 1,53,54
 911 160 911 160 957 160 c 0,55,56
 1038 160 1038 160 1038 270 c 0,57,58
 1038 354 1038 354 983 426 c 0,59,60
 924 505 924 505 843 505 c 0,10,11
EndSplineSet
Validated: 1
EndChar

StartChar: uniEC93
Encoding: 60563 60563 202
Width: 0
Flags: W
LayerCount: 2
Fore
SplineSet
-526 -444 m 1,0,-1
 -633 -551 l 1,1,-1
 -712 -472 l 1,2,-1
 -605 -365 l 1,3,-1
 -526 -444 l 1,0,-1
-666 -273 m 1,4,-1
 -773 -380 l 1,5,-1
 -852 -301 l 1,6,-1
 -745 -194 l 1,7,-1
 -666 -273 l 1,4,-1
-373 -270 m 1,8,-1
 -480 -377 l 1,9,-1
 -559 -298 l 1,10,-1
 -452 -191 l 1,11,-1
 -373 -270 l 1,8,-1
EndSplineSet
Validated: 1
EndChar

StartChar: uniE070
Encoding: 57456 57456 203
Width: 778
Flags: W
LayerCount: 2
Fore
SplineSet
0 377 m 1,0,1
 62 548 62 548 153 646 c 0,2,3
 190 686 190 686 335 686 c 0,4,5
 454 686 454 686 532.5 605.5 c 128,-1,6
 611 525 611 525 611 405 c 0,7,8
 611 262 611 262 510 135 c 0,9,10
 403 0 403 0 264 0 c 0,11,12
 159 0 159 0 59 79 c 1,13,-1
 178 238 l 2,14,15
 179 238 179 238 265 198.5 c 128,-1,16
 351 159 351 159 396 159 c 0,17,18
 478 159 478 159 478 267 c 0,19,20
 478 371 478 371 409 438 c 128,-1,21
 340 505 340 505 235 505 c 0,22,23
 73 505 73 505 0 377 c 1,0,1
EndSplineSet
Validated: 1
EndChar

StartChar: uniED92
Encoding: 60818 60818 204
Width: 0
Flags: W
LayerCount: 2
Fore
SplineSet
-686 880 m 1,0,-1
 -449 1143 l 1,1,-1
 -278 972 l 1,2,-1
 -385 865 l 1,3,-1
 -517 997 l 1,4,-1
 -668 862 l 1,5,-1
 -686 880 l 1,0,-1
EndSplineSet
Validated: 1
EndChar

StartChar: uniED62
Encoding: 60770 60770 205
Width: 0
Flags: W
LayerCount: 2
Fore
SplineSet
-521 -224 m 2,0,1
 -521 -80 l 1,2,-1
 -379 -30 l 1,3,-1
 -379 -452 l 2,4,5
 -379 -600 -379 -600 -548 -638 c 1,6,7
 -521 -436 -521 -436 -521 -224 c 2,0,1
EndSplineSet
Validated: 1
EndChar

StartChar: uniED91
Encoding: 60817 60817 206
Width: 0
Flags: W
LayerCount: 2
Fore
SplineSet
-553 880 m 1,0,-1
 -316 1143 l 1,1,-1
 -145 972 l 1,2,-1
 -252 865 l 1,3,-1
 -383 997 l 1,4,-1
 -535 862 l 1,5,-1
 -553 880 l 1,0,-1
EndSplineSet
Validated: 1
EndChar

StartChar: uniED61
Encoding: 60769 60769 207
Width: 0
Flags: W
LayerCount: 2
Fore
SplineSet
-391 -224 m 2,0,1
 -391 -80 l 1,2,-1
 -249 -30 l 1,3,-1
 -249 -452 l 2,4,5
 -249 -600 -249 -600 -418 -638 c 1,6,7
 -391 -436 -391 -436 -391 -224 c 2,0,1
EndSplineSet
Validated: 1
EndChar

StartChar: uni60AD
Encoding: 24749 24749 208

Width: 0
Flags: W
LayerCount: 2
Fore
SplineSet
-330 969 m 1,0,-1
 -437 862 l 1,1,-1
 -516 941 l 1,2,-1
 -409 1048 l 1,3,-1
 -330 969 l 1,0,-1
-450 1140 m 1,4,-1
 -557 1033 l 1,5,-1
 -636 1112 l 1,6,-1
 -529 1219 l 1,7,-1
 -450 1140 l 1,4,-1
-178 1143 m 1,8,-1
 -284 1036 l 1,9,-1
 -363 1115 l 1,10,-1
 -257 1222 l 1,11,-1
 -178 1143 l 1,8,-1
EndSplineSet
Validated: 1
EndChar

StartChar: uniED00
Encoding: 60672 60672 209
Width: 0
Flags: W
LayerCount: 2
Fore
SplineSet
-2 972 m 1,0,-1
 -109 865 l 1,1,-1
 -188 944 l 1,2,-1
 -81 1051 l 1,3,-1
 -2 972 l 1,0,-1
-254 969 m 1,4,-1
 -361 862 l 1,5,-1
 -440 941 l 1,6,-1
 -333 1048 l 1,7,-1
 -254 969 l 1,4,-1
EndSplineSet
Validated: 1
EndChar

StartChar: uni60B9
Encoding: 24761 24761 210
Width: 410
Flags: W
LayerCount: 2
Fore
SplineSet
237 122 m 1,0,-1
 0 -96 l 1,1,-1
 199 166 l 1,2,-1
 237 122 l 1,0,-1
EndSplineSet
Validated: 1
EndChar

StartChar: quoteright
Encoding: 8217 8217 211
Width: 240
Flags: W
LayerCount: 2
Fore
SplineSet
10 666 m 1,0,1
 98 744 98 744 98 830 c 0,2,3
 98 910 98 910 10 970 c 1,4,-1
 155 1143 l 1,5,6
 229 1099 229 1099 229 1002 c 0,7,8
 229 906 229 906 163.5 805 c 128,-1,9
 98 704 98 704 10 666 c 1,0,1
EndSplineSet
Validated: 1
EndChar

StartChar: uni60B3
Encoding: 24755 24755 212
Width: 768
Flags: W
LayerCount: 2
Fore
SplineSet
322 496 m 0,0,1
 295 496 295 496 259 478 c 0,2,3
 217 458 217 458 217 434 c 0,4,5
 217 393 217 393 253 346 c 0,6,7
 292 296 292 296 331 294 c 1,8,9
 212 134 212 134 194 134 c 0,10,11
 148 134 148 134 115 182 c 0,12,13
 84 225 84 225 84 273 c 0,14,15
 84 384 84 384 138 470 c 0,16,17
 142 475 142 475 267 629 c 0,18,19
 300 670 300 670 398 670 c 0,20,21
 527 670 527 670 610.5 595 c 128,-1,22
 694 520 694 520 694 392 c 0,23,24
 694 297 694 297 463 -41 c 1,25,26
 304 -260 304 -260 146 -480 c 1,27,28
 224 -454 224 -454 329 -454 c 0,29,30
 390 -454 390 -454 509.5 -479 c 128,-1,31
 629 -504 629 -504 690 -504 c 0,32,33
 806 -504 806 -504 949 -445 c 1,34,35
 843 -641 843 -641 586 -641 c 0,36,37
 511 -641 511 -641 364 -613 c 128,-1,38
 217 -585 217 -585 142 -585 c 0,39,40
 37 -585 37 -585 -40 -640 c 1,41,42
 -5 -565 -5 -565 293 -171 c 0,43,44
 551 170 551 170 551 273 c 0,45,46
 551 363 551 363 481.5 429.5 c 128,-1,47
 412 496 412 496 322 496 c 0,0,1
EndSplineSet
Validated: 1
EndChar

StartChar: uniE02D
Encoding: 57389 57389 213
Width: 297
Flags: W
LayerCount: 2
Fore
SplineSet
200 186 m 2,0,1
 200 107 200 107 146 56 c 128,-1,2
 92 5 92 5 11 0 c 1,3,4
 57 202 57 202 57 414 c 2,5,-1
 57 1048 l 2,6,7
 57 1116 57 1116 0 1160 c 1,8,9
 46 1213 46 1213 129 1313 c 1,10,11
 183 1270 183 1270 200 1130 c 1,12,-1
 200 186 l 2,0,1
EndSplineSet
Validated: 1
EndChar

StartChar: uniE034
Encoding: 57396 57396 214
Width: 768
Flags: W
LayerCount: 2
Fore
SplineSet
103 491 m 2,0,1
 30 491 30 491 0 473 c 1,2,3
 93 679 93 679 156 680 c 2,4,-1
 335 682 l 1,5,-1
 335 660 l 1,6,7
 377 681 377 681 437 681 c 1,8,9
 436 681 436 681 700 681 c 0,10,11
 897 682 897 682 897 682 c 1,12,-1
 818 495 l 1,13,14
 683 495 683 495 335 493 c 1,15,-1
 335 186 l 2,16,17
 335 108 335 108 281 57 c 0,18,19
 247 25 247 25 146 0 c 1,20,21
 193 196 193 196 193 332 c 2,22,-1
 193 410 l 2,23,24
 193 454 193 454 166 491 c 1,25,-1
 103 491 l 2,0,1
EndSplineSet
Validated: 33
EndChar

StartChar: uniE031
Encoding: 57393 57393 215
Width: 768
Flags: W
LayerCount: 2
Fore
SplineSet
147 -195 m 1024,0,-1
768 0 m 1,1,2
 646 -197 646 -197 528 -197 c 0,3,4
 482 -197 482 -197 393 -169 c 128,-1,5
 304 -141 304 -141 267 -141 c 0,6,7
 210 -141 210 -141 147 -195 c 1,8,9
 194 -95 194 -95 387 52 c 0,10,11
 551 177 551 177 551 273 c 0,12,13
 551 363 551 363 481.5 429.5 c 128,-1,14
 412 496 412 496 322 496 c 0,15,16
 295 496 295 496 259 478 c 0,17,18
 217 458 217 458 217 434 c 0,19,20
 217 393 217 393 253 346 c 0,21,22
 292 296 292 296 331 294 c 1,23,24
 212 134 212 134 194 134 c 0,25,26
 148 134 148 134 115 182 c 0,27,28
 84 225 84 225 84 273 c 0,29,30
 84 384 84 384 138 470 c 0,31,32
 142 475 142 475 267 629 c 0,33,34
 300 670 300 670 398 670 c 0,35,36
 527 670 527 670 610.5 595 c 128,-1,37
 694 520 694 520 694 392 c 0,38,39
 694 273 694 273 603 161 c 0,40,41
 545 89 545 89 416 -10 c 1,42,43
 445 -13 445 -13 515 -34 c 0,44,45
 578 -53 578 -53 615 -53 c 0,46,47
 685 -53 685 -53 768 0 c 1,1,2
EndSplineSet
Validated: 1
EndChar

StartChar: uniED80
Encoding: 60800 60800 216

Width: 0
Flags: W
LayerCount: 2
Fore
SplineSet
-254 944 m 1,0,-1
 -148 1051 l 1,1,-1
 -69 972 l 1,2,-1
 -175 865 l 1,3,-1
 -254 944 l 1,0,-1
-364 1115 m 1,4,-1
 -257 1222 l 1,5,-1
 -178 1143 l 1,6,-1
 -285 1036 l 1,7,-1
 -364 1115 l 1,4,-1
-132 1118 m 1,8,-1
 -25 1225 l 1,9,-1
 54 1146 l 1,10,-1
 -53 1039 l 1,11,-1
 -132 1118 l 1,8,-1
EndSplineSet
Validated: 1
EndChar

StartChar: uni60B7
Encoding: 24759 24759 217

Width: 410
Flags: W
LayerCount: 2
Fore
SplineSet
121 340 m 1,0,-1
 208 427 l 1,1,-1
 287 348 l 1,2,-1
 200 261 l 1,3,-1
 121 340 l 1,0,-1
EndSplineSet
Validated: 1
EndChar

StartChar: uni9024
Encoding: 36900 36900 223
Width: 0
Flags: W
LayerCount: 2
Fore
SplineSet
-74 1280 m 5,0,-1
 -548 726 l 5,1,-1
 -109 1330 l 5,2,-1
 -74 1280 l 5,0,-1
-234 1280 m 1,3,-1
 -708 726 l 1,4,-1
 -269 1330 l 1,5,-1
 -234 1280 l 1,3,-1
EndSplineSet
Validated: 1
EndChar

StartChar: uni902E
Encoding: 36910 36910 224
Width: 900
Flags: W
LayerCount: 2
Fore
SplineSet
554 320 m 0,0,1
 554 392 554 392 443 440 c 0,2,3
 353 478 353 478 268 478 c 0,4,5
 205 478 205 478 185 473 c 0,6,7
 154 464 154 464 115 428 c 1,8,9
 115 332 115 332 189 261 c 128,-1,10
 263 190 263 190 357 190 c 0,11,12
 416 190 416 190 480 225 c 0,13,14
 554 266 554 266 554 320 c 0,0,1
586 167 m 1,15,16
 704 156 704 156 831 156 c 0,17,18
 947 156 947 156 1019 179 c 1,19,20
 978 -31 978 -31 664 -31 c 0,21,22
 596 -31 596 -31 456 -15.5 c 128,-1,23
 316 0 316 0 249 0 c 0,24,25
 168 0 168 0 84 79 c 128,-1,26
 0 158 0 158 0 238 c 0,27,28
 0 392 0 392 118 524 c 0,29,30
 240 659 240 659 392 659 c 0,31,32
 501 659 501 659 595 589 c 0,33,34
 696 513 696 513 696 407 c 0,35,36
 696 346 696 346 632 240 c 0,37,38
 604 194 604 194 586 167 c 1,15,16
EndSplineSet
Validated: 1
EndChar

StartChar: uni903C
Encoding: 36924 36924 226
Width: 768
Flags: W
LayerCount: 2
Fore
SplineSet
759 191 m 1,0,1
 747 158 747 158 623 0 c 1,2,-1
 116 0 l 2,3,4
 68 0 68 0 57 -1 c 0,5,6
 23 -4 23 -4 0 -18 c 1,7,8
 28 45 28 45 54 89 c 1,9,10
 0 151 0 151 0 224 c 0,11,12
 0 338 0 338 116 493 c 0,13,14
 238 656 238 656 348 656 c 0,15,16
 442 656 442 656 523 604 c 1,17,-1
 523 1126 l 1,18,19
 669 1296 669 1296 712 1313 c 1,20,21
 665 1110 665 1110 665 899 c 2,22,-1
 665 265 l 2,23,24
 665 224 665 224 686 191 c 1,25,-1
 759 191 l 1,0,1
523 190 m 1,26,-1
 523 339 l 1,27,28
 506 404 506 404 398 453 c 0,29,30
 305 495 305 495 233 495 c 0,31,32
 152 495 152 495 152 386 c 0,33,34
 152 268 152 268 247 189 c 1,35,-1
 523 190 l 1,26,-1
EndSplineSet
Validated: 1
EndChar

StartChar: uni9046
Encoding: 36934 36934 227
Width: 0
Flags: W
LayerCount: 2
Fore
SplineSet
121 1174 m 5,0,-1
 -262 746 l 5,1,-1
 86 1224 l 5,2,-1
 121 1174 l 5,0,-1
-19 1174 m 1,3,-1
 -402 746 l 1,4,-1
 -54 1224 l 1,5,-1
 -19 1174 l 1,3,-1
EndSplineSet
EndChar

StartChar: uni9048
Encoding: 36936 36936 228
Width: 0
Flags: W
LayerCount: 2
Fore
SplineSet
39.3896484375 1137.05957031 m 5,0,1
 46 1318 46 1318 -55.1220703125 1336.82910156 c 4,2,3
 -295 1382 -295 1382 -414 769 c 5,4,5
 -391 1106 -391 1106 -307 1294 c 4,6,7
 -143 1664 -143 1664 35.7099609375 1502.59960938 c 4,8,9
 145 1404 145 1404 39.3896484375 1137.05957031 c 5,0,1
-101 985 m 1,10,11
 -92 1006 -92 1006 -96 1035 c 0,12,13
 -103 1086 -103 1086 -140 1086 c 0,14,15
 -219 1086 -219 1086 -402 719 c 1,16,17
 -238 1145 -238 1145 -181 1207 c 0,18,19
 -126 1266 -126 1266 -92 1266 c 0,20,21
 -59 1266 -59 1266 -35 1239 c 128,-1,22
 -11 1212 -11 1212 -11 1179 c 0,23,24
 -11 1100 -11 1100 -101 985 c 1,10,11
EndSplineSet
Validated: 33
EndChar

StartChar: uni9052
Encoding: 36946 36946 229
Width: 0
Flags: W
LayerCount: 2
Fore
SplineSet
-54 1154 m 5,0,-1
 -395 746 l 5,1,-1
 -89 1204 l 5,2,-1
 -54 1154 l 5,0,-1
-214 1154 m 1,3,-1
 -555 746 l 1,4,-1
 -249 1204 l 1,5,-1
 -214 1154 l 1,3,-1
EndSplineSet
Validated: 1
EndChar

StartChar: uni9056
Encoding: 36950 36950 230
Width: 0
Flags: W
LayerCount: 2
Fore
SplineSet
237 1070 m 1,0,-1
 -54 767 l 1,1,-1
 202 1120 l 1,2,-1
 237 1070 l 1,0,-1
107 1070 m 1,3,-1
 -184 767 l 1,4,-1
 72 1120 l 1,5,-1
 107 1070 l 1,3,-1
EndSplineSet
Validated: 1
EndChar

StartChar: uni9061
Encoding: 36961 36961 231
Width: 768
Flags: W
LayerCount: 2
Fore
SplineSet
1088 684 m 1,0,1
 966 487 966 487 848 487 c 0,2,3
 805 487 805 487 685 524 c 1,4,5
 667 394 667 394 667 261 c 2,6,-1
 667 -373 l 2,7,8
 667 -441 667 -441 703 -486 c 1,9,-1
 574 -638 l 1,10,11
 524 -559 524 -559 524 -475 c 2,12,-1
 524 144 l 1,13,14
 382 0 382 0 229 0 c 0,15,16
 143 0 143 0 71.5 69 c 128,-1,17
 0 138 0 138 0 224 c 0,18,19
 0 341 0 341 115 494 c 0,20,21
 236 656 236 656 348 656 c 0,22,23
 391 656 391 656 438 574 c 1,24,-1
 340 446 l 1,25,26
 280 495 280 495 233 495 c 0,27,28
 152 495 152 495 152 386 c 0,29,30
 152 303 152 303 207 230 c 0,31,32
 267 151 267 151 348 151 c 0,33,34
 421 151 421 151 524 243 c 1,35,-1
 524 488 l 2,36,37
 524 589 524 589 713 675 c 1,38,39
 751 675 751 675 824 653 c 128,-1,40
 897 631 897 631 935 631 c 0,41,42
 1005 631 1005 631 1088 684 c 1,0,1
EndSplineSet
Validated: 1
EndChar

StartChar: uni9062
Encoding: 36962 36962 232
Width: 0
Flags: W
LayerCount: 2
Fore
SplineSet
-234 1280 m 1,0,-1
 -708 726 l 1,1,-1
 -269 1330 l 1,2,-1
 -234 1280 l 1,0,-1
EndSplineSet
Validated: 1
EndChar

StartChar: uni9067
Encoding: 36967 36967 233
Width: 1260
Flags: W
LayerCount: 2
Fore
SplineSet
1574 684 m 1,0,1
 1452 487 1452 487 1334 487 c 0,2,3
 1291 487 1291 487 1169 524 c 1,4,5
 1153 423 1153 423 1153 343 c 2,6,-1
 1153 265 l 2,7,8
 1153 197 1153 197 1210 152 c 1,9,10
 1165 100 1165 100 1081 0 c 1,11,12
 1011 56 1011 56 1011 102 c 2,13,-1
 1011 143 l 1,14,15
 936 68 936 68 879 38 c 0,16,17
 808 0 808 0 716 0 c 0,18,19
 585 0 585 0 513 133 c 1,20,21
 440 62 440 62 386 34 c 0,22,23
 319 0 319 0 229 0 c 0,24,25
 143 0 143 0 71.5 69 c 128,-1,26
 0 138 0 138 0 224 c 0,27,28
 0 341 0 341 115 494 c 0,29,30
 236 656 236 656 348 656 c 0,31,32
 391 656 391 656 438 574 c 1,33,-1
 340 446 l 1,34,35
 280 495 280 495 233 495 c 0,36,37
 152 495 152 495 152 386 c 0,38,39
 152 303 152 303 207 230 c 0,40,41
 267 151 267 151 348 151 c 0,42,43
 406 151 406 151 488 214 c 1,44,-1
 488 224 l 2,45,46
 488 341 488 341 603 494 c 0,47,48
 723 656 723 656 835 656 c 0,49,50
 878 656 878 656 926 574 c 1,51,-1
 827 446 l 1,52,53
 768 495 768 495 721 495 c 0,54,55
 640 495 640 495 640 386 c 0,56,57
 640 302 640 302 695 230 c 0,58,59
 754 151 754 151 835 151 c 0,60,61
 914 151 914 151 1011 242 c 1,62,-1
 1011 489 l 1,63,-1
 1010 488 l 1,64,-1
 1011 490 l 1,65,66
 1013 590 1013 590 1199 675 c 1,67,68
 1237 675 1237 675 1310 653 c 128,-1,69
 1383 631 1383 631 1421 631 c 0,70,71
 1491 631 1491 631 1574 684 c 1,0,1
EndSplineSet
Validated: 1
EndChar

StartChar: uni9068
Encoding: 36968 36968 234
Width: 768
Flags: W
LayerCount: 2
Fore
SplineSet
1087 684 m 1,0,1
 965 487 965 487 847 487 c 0,2,3
 804 487 804 487 682 524 c 1,4,5
 666 422 666 422 666 343 c 2,6,-1
 666 265 l 2,7,8
 666 197 666 197 723 152 c 1,9,10
 677 100 677 100 593 0 c 1,11,12
 523 56 523 56 523 102 c 2,13,-1
 523 143 l 1,14,15
 382 0 382 0 229 0 c 0,16,17
 143 0 143 0 71.5 69 c 128,-1,18
 0 138 0 138 0 224 c 0,19,20
 0 341 0 341 115 494 c 0,21,22
 236 656 236 656 348 656 c 0,23,24
 391 656 391 656 438 574 c 1,25,-1
 340 446 l 1,26,27
 280 495 280 495 233 495 c 0,28,29
 152 495 152 495 152 386 c 0,30,31
 152 303 152 303 207 230 c 0,32,33
 267 151 267 151 348 151 c 0,34,35
 425 151 425 151 523 243 c 1,36,-1
 523 488 l 2,37,38
 523 589 523 589 712 675 c 1,39,40
 750 675 750 675 823 653 c 128,-1,41
 896 631 896 631 934 631 c 0,42,43
 1004 631 1004 631 1087 684 c 1,0,1
EndSplineSet
Validated: 1
EndChar

StartChar: uni906C
Encoding: 36972 36972 235
Width: 821
Flags: W
LayerCount: 2
Fore
SplineSet
821 233 m 1,0,1
 765 114 765 114 755 97 c 0,2,3
 700 -2 700 -2 659 0 c 0,4,5
 626 2 626 2 574 66 c 2,6,-1
 405 276 l 1,7,-1
 270 93 l 2,8,9
 201 0 201 0 125 0 c 0,10,11
 55 0 55 0 0 76 c 1,12,13
 55 152 55 152 120 209 c 1,14,15
 166 151 166 151 215 151 c 0,16,17
 268 151 268 151 362 329 c 1,18,19
 309 399 309 399 272 438 c 0,20,21
 204 510 204 510 165 514 c 1,22,23
 164 506 164 506 164 498 c 0,24,25
 164 420 164 420 235 382 c 1,26,27
 224 362 224 362 158 321 c 128,-1,28
 92 280 92 280 84 285 c 0,29,30
 46 308 46 308 46 370 c 0,31,32
 46 405 46 405 60 437 c 0,33,34
 90 510 90 510 144 576 c 0,35,36
 214 661 214 661 272 661 c 256,37,38
 330 661 330 661 529.5 430.5 c 128,-1,39
 729 200 729 200 752 200 c 0,40,41
 771 200 771 200 821 233 c 1,0,1
EndSplineSet
Validated: 33
EndChar

StartChar: uni9073
Encoding: 36979 36979 236
Width: 1260
Flags: W
LayerCount: 2
Fore
SplineSet
1574 684 m 1,0,1
 1452 487 1452 487 1334 487 c 0,2,3
 1290 487 1290 487 1173 523 c 1,4,5
 1154 394 1154 394 1154 261 c 2,6,-1
 1154 -373 l 2,7,8
 1154 -441 1154 -441 1191 -486 c 1,9,-1
 1061 -638 l 1,10,11
 1012 -559 1012 -559 1012 -475 c 2,12,-1
 1011 144 l 1,13,14
 871 0 871 0 716 0 c 0,15,16
 585 0 585 0 513 133 c 1,17,18
 440 62 440 62 386 34 c 0,19,20
 319 0 319 0 229 0 c 0,21,22
 143 0 143 0 71.5 69 c 128,-1,23
 0 138 0 138 0 224 c 0,24,25
 0 341 0 341 115 494 c 0,26,27
 236 656 236 656 348 656 c 0,28,29
 391 656 391 656 438 574 c 1,30,-1
 340 446 l 1,31,32
 280 495 280 495 233 495 c 0,33,34
 152 495 152 495 152 386 c 0,35,36
 152 303 152 303 207 230 c 0,37,38
 267 151 267 151 348 151 c 0,39,40
 406 151 406 151 488 214 c 1,41,-1
 488 224 l 2,42,43
 488 341 488 341 603 494 c 0,44,45
 723 656 723 656 835 656 c 0,46,47
 878 656 878 656 926 574 c 1,48,-1
 827 446 l 1,49,50
 768 495 768 495 721 495 c 0,51,52
 640 495 640 495 640 386 c 0,53,54
 640 302 640 302 695 230 c 0,55,56
 754 151 754 151 835 151 c 256,57,58
 916 151 916 151 1012 243 c 1,59,-1
 1012 490 l 1,60,-1
 1010 488 l 1,61,-1
 1012 491 l 1,62,63
 1015 588 1015 588 1192 671 c 1,64,-1
 1199 675 l 1,65,-1
 1201 675 l 2,66,67
 1239 675 1239 675 1311 653 c 128,-1,68
 1383 631 1383 631 1421 631 c 0,69,70
 1491 631 1491 631 1574 684 c 1,0,1
EndSplineSet
Validated: 1
EndChar

StartChar: uni90A4
Encoding: 37028 37028 238
Width: 768
Flags: W
LayerCount: 2
Fore
SplineSet
592 554 m 256,0,1
 592 482 592 482 547 427 c 1,2,-1
 590 384 l 1,3,-1
 561 355 l 1,4,-1
 519 398 l 1,5,6
 463 353 463 353 391 353 c 256,7,8
 319 353 319 353 264 398 c 1,9,-1
 221 355 l 1,10,-1
 192 384 l 1,11,-1
 235 427 l 1,12,13
 190 482 190 482 190 554 c 256,14,15
 190 626 190 626 235 682 c 1,16,-1
 192 725 l 1,17,-1
 221 753 l 1,18,-1
 264 710 l 1,19,20
 319 755 319 755 391 755 c 256,21,22
 463 755 463 755 518 710 c 1,23,-1
 561 753 l 1,24,-1
 590 724 l 1,25,-1
 547 681 l 1,26,27
 592 626 592 626 592 554 c 256,0,1
552 554 m 256,28,29
 552 621 552 621 505 668 c 128,-1,30
 458 715 458 715 391 715 c 256,31,32
 324 715 324 715 277 668 c 128,-1,33
 230 621 230 621 230 554 c 256,34,35
 230 487 230 487 277 440 c 128,-1,36
 324 393 324 393 391 393 c 256,37,38
 458 393 458 393 505 440 c 128,-1,39
 552 487 552 487 552 554 c 256,28,29
EndSplineSet
Validated: 1
EndChar

StartChar: uni90AE
Encoding: 37038 37038 239
Width: 650
Flags: W
LayerCount: 2
Fore
SplineSet
611 805 m 0,0,1
 611 695 611 695 547 588 c 0,2,3
 486 488 486 488 390 423 c 1,4,5
 409 401 409 401 442 392 c 1,6,-1
 297 229 l 1,7,8
 243 261 243 261 243 370 c 1,9,-1
 362 528 l 1,10,11
 417 528 417 528 449 573 c 0,12,13
 478 612 478 612 478 667 c 0,14,15
 478 771 478 771 409 838 c 128,-1,16
 340 905 340 905 235 905 c 0,17,18
 159 905 159 905 115 873 c 0,19,20
 79 847 79 847 40 777 c 1,21,22
 98 934 98 934 140 991 c 0,23,24
 212 1086 212 1086 335 1086 c 0,25,26
 454 1086 454 1086 532.5 1005.5 c 128,-1,27
 611 925 611 925 611 805 c 0,0,1
427 87 m 1,28,-1
 320 -20 l 1,29,-1
 241 59 l 1,30,-1
 348 166 l 1,31,-1
 427 87 l 1,28,-1
EndSplineSet
Validated: 1
EndChar

StartChar: uni90B6
Encoding: 37046 37046 240
Width: 1260
Flags: W
LayerCount: 2
Fore
SplineSet
1016 1368 m 1,0,1
 992 1300 992 1300 924 1175 c 1,2,-1
 919 1175 l 1,3,4
 911 1102 911 1102 911 947 c 2,5,-1
 911 -373 l 2,6,7
 911 -441 911 -441 948 -486 c 1,8,-1
 818 -638 l 1,9,10
 768 -559 768 -559 768 -475 c 2,11,-1
 768 1175 l 1,12,-1
 675 1175 l 1,13,14
 667 1102 667 1102 667 947 c 2,15,-1
 667 -373 l 2,16,17
 667 -441 667 -441 703 -486 c 1,18,-1
 574 -638 l 1,19,20
 524 -559 524 -559 524 -475 c 2,21,-1
 524 830 l 1,22,23
 382 686 382 686 229 686 c 0,24,25
 143 686 143 686 71.5 755 c 128,-1,26
 0 824 0 824 0 910 c 0,27,28
 0 984 0 984 111 1176 c 128,-1,29
 222 1368 222 1368 270 1368 c 2,30,-1
 1016 1368 l 1,0,1
524 929 m 1,31,-1
 524 1175 l 1,32,33
 488 1175 488 1175 365 1177 c 0,34,35
 266 1178 266 1178 206 1177 c 1,36,37
 152 1158 152 1158 152 1072 c 0,38,39
 152 989 152 989 207 916 c 0,40,41
 267 837 267 837 348 837 c 0,42,43
 428 837 428 837 524 929 c 1,31,-1
EndSplineSet
Validated: 33
EndChar

StartChar: uni90B7
Encoding: 37047 37047 241
Width: 410
Flags: W
LayerCount: 2
Fore
SplineSet
287 348 m 1,0,-1
 200 261 l 1,1,-1
 121 340 l 1,2,-1
 208 427 l 1,3,-1
 287 348 l 1,0,-1
EndSplineSet
Validated: 1
EndChar

StartChar: uniE039
Encoding: 57401 57401 242
Width: 830
Flags: W
LayerCount: 2
Fore
SplineSet
802 234 m 1,0,1
 697 6 697 6 623 6 c 0,2,3
 513 6 513 6 301 456 c 1,4,5
 223 355 223 355 222 352 c 0,6,7
 178 286 178 286 178 232 c 0,8,9
 178 217 178 217 181 203 c 1,10,11
 203 179 203 179 240 179 c 0,12,13
 295 179 295 179 383 235 c 1,14,15
 321 151 321 151 201 24 c 1,16,17
 168 0 168 0 136 0 c 0,18,19
 94 0 94 0 62 33.5 c 128,-1,20
 30 67 30 67 30 109 c 0,21,22
 30 192 30 192 167 374 c 1,23,24
 295 534 295 534 423 694 c 1,25,26
 560 873 560 873 560 948 c 0,27,28
 560 1007 560 1007 523.5 1047.5 c 128,-1,29
 487 1088 487 1088 428 1088 c 0,30,31
 401 1088 401 1088 341 1061 c 1,32,33
 371 1113 371 1113 419 1188 c 1,34,35
 477 1259 477 1259 528 1259 c 0,36,37
 601 1259 601 1259 645.5 1209 c 128,-1,38
 690 1159 690 1159 690 1086 c 0,39,40
 690 996 690 996 450 646 c 1,41,42
 450 567 450 567 547 382 c 0,43,44
 650 187 650 187 714 187 c 0,45,46
 732 187 732 187 802 234 c 1,0,1
EndSplineSet
Validated: 1
EndChar

StartChar: uni90C3
Encoding: 37059 37059 243
Width: 410
Flags: W
LayerCount: 2
Fore
SplineSet
247 487 m 1,0,-1
 140 380 l 1,1,-1
 61 459 l 1,2,-1
 168 566 l 1,3,-1
 247 487 l 1,0,-1
237 122 m 1,4,-1
 0 -96 l 1,5,-1
 189 176 l 1,6,-1
 237 122 l 1,4,-1
EndSplineSet
Validated: 1
EndChar

StartChar: uniE037
Encoding: 57399 57399 244
Width: 768
Flags: W
LayerCount: 2
Fore
SplineSet
713 675 m 1,0,1
 667 472 667 472 667 261 c 2,2,-1
 667 -373 l 2,3,4
 667 -441 667 -441 703 -486 c 1,5,-1
 574 -638 l 1,6,7
 524 -559 524 -559 524 -475 c 2,8,-1
 524 0 l 1,9,-1
 116 0 l 2,10,11
 68 0 68 0 57 -1 c 0,12,13
 23 -4 23 -4 0 -18 c 1,14,15
 28 45 28 45 54 89 c 1,16,17
 0 151 0 151 0 224 c 0,18,19
 0 338 0 338 116 493 c 0,20,21
 238 656 238 656 348 656 c 0,22,23
 462 656 462 656 562 576 c 1,24,25
 609 628 609 628 713 675 c 1,0,1
524 190 m 1,26,-1
 524 335 l 1,27,28
 509 402 509 402 400 452 c 0,29,30
 307 495 307 495 233 495 c 0,31,32
 152 495 152 495 152 386 c 0,33,34
 152 303 152 303 208 230 c 0,35,36
 226 206 226 206 246 189 c 1,37,-1
 524 190 l 1,26,-1
EndSplineSet
Validated: 1
EndChar

StartChar: uni90C7
Encoding: 37063 37063 245
Width: 410
Flags: W
LayerCount: 2
Fore
SplineSet
255 1082 m 1,0,-1
 225 416 l 2,1,2
 220 302 220 302 116 230 c 1,3,4
 106 436 106 436 96 587 c 0,5,6
 73 950 73 950 56 980 c 1,7,-1
 255 1082 l 1,0,-1
247 87 m 1,8,-1
 140 -20 l 1,9,-1
 61 59 l 1,10,-1
 168 166 l 1,11,-1
 247 87 l 1,8,-1
EndSplineSet
Validated: 1
EndChar

StartChar: uniEDD3
Encoding: 60883 60883 246
Width: 0
Flags: W
LayerCount: 2
Fore
SplineSet
-433 1146 m 1,0,1
 -465 1074 -465 1074 -500 1021 c 0,2,3
 -584 896 -584 896 -670 892 c 0,4,5
 -808 886 -808 886 -861 1063 c 1,6,-1
 -754 1160 l 1,7,8
 -732 1016 -732 1016 -604 1020 c 0,9,10
 -506 1023 -506 1023 -451 1163 c 1,11,-1
 -433 1146 l 1,0,1
EndSplineSet
Validated: 33
EndChar

StartChar: uniEDD2
Encoding: 60882 60882 247
Width: 0
Flags: W
LayerCount: 2
Fore
SplineSet
-258 1125 m 1,0,1
 -287 1053 -287 1053 -320 1000 c 0,2,3
 -399 875 -399 875 -485 871 c 0,4,5
 -623 865 -623 865 -676 1042 c 1,6,-1
 -569 1139 l 1,7,8
 -557 995 -557 995 -429 999 c 0,9,10
 -331 1002 -331 1002 -276 1142 c 1,11,-1
 -258 1125 l 1,0,1
EndSplineSet
Validated: 33
EndChar

StartChar: uniEDD1
Encoding: 60881 60881 248
Width: 0
Flags: W
LayerCount: 2
Fore
SplineSet
-135 1125 m 1,0,1
 -167 1053 -167 1053 -202 1000 c 0,2,3
 -286 875 -286 875 -372 871 c 0,4,5
 -510 865 -510 865 -563 1042 c 1,6,-1
 -456 1139 l 1,7,8
 -434 995 -434 995 -306 999 c 0,9,10
 -208 1002 -208 1002 -153 1142 c 1,11,-1
 -135 1125 l 1,0,1
EndSplineSet
Validated: 33
EndChar

StartChar: uniEDD0
Encoding: 60880 60880 249
Width: 0
Flags: W
LayerCount: 2
Fore
SplineSet
39 1125 m 1,0,1
 7 1053 7 1053 -28 1000 c 0,2,3
 -112 875 -112 875 -198 871 c 0,4,5
 -336 865 -336 865 -389 1042 c 1,6,-1
 -282 1139 l 1,7,8
 -260 995 -260 995 -132 999 c 0,9,10
 -34 1002 -34 1002 21 1142 c 1,11,-1
 39 1125 l 1,0,1
EndSplineSet
Validated: 33
EndChar

StartChar: uni90E0
Encoding: 37088 37088 250
Width: 0
Flags: W
LayerCount: 2
Fore
SplineSet
-653 719 m 1,0,1
 -761 907 -761 907 -825 984 c 0,2,3
 -899 1072 -899 1072 -963 1072 c 0,4,5
 -1054 1072 -1054 1072 -1054 883 c 1,6,7
 -1090 968 -1090 968 -1126 1098 c 1,8,9
 -1106 1258 -1106 1258 -975 1258 c 0,10,11
 -885 1258 -885 1258 -765 1010 c 0,12,13
 -667 808 -667 808 -653 719 c 1,0,1
EndSplineSet
Validated: 1
EndChar

StartChar: uni90E1
Encoding: 37089 37089 251
Width: 0
Flags: W
LayerCount: 2
Fore
SplineSet
-294 719 m 1,0,1
 -368 851 -368 851 -441 984 c 1,2,3
 -497 1072 -497 1072 -554 1072 c 0,4,5
 -622 1072 -622 1072 -622 958 c 0,6,7
 -622 921 -622 921 -615 883 c 1,8,9
 -647 968 -647 968 -687 1098 c 0,10,11
 -689 1116 -689 1116 -689 1132 c 0,12,13
 -689 1258 -689 1258 -566 1258 c 0,14,15
 -477 1258 -477 1258 -381 1010 c 0,16,17
 -312 831 -312 831 -294 719 c 1,0,1
EndSplineSet
Validated: 1
EndChar

StartChar: uni90E2
Encoding: 37090 37090 252
Width: 0
Flags: W
LayerCount: 2
Fore
SplineSet
-224 719 m 1,0,1
 -298 851 -298 851 -371 984 c 1,2,3
 -427 1072 -427 1072 -484 1072 c 0,4,5
 -552 1072 -552 1072 -552 958 c 0,6,7
 -552 921 -552 921 -545 883 c 1,8,9
 -577 968 -577 968 -617 1098 c 0,10,11
 -619 1116 -619 1116 -619 1132 c 0,12,13
 -619 1258 -619 1258 -496 1258 c 0,14,15
 -407 1258 -407 1258 -311 1010 c 0,16,17
 -242 831 -242 831 -224 719 c 1,0,1
EndSplineSet
Validated: 1
EndChar

StartChar: uni90E3
Encoding: 37091 37091 253
Width: 0
Flags: W
LayerCount: 2
Fore
SplineSet
-124 719 m 1,0,1
 -128 1127 -128 1127 -284 1127 c 0,2,3
 -375 1127 -375 1127 -392 960 c 1,4,5
 -409 1144 -409 1144 -405 1187 c 0,6,7
 -397 1242 -397 1242 -378 1266 c 0,8,9
 -343 1310 -343 1310 -257 1310 c 0,10,11
 -102 1310 -102 1310 -102 983 c 0,12,13
 -102 856 -102 856 -124 719 c 1,0,1
EndSplineSet
Validated: 33
EndChar

StartChar: uni90E8
Encoding: 37096 37096 254
Width: 0
Flags: W
LayerCount: 2
Fore
SplineSet
-617 1135 m 0,0,1
 -602 1099 -602 1099 -878 746 c 1,2,-1
 -741 980 l 2,3,4
 -735 991 -735 991 -836 991 c 2,5,-1
 -1037 991 l 2,6,7
 -1101 991 -1101 991 -1101 1083 c 0,8,9
 -1101 1123 -1101 1123 -939 1350 c 1,10,11
 -985 1244 -985 1244 -985 1224 c 0,12,13
 -985 1164 -985 1164 -898 1164 c 0,14,15
 -868 1164 -868 1164 -807 1171.5 c 128,-1,16
 -746 1179 -746 1179 -716 1179 c 0,17,18
 -636 1179 -636 1179 -617 1135 c 0,0,1
EndSplineSet
Validated: 33
EndChar

StartChar: uni90E9
Encoding: 37097 37097 255
Width: 0
Flags: W
LayerCount: 2
Fore
SplineSet
-417 1135 m 0,0,1
 -402 1099 -402 1099 -678 746 c 1,2,-1
 -541 980 l 2,3,4
 -535 991 -535 991 -636 991 c 2,5,-1
 -837 991 l 2,6,7
 -901 991 -901 991 -901 1083 c 0,8,9
 -901 1123 -901 1123 -739 1350 c 1,10,11
 -785 1244 -785 1244 -785 1224 c 0,12,13
 -785 1164 -785 1164 -698 1164 c 0,14,15
 -668 1164 -668 1164 -607 1171.5 c 128,-1,16
 -546 1179 -546 1179 -516 1179 c 0,17,18
 -436 1179 -436 1179 -417 1135 c 0,0,1
EndSplineSet
Validated: 33
EndChar

StartChar: uni90EA
Encoding: 37098 37098 256
Width: 0
Flags: W
LayerCount: 2
Fore
SplineSet
-308 1052 m 0,0,1
 -308 1034 -308 1034 -492 767 c 1,2,-1
 -433 893 l 2,3,4
 -426 908 -426 908 -537 908 c 2,5,-1
 -657 908 l 2,6,7
 -722 908 -722 908 -722 1000 c 0,8,9
 -722 1040 -722 1040 -570 1247 c 1,10,11
 -605 1162 -605 1162 -605 1141 c 0,12,13
 -605 1073 -605 1073 -502 1073 c 0,14,15
 -479 1073 -479 1073 -433 1077.5 c 128,-1,16
 -387 1082 -387 1082 -364 1082 c 0,17,18
 -308 1082 -308 1082 -308 1052 c 0,0,1
EndSplineSet
Validated: 33
EndChar

StartChar: uni90EB
Encoding: 37099 37099 257
Width: 0
Flags: W
LayerCount: 2
Fore
SplineSet
-140 1052 m 0,0,1
 -140 1034 -140 1034 -324 767 c 1,2,-1
 -265 893 l 2,3,4
 -258 908 -258 908 -369 908 c 2,5,-1
 -489 908 l 2,6,7
 -554 908 -554 908 -554 1000 c 0,8,9
 -554 1040 -554 1040 -402 1247 c 1,10,11
 -437 1162 -437 1162 -437 1141 c 0,12,13
 -437 1073 -437 1073 -334 1073 c 0,14,15
 -311 1073 -311 1073 -265 1077.5 c 128,-1,16
 -219 1082 -219 1082 -196 1082 c 0,17,18
 -140 1082 -140 1082 -140 1052 c 0,0,1
EndSplineSet
Validated: 33
EndChar

StartChar: uni9152
Encoding: 37202 37202 258
Width: 410
Flags: W
LayerCount: 2
Fore
SplineSet
387 172 m 1,0,1
 364 81 364 81 311 0 c 1,2,3
 219 0 219 0 119 182 c 0,4,5
 16 370 16 370 16 567 c 0,6,7
 16 833 16 833 90 1009 c 0,8,9
 175 1213 175 1213 373 1331 c 1,10,11
 235 1199 235 1199 184 1020 c 0,12,13
 148 893 148 893 148 693 c 0,14,15
 148 563 148 563 207 406 c 0,16,17
 278 214 278 214 387 172 c 1,0,1
EndSplineSet
Validated: 1
EndChar

StartChar: uni9153
Encoding: 37203 37203 259
Width: 410
Flags: W
LayerCount: 2
Fore
SplineSet
16 1159 m 1,0,1
 39 1250 39 1250 92 1331 c 1,2,3
 184 1331 184 1331 284 1150 c 0,4,5
 387 961 387 961 387 764 c 0,6,7
 387 498 387 498 313 322 c 0,8,9
 228 118 228 118 30 0 c 1,10,11
 168 132 168 132 219 311 c 0,12,13
 255 438 255 438 255 638 c 0,14,15
 255 768 255 768 196 925 c 0,16,17
 125 1117 125 1117 16 1159 c 1,0,1
EndSplineSet
Validated: 1
EndChar

StartChar: uni9161
Encoding: 37217 37217 260
Width: 768
Flags: W
LayerCount: 2
Fore
SplineSet
788 1 m 0,0,1
 788 -112 788 -112 669 -271 c 0,2,3
 524 -465 524 -465 408 -465 c 0,4,5
 355 -465 355 -465 308 -383 c 1,6,-1
 436 -225 l 1,7,8
 496 -275 496 -275 543 -275 c 0,9,10
 634 -275 634 -275 634 -165 c 0,11,12
 634 -91 634 -91 586 -47 c 0,13,14
 535 0 535 0 441 0 c 2,15,-1
 0 0 l 1,16,17
 57 195 57 195 57 332 c 2,18,-1
 57 410 l 2,19,20
 57 478 57 478 0 522 c 1,21,22
 46 575 46 575 129 675 c 1,23,24
 166 646 166 646 195 512 c 1,25,26
 271 589 271 589 327 619 c 0,27,28
 396 655 396 655 489 655 c 0,29,30
 574 655 574 655 646 586 c 128,-1,31
 718 517 718 517 718 432 c 256,32,33
 718 347 718 347 602 191 c 1,34,35
 676 169 676 169 729 118 c 0,36,37
 788 62 788 62 788 1 c 0,0,1
566 270 m 0,38,39
 566 351 566 351 510 425 c 0,40,41
 449 504 449 504 370 504 c 0,42,43
 296 504 296 504 200 417 c 1,44,-1
 200 186 l 1,45,-1
 512 191 l 1,46,47
 566 210 566 210 566 270 c 0,38,39
EndSplineSet
Validated: 1
EndChar

StartChar: uniB219
Encoding: 45593 45593 261
Width: 410
Flags: W
LayerCount: 2
Fore
SplineSet
287 348 m 1,0,-1
 200 261 l 1,1,-1
 121 340 l 1,2,-1
 208 427 l 1,3,-1
 287 348 l 1,0,-1
EndSplineSet
Validated: 1
EndChar

StartChar: uni9026
Encoding: 36902 36902 262
Width: 0
Flags: W
LayerCount: 2
Fore
SplineSet
-413 1327 m 1,0,1
 -258 1492 -258 1492 -141 1492 c 0,2,3
 -110 1492 -110 1492 -81 1480 c 0,4,5
 20 1438 20 1438 20 1352 c 0,6,7
 20 1248 20 1248 -123 1081 c 0,8,9
 -272 907 -272 907 -607 720 c 1,10,11
 -164 1048 -164 1048 -164 1239 c 0,12,13
 -164 1287 -164 1287 -192 1327 c 0,14,15
 -221 1369 -221 1369 -277 1369 c 0,16,17
 -332 1369 -332 1369 -413 1327 c 1,0,1
-597 1053 m 1,18,19
 -428 1326 -428 1326 -321 1326 c 0,20,21
 -292 1326 -292 1326 -266 1307 c 0,22,23
 -224 1276 -224 1276 -224 1227 c 0,24,25
 -224 1136 -224 1136 -364 983 c 0,26,27
 -476 860 -476 860 -658 719 c 1,28,29
 -474 890 -474 890 -403 1020 c 0,30,31
 -382 1058 -382 1058 -382 1085 c 256,32,33
 -382 1112 -382 1112 -401 1131 c 128,-1,34
 -420 1150 -420 1150 -447 1150 c 0,35,36
 -509 1150 -509 1150 -597 1053 c 1,18,19
EndSplineSet
Validated: 1
EndChar

StartChar: uni904A
Encoding: 36938 36938 263
Width: 0
Flags: W
LayerCount: 2
Fore
SplineSet
-245 1283 m 1,0,1
 -102.259259259 1487.53703704 -102.259259259 1487.53703704 23.8155006859 1487.53703704 c 0,2,3
 42.5925925926 1487.53703704 42.5925925926 1487.53703704 61 1483 c 0,4,5
 182.909492274 1452.39293598 182.909492274 1452.39293598 182.909492274 1345.62607878 c 0,6,7
 182.909492274 1246.58278146 182.909492274 1246.58278146 78 1082 c 0,8,9
 13 980 13 980 -298 742 c 1,10,11
 13.3356643357 1053.33566434 13.3356643357 1053.33566434 13.3356643357 1217.1678933 c 0,12,13
 13.3356643357 1275.4020979 13.3356643357 1275.4020979 -26 1315 c 0,14,15
 -55.9382022472 1344.93820225 -55.9382022472 1344.93820225 -98.1544312587 1344.93820225 c 0,16,17
 -158.876404494 1344.93820225 -158.876404494 1344.93820225 -245 1283 c 1,0,1
-349 1067 m 1,18,19
 -220 1281 -220 1281 -127 1281 c 0,20,21
 -94 1281 -94 1281 -71.5 1258 c 128,-1,22
 -49 1235 -49 1235 -49 1201 c 0,23,24
 -49 1062 -49 1062 -392 719 c 1,25,26
 -185 973 -185 973 -185 1070 c 0,27,28
 -185 1122 -185 1122 -244 1122 c 0,29,30
 -309 1122 -309 1122 -349 1067 c 1,18,19
EndSplineSet
Validated: 1
EndChar

StartChar: uni904D
Encoding: 36941 36941 264
Width: 0
Flags: W
LayerCount: 2
Fore
SplineSet
-123 1309 m 1,0,1
 -1.58823529412 1549.94117647 -1.58823529412 1549.94117647 134.882352941 1549.94117647 c 0,2,3
 143.411764706 1549.94117647 143.411764706 1549.94117647 152 1549 c 0,4,5
 293.176470588 1533.70588235 293.176470588 1533.70588235 293.176470588 1399.7266436 c 0,6,7
 293.176470588 1305.94117647 293.176470588 1305.94117647 224 1154 c 0,8,9
 142 974 142 974 -112 717 c 1,10,11
 150.694300518 1059.84974093 150.694300518 1059.84974093 150.694300518 1237.5514242 c 0,12,13
 150.694300518 1323.66839378 150.694300518 1323.66839378 89 1371 c 0,14,15
 61.5212765957 1392.11170213 61.5212765957 1392.11170213 28.6523313717 1392.11170213 c 0,16,17
 -36.5638297872 1392.11170213 -36.5638297872 1392.11170213 -123 1309 c 1,0,1
-193 1106 m 1,18,19
 -132 1202 -132 1202 -83 1265 c 0,20,21
 -50 1307 -50 1307 5 1307 c 0,22,23
 83 1307 83 1307 83 1222 c 0,24,25
 83 1070 83 1070 -184 719 c 1,26,27
 -13 1047 -13 1047 -13 1107 c 0,28,29
 -13 1155 -13 1155 -62 1155 c 0,30,31
 -129 1155 -129 1155 -193 1106 c 1,18,19
EndSplineSet
Validated: 1
EndChar

StartChar: uni904E
Encoding: 36942 36942 265
Width: 0
Flags: W
LayerCount: 2
Fore
SplineSet
164 1158 m 1,0,1
 164.550561798 1173.73033708 164.550561798 1173.73033708 164.550561798 1188.3409923 c 0,2,3
 164.550561798 1359.49438202 164.550561798 1359.49438202 89 1377 c 0,4,5
 73.2341389728 1380.62688822 73.2341389728 1380.62688822 58.2079001652 1380.62688822 c 0,6,7
 -129.773413897 1380.62688822 -129.773413897 1380.62688822 -202 813 c 1,8,9
 -173 1236 -173 1236 -124 1347 c 0,10,11
 -29.2765957447 1562.15744681 -29.2765957447 1562.15744681 79.1802625622 1562.15744681 c 0,12,13
 131.021276596 1562.15744681 131.021276596 1562.15744681 186 1513 c 0,14,15
 225.111111111 1477.44444444 225.111111111 1477.44444444 225.111111111 1403.37037037 c 0,16,17
 225.111111111 1310.77777778 225.111111111 1310.77777778 164 1158 c 1,0,1
43 978 m 1,18,19
 56 1016 56 1016 56 1051 c 0,20,21
 56 1121 56 1121 1 1121 c 0,22,23
 -65 1121 -65 1121 -184 719 c 1,24,25
 -80 1288 -80 1288 42 1288 c 0,26,27
 116 1288 116 1288 116 1207 c 0,28,29
 116 1114 116 1114 43 978 c 1,18,19
EndSplineSet
Validated: 1
EndChar

StartChar: uni9055
Encoding: 36949 36949 266
Width: 0
Flags: W
LayerCount: 2
Fore
SplineSet
-463 1309 m 1,0,1
 -341.588235294 1549.94117647 -341.588235294 1549.94117647 -205.117647059 1549.94117647 c 0,2,3
 -196.588235294 1549.94117647 -196.588235294 1549.94117647 -188 1549 c 0,4,5
 -46.8235294118 1533.70588235 -46.8235294118 1533.70588235 -46.8235294118 1399.7266436 c 0,6,7
 -46.8235294118 1305.94117647 -46.8235294118 1305.94117647 -116 1154 c 0,8,9
 -198 974 -198 974 -452 717 c 1,10,11
 -189.305699482 1059.84974093 -189.305699482 1059.84974093 -189.305699482 1237.5514242 c 0,12,13
 -189.305699482 1323.66839378 -189.305699482 1323.66839378 -251 1371 c 0,14,15
 -278.478723404 1392.11170213 -278.478723404 1392.11170213 -311.347668628 1392.11170213 c 0,16,17
 -376.563829787 1392.11170213 -376.563829787 1392.11170213 -463 1309 c 1,0,1
-534 1106 m 1,18,19
 -473 1202 -473 1202 -424 1265 c 0,20,21
 -391 1307 -391 1307 -336 1307 c 0,22,23
 -254 1307 -254 1307 -254 1219 c 0,24,25
 -254 1128 -254 1128 -362 961 c 0,26,27
 -378 935 -378 935 -535 719 c 1,28,29
 -354 1010 -354 1010 -354 1107 c 0,30,31
 -354 1155 -354 1155 -403 1155 c 0,32,33
 -470 1155 -470 1155 -534 1106 c 1,18,19
EndSplineSet
Validated: 1
EndChar

StartChar: uni9059
Encoding: 36953 36953 267
Width: 0
Flags: W
LayerCount: 2
Fore
SplineSet
-176 1108 m 1,0,1
 -175.449438202 1123.96629213 -175.449438202 1123.96629213 -175.449438202 1138.77578589 c 0,2,3
 -175.449438202 1312.25842697 -175.449438202 1312.25842697 -251 1327 c 0,4,5
 -263.148031496 1329.27401575 -263.148031496 1329.27401575 -274.977342675 1329.27401575 c 0,6,7
 -460.822047244 1329.27401575 -460.822047244 1329.27401575 -568 768 c 1,8,9
 -544 1116 -544 1116 -464 1297 c 0,10,11
 -369.276595745 1512.15744681 -369.276595745 1512.15744681 -260.819737438 1512.15744681 c 0,12,13
 -208.978723404 1512.15744681 -208.978723404 1512.15744681 -154 1463 c 0,14,15
 -114.888888889 1427.44444444 -114.888888889 1427.44444444 -114.888888889 1353.37037037 c 0,16,17
 -114.888888889 1260.77777778 -114.888888889 1260.77777778 -176 1108 c 1,0,1
-298 912 m 1,18,19
 -285 950 -285 950 -285 985 c 0,20,21
 -285 1055 -285 1055 -340 1055 c 0,22,23
 -416 1055 -416 1055 -535 719 c 1,24,-1
 -448 1007 l 1,25,26
 -369 1222 -369 1222 -299 1222 c 0,27,28
 -225 1222 -225 1222 -225 1141 c 0,29,30
 -225 1048 -225 1048 -298 912 c 1,18,19
EndSplineSet
Validated: 1
EndChar

StartChar: uni905E
Encoding: 36958 36958 268
Width: 0
Flags: W
LayerCount: 2
Fore
SplineSet
-98 1092 m 1,0,1
 -72.7105263158 1160.93421053 -72.7105263158 1160.93421053 -72.7105263158 1210.06942521 c 0,2,3
 -72.7105263158 1281.39473684 -72.7105263158 1281.39473684 -126 1311 c 0,4,5
 -168.046332046 1334.45559846 -168.046332046 1334.45559846 -211.994469373 1334.45559846 c 0,6,7
 -420.992277992 1334.45559846 -420.992277992 1334.45559846 -673 804 c 1,8,9
 -511 1203 -511 1203 -379 1349 c 0,10,11
 -219.275049116 1525.8172888 -219.275049116 1525.8172888 -112.004735971 1525.8172888 c 0,12,13
 -37.2730844794 1525.8172888 -37.2730844794 1525.8172888 12 1440 c 0,14,15
 32.81640625 1403.78515625 32.81640625 1403.78515625 32.81640625 1359.92678833 c 0,16,17
 32.81640625 1249.98046875 32.81640625 1249.98046875 -98 1092 c 1,0,1
-347 853 m 1,18,19
 -284 943 -284 943 -284 1013 c 0,20,21
 -284 1072 -284 1072 -348 1072 c 0,22,23
 -456 1072 -456 1072 -658 719 c 1,24,25
 -575 898 -575 898 -486 1034 c 0,26,27
 -339 1258 -339 1258 -236 1258 c 0,28,29
 -141 1258 -141 1258 -141 1166 c 0,30,31
 -141 1057 -141 1057 -347 853 c 1,18,19
EndSplineSet
Validated: 1
EndChar

StartChar: uniEDC3
Encoding: 60867 60867 269
Width: 0
Flags: W
LayerCount: 2
Fore
SplineSet
-708 726 m 1,0,-1
 -1182 1280 l 1,1,-1
 -1147 1330 l 1,2,-1
 -708 726 l 1,0,-1
EndSplineSet
Validated: 1
EndChar

StartChar: uniEDC0
Encoding: 60864 60864 270
Width: 0
Flags: W
LayerCount: 2
Fore
SplineSet
-242 746 m 1,0,-1
 -573 1111 l 1,1,-1
 -538 1161 l 1,2,-1
 -242 746 l 1,0,-1
EndSplineSet
Validated: 1
EndChar

StartChar: uniEDC2
Encoding: 60866 60866 271
Width: 0
Flags: W
LayerCount: 2
Fore
SplineSet
-555 746 m 1,0,-1
 -896 1154 l 1,1,-1
 -861 1204 l 1,2,-1
 -555 746 l 1,0,-1
EndSplineSet
Validated: 1
EndChar

StartChar: uniEDC1
Encoding: 60865 60865 272
Width: 0
Flags: W
LayerCount: 2
Fore
SplineSet
-184 767 m 1,0,-1
 -475 1070 l 1,1,-1
 -440 1120 l 1,2,-1
 -184 767 l 1,0,-1
EndSplineSet
Validated: 1
EndChar

StartChar: uni9023
Encoding: 36899 36899 273
Width: 0
Flags: W
LayerCount: 2
Fore
SplineSet
-561 1114 m 5,0,-1
 -454 1221 l 5,1,-1
 -375 1142 l 5,2,-1
 -482 1035 l 5,3,-1
 -561 1114 l 5,0,-1
-461 943 m 5,4,-1
 -354 1050 l 5,5,-1
 -275 971 l 5,6,-1
 -382 864 l 5,7,-1
 -461 943 l 5,4,-1
-789 1115 m 5,8,-1
 -682 1222 l 5,9,-1
 -603 1143 l 5,10,-1
 -710 1036 l 5,11,-1
 -789 1115 l 5,8,-1
-699 944 m 5,12,-1
 -592 1051 l 5,13,-1
 -513 972 l 5,14,-1
 -620 865 l 5,15,-1
 -699 944 l 5,12,-1
-922 941 m 5,16,-1
 -815 1048 l 5,17,-1
 -736 969 l 5,18,-1
 -843 862 l 5,19,-1
 -922 941 l 5,16,-1
EndSplineSet
EndChar

StartChar: uni9043
Encoding: 36931 36931 274
Width: 0
Flags: W
LayerCount: 2
Fore
SplineSet
-123 1114 m 1,0,-1
 -16 1221 l 1,1,-1
 63 1142 l 1,2,-1
 -44 1035 l 1,3,-1
 -123 1114 l 1,0,-1
-23 943 m 1,4,-1
 84 1050 l 1,5,-1
 163 971 l 1,6,-1
 56 864 l 1,7,-1
 -23 943 l 1,4,-1
-351 1115 m 1,8,-1
 -244 1222 l 1,9,-1
 -165 1143 l 1,10,-1
 -272 1036 l 1,11,-1
 -351 1115 l 1,8,-1
-261 944 m 1,12,-1
 -154 1051 l 1,13,-1
 -75 972 l 1,14,-1
 -182 865 l 1,15,-1
 -261 944 l 1,12,-1
-484 941 m 1,16,-1
 -377 1048 l 1,17,-1
 -298 969 l 1,18,-1
 -405 862 l 1,19,-1
 -484 941 l 1,16,-1
EndSplineSet
EndChar

StartChar: uni9044
Encoding: 36932 36932 275
Width: 0
Flags: W
LayerCount: 2
Fore
SplineSet
-282 1114 m 5,0,-1
 -175 1221 l 5,1,-1
 -96 1142 l 5,2,-1
 -203 1035 l 5,3,-1
 -282 1114 l 5,0,-1
-182 943 m 5,4,-1
 -75 1050 l 5,5,-1
 4 971 l 5,6,-1
 -103 864 l 5,7,-1
 -182 943 l 5,4,-1
-510 1115 m 5,8,-1
 -403 1222 l 5,9,-1
 -324 1143 l 5,10,-1
 -431 1036 l 5,11,-1
 -510 1115 l 5,8,-1
-420 944 m 5,12,-1
 -313 1051 l 5,13,-1
 -234 972 l 5,14,-1
 -341 865 l 5,15,-1
 -420 944 l 5,12,-1
-643 941 m 5,16,-1
 -536 1048 l 5,17,-1
 -457 969 l 5,18,-1
 -564 862 l 5,19,-1
 -643 941 l 5,16,-1
EndSplineSet
EndChar

StartChar: uni9045
Encoding: 36933 36933 276
Width: 0
Flags: W
LayerCount: 2
Fore
SplineSet
-356 1114 m 5,0,-1
 -249 1221 l 5,1,-1
 -170 1142 l 5,2,-1
 -277 1035 l 5,3,-1
 -356 1114 l 5,0,-1
-256 943 m 5,4,-1
 -149 1050 l 5,5,-1
 -70 971 l 5,6,-1
 -177 864 l 5,7,-1
 -256 943 l 5,4,-1
-584 1115 m 5,8,-1
 -477 1222 l 5,9,-1
 -398 1143 l 5,10,-1
 -505 1036 l 5,11,-1
 -584 1115 l 5,8,-1
-494 944 m 5,12,-1
 -387 1051 l 5,13,-1
 -308 972 l 5,14,-1
 -415 865 l 5,15,-1
 -494 944 l 5,12,-1
-717 941 m 5,16,-1
 -610 1048 l 5,17,-1
 -531 969 l 5,18,-1
 -638 862 l 5,19,-1
 -717 941 l 5,16,-1
EndSplineSet
EndChar

StartChar: uniED82
Encoding: 60802 60802 277
Width: 0
Flags: W
LayerCount: 2
Fore
SplineSet
-330 969 m 1,0,-1
 -437 862 l 1,1,-1
 -516 941 l 1,2,-1
 -409 1048 l 1,3,-1
 -330 969 l 1,0,-1
-450 1140 m 1,4,-1
 -557 1033 l 1,5,-1
 -636 1112 l 1,6,-1
 -529 1219 l 1,7,-1
 -450 1140 l 1,4,-1
-178 1143 m 1,8,-1
 -284 1036 l 1,9,-1
 -363 1115 l 1,10,-1
 -257 1222 l 1,11,-1
 -178 1143 l 1,8,-1
EndSplineSet
EndChar

StartChar: uniE03D
Encoding: 57405 57405 278
Width: 900
Flags: W
LayerCount: 2
Fore
SplineSet
554 320 m 0,0,1
 554 392 554 392 443 440 c 0,2,3
 353 478 353 478 268 478 c 0,4,5
 205 478 205 478 185 473 c 0,6,7
 154 464 154 464 115 428 c 1,8,9
 115 332 115 332 189 261 c 128,-1,10
 263 190 263 190 357 190 c 0,11,12
 416 190 416 190 480 225 c 0,13,14
 554 266 554 266 554 320 c 0,0,1
586 167 m 1,15,16
 704 156 704 156 831 156 c 0,17,18
 947 156 947 156 1019 179 c 1,19,20
 978 -31 978 -31 664 -31 c 0,21,22
 596 -31 596 -31 456 -15.5 c 128,-1,23
 316 0 316 0 249 0 c 0,24,25
 168 0 168 0 84 79 c 128,-1,26
 0 158 0 158 0 238 c 0,27,28
 0 392 0 392 118 524 c 0,29,30
 240 659 240 659 392 659 c 0,31,32
 501 659 501 659 595 589 c 0,33,34
 696 513 696 513 696 407 c 0,35,36
 696 346 696 346 632 240 c 0,37,38
 604 194 604 194 586 167 c 1,15,16
EndSplineSet
EndChar

StartChar: uni2058
Encoding: 8280 8280 279
Width: 726
Flags: W
LayerCount: 2
Fore
SplineSet
407 337 m 5,0,-1
 514 444 l 5,1,-1
 593 365 l 5,2,-1
 486 258 l 5,3,-1
 407 337 l 5,0,-1
66 321 m 5,4,-1
 173 428 l 5,5,-1
 252 349 l 5,6,-1
 145 242 l 5,7,-1
 66 321 l 5,4,-1
236 491 m 5,8,-1
 343 598 l 5,9,-1
 422 519 l 5,10,-1
 315 412 l 5,11,-1
 236 491 l 5,8,-1
236 150 m 5,12,-1
 343 257 l 5,13,-1
 422 178 l 5,14,-1
 310 71 l 5,15,-1
 236 150 l 5,12,-1
EndSplineSet
EndChar

StartChar: uni2E2D
Encoding: 11821 11821 280
Width: 836
Flags: W
LayerCount: 2
Fore
SplineSet
521 339 m 1,0,-1
 628 446 l 1,1,-1
 707 367 l 1,2,-1
 600 260 l 1,3,-1
 521 339 l 1,0,-1
61 339 m 1,4,-1
 168 446 l 1,5,-1
 247 367 l 1,6,-1
 140 260 l 1,7,-1
 61 339 l 1,4,-1
291 559 m 1,8,-1
 398 666 l 1,9,-1
 477 587 l 1,10,-1
 370 480 l 1,11,-1
 291 559 l 1,8,-1
291 119 m 1,12,-1
 398 226 l 1,13,-1
 477 147 l 1,14,-1
 370 40 l 1,15,-1
 291 119 l 1,12,-1
291 339 m 1,16,-1
 398 446 l 1,17,-1
 477 367 l 1,18,-1
 370 260 l 1,19,-1
 291 339 l 1,16,-1
EndSplineSet
EndChar

StartChar: uni10FB
Encoding: 4347 4347 281
Width: 524
Flags: W
LayerCount: 2
Fore
SplineSet
237 337 m 1,0,-1
 344 444 l 1,1,-1
 423 365 l 1,2,-1
 316 258 l 1,3,-1
 237 337 l 1,0,-1
66 491 m 1,4,-1
 173 598 l 1,5,-1
 252 519 l 1,6,-1
 145 412 l 1,7,-1
 66 491 l 1,4,-1
66 150 m 1,8,-1
 173 257 l 1,9,-1
 252 178 l 1,10,-1
 140 71 l 1,11,-1
 66 150 l 1,8,-1
EndSplineSet
EndChar

StartChar: uni2E2C
Encoding: 11820 11820 282
Width: 723
Flags: W
LayerCount: 2
Fore
SplineSet
406 491 m 1,0,-1
 513 598 l 1,1,-1
 592 519 l 1,2,-1
 485 412 l 1,3,-1
 406 491 l 1,0,-1
406 150 m 1,4,-1
 513 257 l 1,5,-1
 592 178 l 1,6,-1
 480 71 l 1,7,-1
 406 150 l 1,4,-1
66 491 m 1,8,-1
 173 598 l 1,9,-1
 252 519 l 1,10,-1
 145 412 l 1,11,-1
 66 491 l 1,8,-1
66 150 m 1,12,-1
 173 257 l 1,13,-1
 252 178 l 1,14,-1
 140 71 l 1,15,-1
 66 150 l 1,12,-1
EndSplineSet
EndChar

StartChar: uniEC00
Encoding: 60416 60416 283
Width: 0
Flags: W
LayerCount: 2
Fore
SplineSet
-430 -41 m 5,0,-1
 53 -41 l 5,1,-1
 -50 -174 l 5,2,-1
 -532 -174 l 5,3,-1
 -430 -41 l 5,0,-1
EndSplineSet
EndChar

StartChar: uniEC10
Encoding: 60432 60432 284
Width: 0
Flags: W
LayerCount: 2
Fore
SplineSet
48 -20 m 5,0,1
 -74 -217 -74 -217 -192 -217 c 4,2,3
 -238 -217 -238 -217 -327 -189 c 132,-1,4
 -416 -161 -416 -161 -453 -161 c 4,5,6
 -515 -161 -515 -161 -573 -215 c 5,7,8
 -459 -29 -459 -29 -327 -29 c 4,9,10
 -289 -29 -289 -29 -216 -51 c 132,-1,11
 -143 -73 -143 -73 -105 -73 c 4,12,13
 -35 -73 -35 -73 48 -20 c 5,0,1
EndSplineSet
EndChar

StartChar: uniEC20
Encoding: 60448 60448 285
Width: 0
Flags: W
LayerCount: 2
Fore
SplineSet
-380 840 m 5,0,-1
 103 840 l 5,1,-1
 0 706 l 5,2,-1
 -482 706 l 5,3,-1
 -380 840 l 5,0,-1
EndSplineSet
EndChar

StartChar: uniEC30
Encoding: 60464 60464 286
Width: 0
Flags: W
LayerCount: 2
Fore
SplineSet
128 881 m 5,0,1
 6 685 6 685 -112 685 c 4,2,3
 -158 685 -158 685 -247 713 c 132,-1,4
 -336 741 -336 741 -373 741 c 4,5,6
 -435 741 -435 741 -493 686 c 5,7,8
 -379 873 -379 873 -247 873 c 4,9,10
 -209 873 -209 873 -136 850.5 c 132,-1,11
 -63 828 -63 828 -25 828 c 4,12,13
 45 828 45 828 128 881 c 5,0,1
EndSplineSet
EndChar

StartChar: uniECE3
Encoding: 60643 60643 287
Width: 0
Flags: W
LayerCount: 2
Fore
SplineSet
-561 1114 m 5,0,-1
 -454 1221 l 5,1,-1
 -375 1142 l 5,2,-1
 -482 1035 l 5,3,-1
 -561 1114 l 5,0,-1
-461 943 m 5,4,-1
 -354 1050 l 5,5,-1
 -275 971 l 5,6,-1
 -382 864 l 5,7,-1
 -461 943 l 5,4,-1
-789 1115 m 5,8,-1
 -682 1222 l 5,9,-1
 -603 1143 l 5,10,-1
 -710 1036 l 5,11,-1
 -789 1115 l 5,8,-1
-699 944 m 5,12,-1
 -592 1051 l 5,13,-1
 -513 972 l 5,14,-1
 -620 865 l 5,15,-1
 -699 944 l 5,12,-1
-922 941 m 5,16,-1
 -815 1048 l 5,17,-1
 -736 969 l 5,18,-1
 -843 862 l 5,19,-1
 -922 941 l 5,16,-1
EndSplineSet
EndChar

StartChar: uniECF3
Encoding: 60659 60659 288
Width: 0
Flags: W
LayerCount: 2
Fore
SplineSet
-74 1280 m 5,0,-1
 -548 726 l 5,1,-1
 -109 1330 l 5,2,-1
 -74 1280 l 5,0,-1
-234 1280 m 1,3,-1
 -708 726 l 1,4,-1
 -269 1330 l 1,5,-1
 -234 1280 l 1,3,-1
EndSplineSet
EndChar

StartChar: uniED23
Encoding: 60707 60707 289
Width: 0
Flags: W
LayerCount: 2
Fore
SplineSet
-413 1327 m 1,0,1
 -258 1492 -258 1492 -141 1492 c 0,2,3
 -110 1492 -110 1492 -81 1480 c 0,4,5
 20 1438 20 1438 20 1352 c 0,6,7
 20 1248 20 1248 -123 1081 c 0,8,9
 -272 907 -272 907 -607 720 c 1,10,11
 -164 1048 -164 1048 -164 1239 c 0,12,13
 -164 1287 -164 1287 -192 1327 c 0,14,15
 -221 1369 -221 1369 -277 1369 c 0,16,17
 -332 1369 -332 1369 -413 1327 c 1,0,1
-597 1053 m 1,18,19
 -428 1326 -428 1326 -321 1326 c 0,20,21
 -292 1326 -292 1326 -266 1307 c 0,22,23
 -224 1276 -224 1276 -224 1227 c 0,24,25
 -224 1136 -224 1136 -364 983 c 0,26,27
 -476 860 -476 860 -658 719 c 1,28,29
 -474 890 -474 890 -403 1020 c 0,30,31
 -382 1058 -382 1058 -382 1085 c 256,32,33
 -382 1112 -382 1112 -401 1131 c 128,-1,34
 -420 1150 -420 1150 -447 1150 c 0,35,36
 -509 1150 -509 1150 -597 1053 c 1,18,19
EndSplineSet
EndChar

StartChar: uniECE0
Encoding: 60640 60640 290
Width: 0
Flags: W
LayerCount: 2
Fore
SplineSet
-123 1114 m 1,0,-1
 -16 1221 l 1,1,-1
 63 1142 l 1,2,-1
 -44 1035 l 1,3,-1
 -123 1114 l 1,0,-1
-23 943 m 1,4,-1
 84 1050 l 1,5,-1
 163 971 l 1,6,-1
 56 864 l 1,7,-1
 -23 943 l 1,4,-1
-351 1115 m 1,8,-1
 -244 1222 l 1,9,-1
 -165 1143 l 1,10,-1
 -272 1036 l 1,11,-1
 -351 1115 l 1,8,-1
-261 944 m 1,12,-1
 -154 1051 l 1,13,-1
 -75 972 l 1,14,-1
 -182 865 l 1,15,-1
 -261 944 l 1,12,-1
-484 941 m 1,16,-1
 -377 1048 l 1,17,-1
 -298 969 l 1,18,-1
 -405 862 l 1,19,-1
 -484 941 l 1,16,-1
EndSplineSet
EndChar

StartChar: uniECE1
Encoding: 60641 60641 291
Width: 0
Flags: W
LayerCount: 2
Fore
SplineSet
-282 1114 m 5,0,-1
 -175 1221 l 5,1,-1
 -96 1142 l 5,2,-1
 -203 1035 l 5,3,-1
 -282 1114 l 5,0,-1
-182 943 m 5,4,-1
 -75 1050 l 5,5,-1
 4 971 l 5,6,-1
 -103 864 l 5,7,-1
 -182 943 l 5,4,-1
-510 1115 m 5,8,-1
 -403 1222 l 5,9,-1
 -324 1143 l 5,10,-1
 -431 1036 l 5,11,-1
 -510 1115 l 5,8,-1
-420 944 m 5,12,-1
 -313 1051 l 5,13,-1
 -234 972 l 5,14,-1
 -341 865 l 5,15,-1
 -420 944 l 5,12,-1
-643 941 m 5,16,-1
 -536 1048 l 5,17,-1
 -457 969 l 5,18,-1
 -564 862 l 5,19,-1
 -643 941 l 5,16,-1
EndSplineSet
EndChar

StartChar: uniECE2
Encoding: 60642 60642 292
Width: 0
Flags: W
LayerCount: 2
Fore
SplineSet
-356 1114 m 5,0,-1
 -249 1221 l 5,1,-1
 -170 1142 l 5,2,-1
 -277 1035 l 5,3,-1
 -356 1114 l 5,0,-1
-256 943 m 5,4,-1
 -149 1050 l 5,5,-1
 -70 971 l 5,6,-1
 -177 864 l 5,7,-1
 -256 943 l 5,4,-1
-584 1115 m 5,8,-1
 -477 1222 l 5,9,-1
 -398 1143 l 5,10,-1
 -505 1036 l 5,11,-1
 -584 1115 l 5,8,-1
-494 944 m 5,12,-1
 -387 1051 l 5,13,-1
 -308 972 l 5,14,-1
 -415 865 l 5,15,-1
 -494 944 l 5,12,-1
-717 941 m 5,16,-1
 -610 1048 l 5,17,-1
 -531 969 l 5,18,-1
 -638 862 l 5,19,-1
 -717 941 l 5,16,-1
EndSplineSet
EndChar

StartChar: uniECF0
Encoding: 60656 60656 293
Width: 0
Flags: W
LayerCount: 2
Fore
SplineSet
237 1070 m 1,0,-1
 -54 767 l 1,1,-1
 202 1120 l 1,2,-1
 237 1070 l 1,0,-1
107 1070 m 1,3,-1
 -184 767 l 1,4,-1
 72 1120 l 1,5,-1
 107 1070 l 1,3,-1
EndSplineSet
EndChar

StartChar: uniED11
Encoding: 60689 60689 294
Width: 0
Flags: W
LayerCount: 2
Fore
SplineSet
39.3896484375 1137.05957031 m 5,0,1
 46 1318 46 1318 -55.1220703125 1336.82910156 c 4,2,3
 -295 1382 -295 1382 -414 769 c 5,4,5
 -391 1106 -391 1106 -307 1294 c 4,6,7
 -143 1664 -143 1664 35.7099609375 1502.59960938 c 4,8,9
 145 1404 145 1404 39.3896484375 1137.05957031 c 5,0,1
-101 985 m 1,10,11
 -92 1006 -92 1006 -96 1035 c 0,12,13
 -103 1086 -103 1086 -140 1086 c 0,14,15
 -219 1086 -219 1086 -402 719 c 1,16,17
 -238 1145 -238 1145 -181 1207 c 0,18,19
 -126 1266 -126 1266 -92 1266 c 0,20,21
 -59 1266 -59 1266 -35 1239 c 128,-1,22
 -11 1212 -11 1212 -11 1179 c 0,23,24
 -11 1100 -11 1100 -101 985 c 1,10,11
EndSplineSet
EndChar

StartChar: uniED21
Encoding: 60705 60705 295
Width: 0
Flags: W
LayerCount: 2
Fore
SplineSet
-245 1283 m 1,0,1
 -102.259259259 1487.53703704 -102.259259259 1487.53703704 23.8155006859 1487.53703704 c 0,2,3
 42.5925925926 1487.53703704 42.5925925926 1487.53703704 61 1483 c 0,4,5
 182.909492274 1452.39293598 182.909492274 1452.39293598 182.909492274 1345.62607878 c 0,6,7
 182.909492274 1246.58278146 182.909492274 1246.58278146 78 1082 c 0,8,9
 13 980 13 980 -298 742 c 1,10,11
 13.3356643357 1053.33566434 13.3356643357 1053.33566434 13.3356643357 1217.1678933 c 0,12,13
 13.3356643357 1275.4020979 13.3356643357 1275.4020979 -26 1315 c 0,14,15
 -55.9382022472 1344.93820225 -55.9382022472 1344.93820225 -98.1544312587 1344.93820225 c 0,16,17
 -158.876404494 1344.93820225 -158.876404494 1344.93820225 -245 1283 c 1,0,1
-349 1067 m 1,18,19
 -220 1281 -220 1281 -127 1281 c 0,20,21
 -94 1281 -94 1281 -71.5 1258 c 128,-1,22
 -49 1235 -49 1235 -49 1201 c 0,23,24
 -49 1062 -49 1062 -392 719 c 1,25,26
 -185 973 -185 973 -185 1070 c 0,27,28
 -185 1122 -185 1122 -244 1122 c 0,29,30
 -309 1122 -309 1122 -349 1067 c 1,18,19
EndSplineSet
EndChar

StartChar: uniED20
Encoding: 60704 60704 296
Width: 0
Flags: W
LayerCount: 2
Fore
SplineSet
-123 1309 m 1,0,1
 -1.58823529412 1549.94117647 -1.58823529412 1549.94117647 134.882352941 1549.94117647 c 0,2,3
 143.411764706 1549.94117647 143.411764706 1549.94117647 152 1549 c 0,4,5
 293.176470588 1533.70588235 293.176470588 1533.70588235 293.176470588 1399.7266436 c 0,6,7
 293.176470588 1305.94117647 293.176470588 1305.94117647 224 1154 c 0,8,9
 142 974 142 974 -112 717 c 1,10,11
 150.694300518 1059.84974093 150.694300518 1059.84974093 150.694300518 1237.5514242 c 0,12,13
 150.694300518 1323.66839378 150.694300518 1323.66839378 89 1371 c 0,14,15
 61.5212765957 1392.11170213 61.5212765957 1392.11170213 28.6523313717 1392.11170213 c 0,16,17
 -36.5638297872 1392.11170213 -36.5638297872 1392.11170213 -123 1309 c 1,0,1
-193 1106 m 1,18,19
 -132 1202 -132 1202 -83 1265 c 0,20,21
 -50 1307 -50 1307 5 1307 c 0,22,23
 83 1307 83 1307 83 1222 c 0,24,25
 83 1070 83 1070 -184 719 c 1,26,27
 -13 1047 -13 1047 -13 1107 c 0,28,29
 -13 1155 -13 1155 -62 1155 c 0,30,31
 -129 1155 -129 1155 -193 1106 c 1,18,19
EndSplineSet
EndChar

StartChar: uniED10
Encoding: 60688 60688 297
Width: 0
Flags: W
LayerCount: 2
Fore
SplineSet
164 1158 m 1,0,1
 164.550561798 1173.73033708 164.550561798 1173.73033708 164.550561798 1188.3409923 c 0,2,3
 164.550561798 1359.49438202 164.550561798 1359.49438202 89 1377 c 0,4,5
 73.2341389728 1380.62688822 73.2341389728 1380.62688822 58.2079001652 1380.62688822 c 0,6,7
 -129.773413897 1380.62688822 -129.773413897 1380.62688822 -202 813 c 1,8,9
 -173 1236 -173 1236 -124 1347 c 0,10,11
 -29.2765957447 1562.15744681 -29.2765957447 1562.15744681 79.1802625622 1562.15744681 c 0,12,13
 131.021276596 1562.15744681 131.021276596 1562.15744681 186 1513 c 0,14,15
 225.111111111 1477.44444444 225.111111111 1477.44444444 225.111111111 1403.37037037 c 0,16,17
 225.111111111 1310.77777778 225.111111111 1310.77777778 164 1158 c 1,0,1
43 978 m 1,18,19
 56 1016 56 1016 56 1051 c 0,20,21
 56 1121 56 1121 1 1121 c 0,22,23
 -65 1121 -65 1121 -184 719 c 1,24,25
 -80 1288 -80 1288 42 1288 c 0,26,27
 116 1288 116 1288 116 1207 c 0,28,29
 116 1114 116 1114 43 978 c 1,18,19
EndSplineSet
EndChar

StartChar: uniECF2
Encoding: 60658 60658 298
Width: 0
Flags: W
LayerCount: 2
Fore
SplineSet
-54 1154 m 5,0,-1
 -395 746 l 5,1,-1
 -89 1204 l 5,2,-1
 -54 1154 l 5,0,-1
-214 1154 m 1,3,-1
 -555 746 l 1,4,-1
 -249 1204 l 1,5,-1
 -214 1154 l 1,3,-1
EndSplineSet
EndChar

StartChar: uniED22
Encoding: 60706 60706 299
Width: 0
Flags: W
LayerCount: 2
Fore
SplineSet
-463 1309 m 1,0,1
 -341.588235294 1549.94117647 -341.588235294 1549.94117647 -205.117647059 1549.94117647 c 0,2,3
 -196.588235294 1549.94117647 -196.588235294 1549.94117647 -188 1549 c 0,4,5
 -46.8235294118 1533.70588235 -46.8235294118 1533.70588235 -46.8235294118 1399.7266436 c 0,6,7
 -46.8235294118 1305.94117647 -46.8235294118 1305.94117647 -116 1154 c 0,8,9
 -198 974 -198 974 -452 717 c 1,10,11
 -189.305699482 1059.84974093 -189.305699482 1059.84974093 -189.305699482 1237.5514242 c 0,12,13
 -189.305699482 1323.66839378 -189.305699482 1323.66839378 -251 1371 c 0,14,15
 -278.478723404 1392.11170213 -278.478723404 1392.11170213 -311.347668628 1392.11170213 c 0,16,17
 -376.563829787 1392.11170213 -376.563829787 1392.11170213 -463 1309 c 1,0,1
-534 1106 m 1,18,19
 -473 1202 -473 1202 -424 1265 c 0,20,21
 -391 1307 -391 1307 -336 1307 c 0,22,23
 -254 1307 -254 1307 -254 1219 c 0,24,25
 -254 1128 -254 1128 -362 961 c 0,26,27
 -378 935 -378 935 -535 719 c 1,28,29
 -354 1010 -354 1010 -354 1107 c 0,30,31
 -354 1155 -354 1155 -403 1155 c 0,32,33
 -470 1155 -470 1155 -534 1106 c 1,18,19
EndSplineSet
EndChar

StartChar: uniECF1
Encoding: 60657 60657 300
Width: 0
Flags: W
LayerCount: 2
Fore
SplineSet
121 1174 m 5,0,-1
 -262 746 l 5,1,-1
 86 1224 l 5,2,-1
 121 1174 l 5,0,-1
-19 1174 m 1,3,-1
 -402 746 l 1,4,-1
 -54 1224 l 1,5,-1
 -19 1174 l 1,3,-1
EndSplineSet
EndChar

StartChar: uniED12
Encoding: 60690 60690 301
Width: 0
Flags: W
LayerCount: 2
Fore
SplineSet
-176 1108 m 1,0,1
 -175.449438202 1123.96629213 -175.449438202 1123.96629213 -175.449438202 1138.77578589 c 0,2,3
 -175.449438202 1312.25842697 -175.449438202 1312.25842697 -251 1327 c 0,4,5
 -263.148031496 1329.27401575 -263.148031496 1329.27401575 -274.977342675 1329.27401575 c 0,6,7
 -460.822047244 1329.27401575 -460.822047244 1329.27401575 -568 768 c 1,8,9
 -544 1116 -544 1116 -464 1297 c 0,10,11
 -369.276595745 1512.15744681 -369.276595745 1512.15744681 -260.819737438 1512.15744681 c 0,12,13
 -208.978723404 1512.15744681 -208.978723404 1512.15744681 -154 1463 c 0,14,15
 -114.888888889 1427.44444444 -114.888888889 1427.44444444 -114.888888889 1353.37037037 c 0,16,17
 -114.888888889 1260.77777778 -114.888888889 1260.77777778 -176 1108 c 1,0,1
-298 912 m 1,18,19
 -285 950 -285 950 -285 985 c 0,20,21
 -285 1055 -285 1055 -340 1055 c 0,22,23
 -416 1055 -416 1055 -535 719 c 1,24,-1
 -448 1007 l 1,25,26
 -369 1222 -369 1222 -299 1222 c 0,27,28
 -225 1222 -225 1222 -225 1141 c 0,29,30
 -225 1048 -225 1048 -298 912 c 1,18,19
EndSplineSet
EndChar

StartChar: uniED13
Encoding: 60691 60691 302
Width: 0
Flags: W
LayerCount: 2
Fore
SplineSet
-98 1092 m 1,0,1
 -72.7105263158 1160.93421053 -72.7105263158 1160.93421053 -72.7105263158 1210.06942521 c 0,2,3
 -72.7105263158 1281.39473684 -72.7105263158 1281.39473684 -126 1311 c 0,4,5
 -168.046332046 1334.45559846 -168.046332046 1334.45559846 -211.994469373 1334.45559846 c 0,6,7
 -420.992277992 1334.45559846 -420.992277992 1334.45559846 -673 804 c 1,8,9
 -511 1203 -511 1203 -379 1349 c 0,10,11
 -219.275049116 1525.8172888 -219.275049116 1525.8172888 -112.004735971 1525.8172888 c 0,12,13
 -37.2730844794 1525.8172888 -37.2730844794 1525.8172888 12 1440 c 0,14,15
 32.81640625 1403.78515625 32.81640625 1403.78515625 32.81640625 1359.92678833 c 0,16,17
 32.81640625 1249.98046875 32.81640625 1249.98046875 -98 1092 c 1,0,1
-347 853 m 1,18,19
 -284 943 -284 943 -284 1013 c 0,20,21
 -284 1072 -284 1072 -348 1072 c 0,22,23
 -456 1072 -456 1072 -658 719 c 1,24,25
 -575 898 -575 898 -486 1034 c 0,26,27
 -339 1258 -339 1258 -236 1258 c 0,28,29
 -141 1258 -141 1258 -141 1166 c 0,30,31
 -141 1057 -141 1057 -347 853 c 1,18,19
EndSplineSet
EndChar

StartChar: parenleft
Encoding: 40 40 303
Width: 410
Flags: W
LayerCount: 2
Fore
SplineSet
387 172 m 1,0,1
 364 81 364 81 311 0 c 1,2,3
 219 0 219 0 119 182 c 0,4,5
 16 370 16 370 16 567 c 0,6,7
 16 833 16 833 90 1009 c 0,8,9
 175 1213 175 1213 373 1331 c 1,10,11
 235 1199 235 1199 184 1020 c 0,12,13
 148 893 148 893 148 693 c 0,14,15
 148 563 148 563 207 406 c 0,16,17
 278 214 278 214 387 172 c 1,0,1
EndSplineSet
EndChar

StartChar: parenright
Encoding: 41 41 304
Width: 410
Flags: W
LayerCount: 2
Fore
SplineSet
16 1159 m 1,0,1
 39 1250 39 1250 92 1331 c 1,2,3
 184 1331 184 1331 284 1150 c 0,4,5
 387 961 387 961 387 764 c 0,6,7
 387 498 387 498 313 322 c 0,8,9
 228 118 228 118 30 0 c 1,10,11
 168 132 168 132 219 311 c 0,12,13
 255 438 255 438 255 638 c 0,14,15
 255 768 255 768 196 925 c 0,16,17
 125 1117 125 1117 16 1159 c 1,0,1
EndSplineSet
EndChar

StartChar: uniE03B
Encoding: 57403 57403 305
Width: 768
Flags: W
LayerCount: 2
Fore
SplineSet
788 1 m 0,0,1
 788 -112 788 -112 669 -271 c 0,2,3
 524 -465 524 -465 408 -465 c 0,4,5
 355 -465 355 -465 308 -383 c 1,6,-1
 436 -225 l 1,7,8
 496 -275 496 -275 543 -275 c 0,9,10
 634 -275 634 -275 634 -165 c 0,11,12
 634 -91 634 -91 586 -47 c 0,13,14
 535 0 535 0 441 0 c 2,15,-1
 0 0 l 1,16,17
 57 195 57 195 57 332 c 2,18,-1
 57 410 l 2,19,20
 57 478 57 478 0 522 c 1,21,22
 46 575 46 575 129 675 c 1,23,24
 166 646 166 646 195 512 c 1,25,26
 271 589 271 589 327 619 c 0,27,28
 396 655 396 655 489 655 c 0,29,30
 574 655 574 655 646 586 c 128,-1,31
 718 517 718 517 718 432 c 256,32,33
 718 347 718 347 602 191 c 1,34,35
 676 169 676 169 729 118 c 0,36,37
 788 62 788 62 788 1 c 0,0,1
566 270 m 0,38,39
 566 351 566 351 510 425 c 0,40,41
 449 504 449 504 370 504 c 0,42,43
 296 504 296 504 200 417 c 1,44,-1
 200 186 l 1,45,-1
 512 191 l 1,46,47
 566 210 566 210 566 270 c 0,38,39
EndSplineSet
EndChar

StartChar: uniE030
Encoding: 57392 57392 306
Width: 778
Flags: W
LayerCount: 2
Fore
SplineSet
0 377 m 1,0,1
 62 548 62 548 153 646 c 0,2,3
 190 686 190 686 335 686 c 0,4,5
 454 686 454 686 532.5 605.5 c 128,-1,6
 611 525 611 525 611 405 c 0,7,8
 611 262 611 262 510 135 c 0,9,10
 403 0 403 0 264 0 c 0,11,12
 159 0 159 0 59 79 c 1,13,-1
 178 238 l 2,14,15
 179 238 179 238 265 198.5 c 128,-1,16
 351 159 351 159 396 159 c 0,17,18
 478 159 478 159 478 267 c 0,19,20
 478 371 478 371 409 438 c 128,-1,21
 340 505 340 505 235 505 c 0,22,23
 73 505 73 505 0 377 c 1,0,1
EndSplineSet
Validated: 1
EndChar

StartChar: bracketleft
Encoding: 91 91 307
Width: 410
Flags: W
LayerCount: 2
Fore
SplineSet
387 172 m 1,0,1
 364 81 364 81 311 0 c 1,2,3
 219 0 219 0 119 182 c 0,4,5
 16 370 16 370 16 567 c 0,6,7
 16 833 16 833 90 1009 c 0,8,9
 175 1213 175 1213 373 1331 c 1,10,11
 235 1199 235 1199 184 1020 c 0,12,13
 148 893 148 893 148 693 c 0,14,15
 148 563 148 563 207 406 c 0,16,17
 278 214 278 214 387 172 c 1,0,1
EndSplineSet
EndChar

StartChar: bracketright
Encoding: 93 93 308
Width: 410
Flags: W
LayerCount: 2
Fore
SplineSet
16 1159 m 1,0,1
 39 1250 39 1250 92 1331 c 1,2,3
 184 1331 184 1331 284 1150 c 0,4,5
 387 961 387 961 387 764 c 0,6,7
 387 498 387 498 313 322 c 0,8,9
 228 118 228 118 30 0 c 1,10,11
 168 132 168 132 219 311 c 0,12,13
 255 438 255 438 255 638 c 0,14,15
 255 768 255 768 196 925 c 0,16,17
 125 1117 125 1117 16 1159 c 1,0,1
EndSplineSet
EndChar

StartChar: quotedblright
Encoding: 8221 8221 309
Width: 592
Flags: W
LayerCount: 2
Fore
SplineSet
223 881 m 2,0,1
 106 768 l 1,2,3
 164 846 164 846 164 962 c 2,4,-1
 164 1151 l 2,5,6
 164 1167 164 1167 135 1167 c 0,7,8
 127 1167 127 1167 116 1166 c 1,9,-1
 284 1338 l 1,10,-1
 285 1110 l 2,11,12
 285 1022 285 1022 279 988 c 0,13,14
 267 923 267 923 223 881 c 2,0,1
422 911 m 2,15,16
 305 798 l 1,17,18
 363 876 363 876 363 992 c 2,19,-1
 363 1181 l 2,20,21
 363 1197 363 1197 334 1197 c 0,22,23
 326 1197 326 1197 315 1196 c 1,24,-1
 483 1368 l 1,25,-1
 484 1140 l 2,26,27
 484 1052 484 1052 478 1018 c 0,28,29
 466 953 466 953 422 911 c 2,15,16
EndSplineSet
Validated: 1
EndChar

StartChar: quotedblleft
Encoding: 8220 8220 310
Width: 592
Flags: W
LayerCount: 2
Fore
SplineSet
223 -457 m 2,0,1
 106 -570 l 1,2,3
 164 -492 164 -492 164 -376 c 2,4,-1
 164 -187 l 2,5,6
 164 -171 164 -171 135 -171 c 0,7,8
 127 -171 127 -171 116 -172 c 1,9,-1
 284 0 l 1,10,-1
 285 -228 l 2,11,12
 285 -316 285 -316 279 -350 c 0,13,14
 267 -415 267 -415 223 -457 c 2,0,1
422 -427 m 2,15,16
 305 -540 l 1,17,18
 363 -462 363 -462 363 -346 c 2,19,-1
 363 -157 l 2,20,21
 363 -141 363 -141 334 -141 c 0,22,23
 326 -141 326 -141 315 -142 c 1,24,-1
 483 30 l 1,25,-1
 484 -198 l 2,26,27
 484 -286 484 -286 478 -320 c 0,28,29
 466 -385 466 -385 422 -427 c 2,15,16
EndSplineSet
Validated: 1
EndChar

StartChar: uni201F
Encoding: 8223 8223 311
Width: 592
Flags: W
LayerCount: 2
Fore
SplineSet
223 881 m 2,0,1
 106 768 l 1,2,3
 164 846 164 846 164 962 c 2,4,-1
 164 1151 l 2,5,6
 164 1167 164 1167 135 1167 c 0,7,8
 127 1167 127 1167 116 1166 c 1,9,-1
 284 1338 l 1,10,-1
 285 1110 l 2,11,12
 285 1022 285 1022 279 988 c 0,13,14
 267 923 267 923 223 881 c 2,0,1
422 911 m 2,15,16
 305 798 l 1,17,18
 363 876 363 876 363 992 c 2,19,-1
 363 1181 l 2,20,21
 363 1197 363 1197 334 1197 c 0,22,23
 326 1197 326 1197 315 1196 c 1,24,-1
 483 1368 l 1,25,-1
 484 1140 l 2,26,27
 484 1052 484 1052 478 1018 c 0,28,29
 466 953 466 953 422 911 c 2,15,16
EndSplineSet
Validated: 1
EndChar

StartChar: quotedblbase
Encoding: 8222 8222 312
Width: 592
Flags: W
LayerCount: 2
Fore
SplineSet
223 -457 m 2,0,1
 106 -570 l 1,2,3
 164 -492 164 -492 164 -376 c 2,4,-1
 164 -187 l 2,5,6
 164 -171 164 -171 135 -171 c 0,7,8
 127 -171 127 -171 116 -172 c 1,9,-1
 284 0 l 1,10,-1
 285 -228 l 2,11,12
 285 -316 285 -316 279 -350 c 0,13,14
 267 -415 267 -415 223 -457 c 2,0,1
422 -427 m 2,15,16
 305 -540 l 1,17,18
 363 -462 363 -462 363 -346 c 2,19,-1
 363 -157 l 2,20,21
 363 -141 363 -141 334 -141 c 0,22,23
 326 -141 326 -141 315 -142 c 1,24,-1
 483 30 l 1,25,-1
 484 -198 l 2,26,27
 484 -286 484 -286 478 -320 c 0,28,29
 466 -385 466 -385 422 -427 c 2,15,16
EndSplineSet
Validated: 1
EndChar

StartChar: zero
Encoding: 48 48 313
Width: 778
Flags: W
LayerCount: 2
Fore
SplineSet
0 377 m 1,0,1
 62 548 62 548 153 646 c 0,2,3
 190 686 190 686 335 686 c 0,4,5
 454 686 454 686 532.5 605.5 c 128,-1,6
 611 525 611 525 611 405 c 0,7,8
 611 262 611 262 510 135 c 0,9,10
 403 0 403 0 264 0 c 0,11,12
 159 0 159 0 59 79 c 1,13,-1
 178 238 l 2,14,15
 179 238 179 238 265 198.5 c 128,-1,16
 351 159 351 159 396 159 c 0,17,18
 478 159 478 159 478 267 c 0,19,20
 478 371 478 371 409 438 c 128,-1,21
 340 505 340 505 235 505 c 0,22,23
 73 505 73 505 0 377 c 1,0,1
EndSplineSet
Validated: 1
EndChar

StartChar: one
Encoding: 49 49 314
Width: 768
Flags: W
LayerCount: 2
Fore
SplineSet
103 491 m 2,0,1
 31 491 31 491 0 473 c 1,2,3
 92 680 92 680 156 680 c 2,4,-1
 698 682 l 1,5,6
 673 618 673 618 606 497 c 1,7,-1
 269 493 l 1,8,9
 268 438 268 438 268 324 c 0,10,11
 268 190 268 190 416 190 c 0,12,13
 501 190 501 190 566 263 c 1,14,15
 418 0 418 0 321 0 c 0,16,17
 138 0 138 0 133 210 c 0,18,19
 131 291 131 291 133 491 c 1,20,-1
 103 491 l 2,0,1
EndSplineSet
Validated: 33
EndChar

StartChar: two
Encoding: 50 50 315
Width: 1078
Flags: W
LayerCount: 2
Fore
SplineSet
1078 682 m 1,0,1
 1053 618 1053 618 986 497 c 1,2,-1
 619 493 l 1,3,4
 618 438 618 438 618 324 c 0,5,6
 618 190 618 190 766 190 c 0,7,8
 851 190 851 190 916 263 c 1,9,10
 768 0 768 0 671 0 c 0,11,12
 521 0 521 0 490 141 c 1,13,14
 392 0 392 0 321 0 c 0,15,16
 138 0 138 0 133 210 c 0,17,18
 131 291 131 291 133 491 c 1,19,-1
 103 491 l 2,20,21
 31 491 31 491 0 473 c 1,22,23
 92 680 92 680 156 680 c 2,24,-1
 1078 682 l 1,0,1
269 493 m 1,25,26
 268 438 268 438 268 324 c 0,27,28
 268 190 268 190 416 190 c 0,29,30
 451 190 451 190 483 203 c 1,31,32
 482 238 482 238 482 310 c 0,33,34
 482 381 482 381 483 491 c 1,35,36
 412 493 412 493 269 493 c 1,25,26
EndSplineSet
Validated: 33
EndChar

StartChar: three
Encoding: 51 51 316
Width: 1382
Flags: W
LayerCount: 2
Fore
SplineSet
269 493 m 1,0,1
 268 438 268 438 268 324 c 0,2,3
 268 190 268 190 416 190 c 0,4,5
 451 190 451 190 483 203 c 1,6,7
 482 238 482 238 482 310 c 0,8,9
 482 381 482 381 483 491 c 1,10,11
 412 493 412 493 269 493 c 1,0,1
1382 682 m 1,12,13
 1357 618 1357 618 1290 497 c 1,14,-1
 969 493 l 1,15,16
 968 438 968 438 968 324 c 0,17,18
 968 190 968 190 1116 190 c 0,19,20
 1201 190 1201 190 1266 263 c 1,21,22
 1118 0 1118 0 1021 0 c 0,23,24
 871 0 871 0 840 141 c 1,25,26
 742 0 742 0 671 0 c 0,27,28
 521 0 521 0 490 141 c 1,29,30
 392 0 392 0 321 0 c 0,31,32
 138 0 138 0 133 210 c 0,33,34
 131 291 131 291 133 491 c 1,35,-1
 103 491 l 2,36,37
 31 491 31 491 0 473 c 1,38,39
 92 680 92 680 156 680 c 2,40,-1
 1382 682 l 1,12,13
619 493 m 1,41,42
 618 438 618 438 618 324 c 0,43,44
 618 190 618 190 766 190 c 0,45,46
 801 190 801 190 833 203 c 1,47,48
 832 238 832 238 832 310 c 0,49,50
 832 381 832 381 833 491 c 1,51,52
 762 493 762 493 619 493 c 1,41,42
EndSplineSet
Validated: 33
EndChar

StartChar: four
Encoding: 52 52 317
Width: 798
Flags: W
LayerCount: 2
Fore
SplineSet
112 -589 m 0,0,1
 20 -509 20 -509 20 -350 c 0,2,3
 20 -287 20 -287 38.5 -163 c 128,-1,4
 57 -39 57 -39 57 10 c 2,5,-1
 57 1048 l 2,6,7
 57 1116 57 1116 0 1160 c 1,8,9
 46 1213 46 1213 129 1313 c 1,10,11
 183 1270 183 1270 200 1130 c 1,12,-1
 200 160 l 2,13,14
 200 108 200 108 186 -27.5 c 128,-1,15
 172 -163 172 -163 172 -230 c 0,16,17
 172 -388 172 -388 234 -450 c 0,18,19
 318 -534 318 -534 491 -534 c 0,20,21
 517 -534 517 -534 585 -501.5 c 128,-1,22
 653 -469 653 -469 668 -449 c 1,23,24
 679 -355 679 -355 655 -295 c 1,25,26
 671 -268 671 -268 723 -184 c 1,27,28
 798 -199 798 -199 798 -295 c 0,29,30
 798 -410 798 -410 661 -554 c 128,-1,31
 524 -698 524 -698 408 -698 c 0,32,33
 238 -698 238 -698 112 -589 c 0,0,1
EndSplineSet
Validated: 33
EndChar

StartChar: five
Encoding: 53 53 318
Width: 1050
Flags: W
LayerCount: 2
Fore
SplineSet
755 93 m 1,0,1
 769 28 769 28 783 -36 c 0,2,3
 798 -110 798 -110 798 -295 c 0,4,5
 798 -410 798 -410 661 -554 c 128,-1,6
 524 -698 524 -698 408 -698 c 0,7,8
 238 -698 238 -698 112 -589 c 0,9,10
 20 -509 20 -509 20 -350 c 0,11,12
 20 -287 20 -287 38.5 -163 c 128,-1,13
 57 -39 57 -39 57 10 c 2,14,-1
 57 1048 l 2,15,16
 57 1116 57 1116 0 1160 c 1,17,18
 46 1213 46 1213 129 1313 c 1,19,20
 183 1270 183 1270 200 1130 c 1,21,-1
 200 645 l 1,22,23
 231 680 231 680 257 680 c 2,24,-1
 999 682 l 1,25,26
 974 618 974 618 907 497 c 1,27,-1
 570 493 l 1,28,29
 569 438 569 438 569 324 c 0,30,31
 569 190 569 190 717 190 c 0,32,33
 802 190 802 190 867 263 c 1,34,35
 807 156 807 156 755 93 c 1,0,1
622 0 m 1,36,37
 439 0 439 0 434 210 c 0,38,39
 432 291 432 291 434 491 c 1,40,-1
 200 491 l 1,41,-1
 200 160 l 2,42,43
 200 108 200 108 186 -27.5 c 128,-1,44
 172 -163 172 -163 172 -230 c 0,45,46
 172 -388 172 -388 234 -450 c 0,47,48
 318 -534 318 -534 491 -534 c 0,49,50
 517 -534 517 -534 585 -501.5 c 128,-1,51
 653 -469 653 -469 668 -449 c 1,52,53
 668 -164 668 -164 648 -72 c 1,54,55
 635 -36 635 -36 622 0 c 1,36,37
EndSplineSet
Validated: 33
EndChar

StartChar: six
Encoding: 54 54 319
Width: 1379
Flags: W
LayerCount: 2
Fore
SplineSet
622 0 m 1,0,1
 439 0 439 0 434 210 c 0,2,3
 432 291 432 291 434 491 c 1,4,-1
 200 491 l 1,5,-1
 200 160 l 2,6,7
 200 105 200 105 182.5 -37 c 128,-1,8
 165 -179 165 -179 165 -248 c 0,9,10
 165 -392 165 -392 224 -450 c 0,11,12
 308 -534 308 -534 481 -534 c 0,13,14
 508 -534 508 -534 575.5 -506 c 128,-1,15
 643 -478 643 -478 658 -459 c 1,16,17
 658 -173 658 -173 643 -77 c 1,18,19
 632 -38 632 -38 622 0 c 1,0,1
1379 682 m 1,20,21
 1354 618 1354 618 1287 497 c 1,22,-1
 920 493 l 1,23,24
 919 438 919 438 919 324 c 0,25,26
 919 190 919 190 1067 190 c 0,27,28
 1152 190 1152 190 1217 263 c 1,29,30
 1069 0 1069 0 972 0 c 0,31,32
 822 0 822 0 791 141 c 1,33,34
 773 114 773 114 755 93 c 1,35,36
 767 26 767 26 778 -41 c 0,37,38
 788 -115 788 -115 788 -305 c 0,39,40
 788 -420 788 -420 651.5 -559 c 128,-1,41
 515 -698 515 -698 398 -698 c 0,42,43
 228 -698 228 -698 102 -589 c 0,44,45
 14 -513 14 -513 14 -364 c 0,46,47
 14 -298 14 -298 35.5 -170 c 128,-1,48
 57 -42 57 -42 57 9 c 2,49,-1
 57 1048 l 2,50,51
 57 1116 57 1116 0 1160 c 1,52,53
 46 1213 46 1213 129 1313 c 1,54,55
 183 1270 183 1270 200 1130 c 1,56,-1
 200 645 l 1,57,58
 231 680 231 680 257 680 c 2,59,-1
 1379 682 l 1,20,21
570 493 m 1,60,61
 569 438 569 438 569 324 c 0,62,63
 569 190 569 190 717 190 c 0,64,65
 752 190 752 190 784 203 c 1,66,67
 783 238 783 238 783 310 c 0,68,69
 783 381 783 381 784 491 c 1,70,71
 713 493 713 493 570 493 c 1,60,61
EndSplineSet
Validated: 33
EndChar

StartChar: seven
Encoding: 55 55 320
Width: 798
Flags: W
LayerCount: 2
Fore
SplineSet
398 -545 m 0,0,1
 478 -545 478 -545 540 -493 c 0,2,3
 611 -434 611 -434 611 -337 c 0,4,5
 611 -272 611 -272 602.5 -153 c 128,-1,6
 594 -34 594 -34 594 0 c 2,7,-1
 594 1048 l 2,8,9
 594 1116 594 1116 537 1160 c 1,10,11
 583 1213 583 1213 666 1313 c 1,12,13
 720 1270 720 1270 737 1130 c 1,14,-1
 737 0 l 2,15,16
 737 -686 737 -686 260 -698 c 0,17,18
 255.480519481 -698.116883117 255.480519481 -698.116883117 251.027829314 -698.116883117 c 0,19,20
 141.194805195 -698.116883117 141.194805195 -698.116883117 72 -627 c 0,21,22
 0 -553 0 -553 0 -438 c 1,23,24
 79 -312 79 -312 129 -285 c 1,25,26
 170 -545 170 -545 398 -545 c 0,0,1
EndSplineSet
Validated: 1
EndChar

StartChar: eight
Encoding: 56 56 321
Width: 1260
Flags: W
LayerCount: 2
Fore
SplineSet
737 412 m 1,0,-1
 737 190 l 1,1,-1
 1092 190 l 1,2,3
 1108 218 1108 218 1108 270 c 0,4,5
 1108 354 1108 354 1053 426 c 0,6,7
 994 505 994 505 913 505 c 0,8,9
 837 505 837 505 737 412 c 1,0,-1
398 -545 m 0,10,11
 478 -545 478 -545 540 -493 c 0,12,13
 611 -434 611 -434 611 -337 c 0,14,15
 611 -272 611 -272 602.5 -153 c 128,-1,16
 594 -34 594 -34 594 0 c 2,17,-1
 594 1048 l 2,18,19
 594 1116 594 1116 537 1160 c 1,20,21
 583 1213 583 1213 666 1313 c 1,22,23
 720 1270 720 1270 737 1130 c 1,24,-1
 737 511 l 1,25,26
 812 587 812 587 868 618 c 0,27,28
 939 656 939 656 1032 656 c 0,29,30
 1117 656 1117 656 1189 586.5 c 128,-1,31
 1261 517 1261 517 1261 432 c 0,32,33
 1261 329 1261 329 1168 190 c 1,34,35
 1199 191 1199 191 1260 215 c 1,36,37
 1266 165 1266 165 1127 0 c 1,38,-1
 737 0 l 1,39,40
 737 -686 737 -686 260 -698 c 0,41,42
 144 -701 144 -701 72 -627 c 128,-1,43
 0 -553 0 -553 0 -438 c 1,44,45
 79 -312 79 -312 129 -285 c 1,46,47
 170 -545 170 -545 398 -545 c 0,10,11
EndSplineSet
Validated: 33
EndChar

StartChar: nine
Encoding: 57 57 322
Width: 1748
Flags: W
LayerCount: 2
Fore
SplineSet
1163 190 m 1,0,-1
 1570 190 l 1,1,2
 1591 219 1591 219 1591 270 c 0,3,4
 1591 353 1591 353 1536 426 c 0,5,6
 1476 505 1476 505 1395 505 c 0,7,8
 1338 505 1338 505 1260 447 c 1,9,10
 1261 438 1261 438 1261 428 c 0,11,12
 1261 333 1261 333 1163 190 c 1,0,-1
737 412 m 1,13,-1
 737 186 l 1,14,-1
 1088 190 l 1,15,16
 1108 219 1108 219 1108 270 c 0,17,18
 1108 354 1108 354 1053 426 c 0,19,20
 994 505 994 505 913 505 c 0,21,22
 837 505 837 505 737 412 c 1,13,-1
398 -545 m 0,23,24
 478 -545 478 -545 540 -493 c 0,25,26
 611 -434 611 -434 611 -337 c 0,27,28
 611 -272 611 -272 602.5 -153 c 128,-1,29
 594 -34 594 -34 594 0 c 2,30,-1
 594 1048 l 2,31,32
 594 1116 594 1116 537 1160 c 1,33,34
 583 1213 583 1213 666 1313 c 1,35,36
 720 1270 720 1270 737 1130 c 1,37,-1
 737 511 l 1,38,39
 879 656 879 656 1030 656 c 0,40,41
 1161 656 1161 656 1233 526 c 1,42,43
 1368 656 1368 656 1512 656 c 0,44,45
 1599 656 1599 656 1671 587.5 c 128,-1,46
 1743 519 1743 519 1743 432 c 0,47,48
 1743 333 1743 333 1645 190 c 1,49,50
 1690 190 1690 190 1748 215 c 0,51,52
 1749 213 1749 213 1749 211 c 0,53,54
 1749 157 1749 157 1616 0 c 1,55,-1
 737 0 l 1,56,57
 737 -686 737 -686 260 -698 c 0,58,59
 144 -701 144 -701 72 -627 c 128,-1,60
 0 -553 0 -553 0 -438 c 1,61,62
 79 -312 79 -312 129 -285 c 1,63,64
 170 -545 170 -545 398 -545 c 0,23,24
EndSplineSet
Validated: 33
EndChar

